<svg width="25" height="24" viewBox="0 0 25 24" fill="none" xmlns="http://www.w3.org/2000/svg">
<g clip-path="url(#clip0_363_55434)">
<path d="M6.28233 4H9.71767C10.7019 4 11.5 4.79811 11.5 5.78233V9.21767C11.5 10.2019 10.7019 11 9.71767 11H6.28233C5.29811 11 4.5 10.2019 4.5 9.21767V5.78233C4.5 4.79811 5.29811 4 6.28233 4Z" fill="#194761"/>
<path d="M15.2823 4H18.7177C19.7019 4 20.5 4.79811 20.5 5.78233V9.21767C20.5 10.2019 19.7019 11 18.7177 11H15.2823C14.2981 11 13.5 10.2019 13.5 9.21767V5.78233C13.5 4.79811 14.2981 4 15.2823 4Z" fill="#194761"/>
<path d="M6.28233 13H9.71767C10.7019 13 11.5 13.7981 11.5 14.7823V18.2177C11.5 19.2019 10.7019 20 9.71767 20H6.28233C5.29811 20 4.5 19.2019 4.5 18.2177V14.7823C4.5 13.7981 5.29811 13 6.28233 13Z" fill="#194761"/>
<path fill-rule="evenodd" clip-rule="evenodd" d="M17.6215 14.0025C18.1341 13.9992 18.6657 13.9992 19.1878 14.0025C19.5621 14.0058 19.8577 14.2649 19.9395 14.6701C20.0087 15.0155 19.8074 15.3974 19.4803 15.5369C19.3639 15.5867 19.2444 15.5967 19.1626 15.5967C18.2413 15.6 17.4143 15.6 16.6502 15.6H16.6496C16.3035 15.6 15.969 15.5991 15.6441 15.5983C15.3371 15.5975 15.0385 15.5967 14.7467 15.5967C14.3001 15.5967 13.9572 15.2546 13.9541 14.8062C13.9541 14.6003 14.0296 14.4044 14.168 14.2549C14.3189 14.0922 14.5297 14.0025 14.7561 14.0025H16.3791H16.9547H17.4579H17.6215ZM14.732 17.6021C16.4713 17.5988 17.8803 17.5988 19.1667 17.6021C19.3806 17.6053 19.5819 17.6905 19.7297 17.8541C19.8744 18.008 19.9531 18.2044 19.9499 18.4107C19.9436 18.8493 19.5882 19.1963 19.1416 19.1996H17.6161H17.5753H16.2951H16.2448H15.6535C15.3044 19.1996 15.0182 19.1996 14.7571 19.1963C14.4803 19.1931 14.235 19.0654 14.0872 18.8461C13.9488 18.6398 13.9142 18.3779 13.9991 18.1324C14.106 17.8149 14.4017 17.6021 14.732 17.6021Z" fill="#194761"/>
</g>
<defs>
<clipPath id="clip0_363_55434">
<rect width="16" height="16" fill="white" transform="translate(4.5 4)"/>
</clipPath>
</defs>
</svg>
