<svg width="40" height="40" viewBox="0 0 40 40" fill="none" xmlns="http://www.w3.org/2000/svg">
<rect width="40" height="40" rx="8" fill="#FFBE17"/>
<path fill-rule="evenodd" clip-rule="evenodd" d="M12.9166 15.9549L12.9165 15.9677C16.1538 16.0917 16.875 17.1587 16.875 21.1632C16.875 25.4522 16.0477 26.3715 12.1875 26.3715C8.32734 26.3715 7.5 25.4522 7.5 21.1632C7.5 17.6284 8.06195 16.3824 10.4204 16.0535C10.4179 16.0209 10.4166 15.9881 10.4166 15.9549C10.4166 13.1046 11.6596 11.1362 13.5839 9.94837C15.4179 8.81619 17.7627 8.45489 19.9653 8.4549C22.1649 8.4549 24.5244 8.80856 26.3744 9.93403C28.3164 11.1155 29.5833 13.0841 29.5833 15.9549C29.5833 15.9881 29.582 16.0209 29.5794 16.0534C31.938 16.3823 32.5 17.6283 32.5 21.1632C32.5 25.4522 31.6727 26.3715 27.8125 26.3715C23.9523 26.3715 23.125 25.4522 23.125 21.1632C23.125 17.1588 23.8462 16.0917 27.0833 15.9677C27.0833 15.9635 27.0833 15.9592 27.0833 15.9549C27.0833 13.9512 26.2668 12.7948 25.0751 12.0699C23.7915 11.289 21.9671 10.9549 19.9653 10.9549C17.9667 10.9549 16.1621 11.2948 14.8971 12.0757C13.7223 12.8009 12.9166 13.9576 12.9166 15.9549ZM10.141 23.2961C10.052 22.8508 10 22.1847 10 21.1632C10 20.1417 10.052 19.4755 10.141 19.0303C10.1827 18.8221 10.2243 18.7048 10.2496 18.6464C10.2849 18.6325 10.3412 18.6135 10.4259 18.5926C10.7508 18.5124 11.2867 18.4549 12.1875 18.4549C13.0883 18.4549 13.6242 18.5124 13.9491 18.5926C14.0338 18.6135 14.0901 18.6325 14.1254 18.6464C14.1507 18.7048 14.1923 18.8221 14.234 19.0303C14.323 19.4755 14.375 20.1417 14.375 21.1632C14.375 22.1847 14.323 22.8508 14.234 23.2961C14.1923 23.5043 14.1507 23.6216 14.1254 23.6799C14.0901 23.6939 14.0338 23.7129 13.9491 23.7338C13.6242 23.814 13.0883 23.8715 12.1875 23.8715C11.2867 23.8715 10.7508 23.814 10.4259 23.7338C10.3412 23.7129 10.2849 23.6939 10.2496 23.6799C10.2243 23.6216 10.1827 23.5043 10.141 23.2961ZM10.2738 23.728C10.2738 23.7279 10.273 23.7265 10.2712 23.724L10.2726 23.7262C10.2733 23.7274 10.2738 23.728 10.2738 23.728ZM10.209 23.6618C10.2034 23.6579 10.2 23.6562 10.1998 23.6563C10.1995 23.6564 10.2023 23.6583 10.209 23.6618ZM14.1752 23.6563C14.175 23.6562 14.1716 23.6579 14.166 23.6618C14.1727 23.6583 14.1755 23.6564 14.1752 23.6563ZM14.1038 23.7239C14.102 23.7265 14.1012 23.7279 14.1012 23.728C14.1012 23.728 14.1014 23.7278 14.1017 23.7273L14.1038 23.7239ZM14.1012 18.5984C14.1012 18.5985 14.102 18.5999 14.1038 18.6024C14.1021 18.5996 14.1012 18.5983 14.1012 18.5984ZM14.166 18.6646C14.1716 18.6685 14.175 18.6702 14.1752 18.6701C14.1755 18.67 14.1727 18.668 14.166 18.6646ZM10.1998 18.6701C10.2 18.6702 10.2034 18.6685 10.209 18.6646C10.2023 18.668 10.1995 18.67 10.1998 18.6701ZM10.2712 18.6024C10.273 18.5999 10.2738 18.5985 10.2738 18.5984C10.2738 18.5983 10.2729 18.5996 10.2712 18.6024ZM25.625 21.1632C25.625 22.1847 25.677 22.8508 25.766 23.2961C25.8077 23.5043 25.8493 23.6216 25.8746 23.6799C25.9099 23.6939 25.9662 23.7129 26.0509 23.7338C26.3758 23.814 26.9117 23.8715 27.8125 23.8715C28.7133 23.8715 29.2492 23.814 29.5741 23.7338C29.6588 23.7129 29.7151 23.6939 29.7504 23.6799C29.7757 23.6216 29.8173 23.5043 29.859 23.2961C29.948 22.8508 30 22.1847 30 21.1632C30 20.1417 29.948 19.4755 29.859 19.0303C29.8173 18.8221 29.7757 18.7048 29.7504 18.6464C29.7151 18.6325 29.6588 18.6135 29.5741 18.5926C29.2492 18.5124 28.7133 18.4549 27.8125 18.4549C26.9117 18.4549 26.3758 18.5124 26.0509 18.5926C25.9662 18.6135 25.9099 18.6325 25.8746 18.6464C25.8493 18.7048 25.8077 18.8221 25.766 19.0303C25.677 19.4755 25.625 20.1417 25.625 21.1632ZM25.8988 23.728C25.8988 23.7279 25.898 23.7265 25.8962 23.724C25.8979 23.7268 25.8988 23.728 25.8988 23.728ZM25.834 23.6618C25.8284 23.6579 25.825 23.6562 25.8248 23.6563C25.8245 23.6564 25.8273 23.6583 25.834 23.6618ZM29.7967 23.6581C29.7988 23.6568 29.8001 23.6562 29.8002 23.6563C29.8005 23.6564 29.7977 23.6583 29.791 23.6618C29.7933 23.6602 29.7953 23.659 29.7967 23.6581ZM29.7288 23.724C29.727 23.7265 29.7262 23.7279 29.7262 23.728C29.7262 23.728 29.7271 23.7268 29.7288 23.724ZM29.7262 18.5984C29.7262 18.5985 29.727 18.5999 29.7288 18.6024C29.7271 18.5996 29.7262 18.5984 29.7262 18.5984ZM29.8002 18.6701C29.8 18.6702 29.7966 18.6685 29.791 18.6646C29.7934 18.6658 29.7953 18.6669 29.7967 18.6677C29.7993 18.6692 29.8004 18.67 29.8002 18.6701ZM25.831 18.6666C25.8272 18.6691 25.825 18.6702 25.8248 18.6701C25.8245 18.67 25.8273 18.668 25.834 18.6646C25.8329 18.6653 25.8319 18.666 25.831 18.6666ZM25.8962 18.6024C25.898 18.5999 25.8988 18.5985 25.8988 18.5984C25.8988 18.5983 25.8979 18.5996 25.8962 18.6024Z" fill="white"/>
<path d="M16.8743 30.5382C16.5011 30.5382 16.0895 30.5382 15.6661 30.5382C13.457 30.5382 11.666 28.7474 11.666 26.5382V26.3716" stroke="white" stroke-width="2.5" stroke-linecap="round" stroke-linejoin="round"/>
</svg>
