<svg width="41" height="40" viewBox="0 0 41 40" fill="none" xmlns="http://www.w3.org/2000/svg">
<rect x="0.648438" width="40" height="40" rx="8" fill="#FFBE17"/>
<path d="M8.89844 27C8.89844 27.9719 8.99602 28.6116 9.17303 29.054C9.32994 29.4463 9.56319 29.7219 9.97618 29.9514C10.4344 30.2059 11.1445 30.4184 12.2686 30.5572C13.3827 30.6947 14.8108 30.75 16.6484 30.75C18.4861 30.75 19.9142 30.6947 21.0282 30.5572C22.1523 30.4184 22.8625 30.2059 23.3207 29.9514C23.7337 29.7219 23.9669 29.4463 24.1238 29.054C24.3009 28.6116 24.3984 27.9719 24.3984 27C24.3984 26.0281 24.3009 25.3884 24.1238 24.946C23.9669 24.5537 23.7337 24.2781 23.3207 24.0486C22.8625 23.7941 22.1523 23.5816 21.0282 23.4428C19.9142 23.3053 18.4861 23.25 16.6484 23.25C14.8108 23.25 13.3827 23.3053 12.2686 23.4428C11.1445 23.5816 10.4344 23.7941 9.97618 24.0486C9.56319 24.2781 9.32994 24.5537 9.17303 24.946C8.99602 25.3884 8.89844 26.0281 8.89844 27Z" stroke="white" stroke-width="2.5" stroke-linecap="round" stroke-linejoin="round"/>
<circle cx="6" cy="6" r="4.75" transform="matrix(-1 0 0 1 22.6484 8)" stroke="white" stroke-width="2.5"/>
<path d="M24.6484 11C27.0484 11 28.6484 13 28.6484 15C28.6484 17 27.0484 19 24.6484 19" stroke="white" stroke-width="2.5" stroke-linecap="round" stroke-linejoin="round"/>
<path d="M28.7818 29C32.5151 29 34.6484 28.5 34.6484 25.5C34.6484 22.5 32.5151 22 26.6484 22" stroke="white" stroke-width="2.5" stroke-linecap="round" stroke-linejoin="round"/>
</svg>
