<svg width="591" height="322" viewBox="0 0 591 322" fill="none" xmlns="http://www.w3.org/2000/svg">
<path opacity="0.12" d="M54.473 381.916C54.473 381.916 54.134 356.172 30.9932 330.851C7.85236 305.53 -10.2873 274.975 8.9543 245.265C28.1959 215.555 66.6792 210.659 74.2232 179.008C81.7673 147.356 93.3406 111.905 130.637 91.4787C167.934 71.0529 199.76 90.0457 239.176 81.0145C278.591 71.9832 326.534 26.9353 373.409 48.8804C420.284 70.8255 422.268 134.274 459.395 157.738C496.522 181.202 539.497 227.456 534.92 277.508C530.343 327.559 501.608 368.327 485.502 382L54.473 382V381.916Z" fill="#FF981F"/>
<path d="M165.949 193.631C164.174 197.632 158.627 205.486 142.207 205.634C130.964 205.708 122.828 194.668 122.162 190.075C128.153 190.445 132.073 191.038 132.073 191.038C132.369 191.038 132.739 191.112 133.035 191.112L137.991 173.626L158.183 179.554L156.778 185.185L156.038 188.074L154.855 192.964C160.994 193.483 160.18 193.409 163.804 193.705C164.47 193.705 165.136 193.705 165.949 193.631Z" fill="#F6B399"/>
<path d="M106.334 140.21C106.26 140.655 106.482 141.322 106.926 141.544C108.331 142.359 110.033 142.804 111.66 142.804C110.181 149.25 110.846 156.214 113.731 162.216C117.133 169.181 123.272 174.738 130.669 177.701C131.482 177.998 132.296 177.627 132.74 176.96C134.959 172.959 137.548 169.107 140.58 165.624C145.906 159.4 152.267 154.066 159.441 149.916C164.545 146.953 172.385 144.508 175.196 139.025C175.344 138.951 175.418 138.803 175.492 138.728C178.894 134.061 182.149 128.207 179.634 122.502C178.598 120.131 176.601 118.353 174.086 117.612C172.681 117.241 171.128 117.167 169.722 117.538C169.427 114.722 167.282 112.129 164.619 110.647C161.142 108.721 157 109.165 153.228 110.277C153.154 110.129 153.08 110.054 152.932 109.906C150.048 106.646 145.092 105.905 141.172 107.832C137.326 109.758 135.255 113.611 135.107 117.686C132.962 118.797 130.817 119.983 128.746 121.243C123.716 124.354 119.204 128.281 115.95 133.023C115.876 132.949 115.802 132.801 115.728 132.727C114.692 131.616 113.139 131.023 111.66 131.616C110.476 132.134 109.663 133.246 109.589 134.505C109.515 135.765 109.885 136.802 110.772 137.765C109.589 138.136 108.405 138.58 107.37 139.099C106.778 139.247 106.408 139.618 106.334 140.21Z" fill="#2D2335"/>
<path d="M172.041 181.649C182.951 174.217 185.781 159.332 178.362 148.403C170.943 137.473 156.084 134.638 145.173 142.07C134.263 149.502 131.432 164.387 138.852 175.317C146.271 186.246 161.13 189.081 172.041 181.649Z" fill="#F6B399"/>
<path d="M125.047 160.808C129.411 173.33 144.426 179.405 158.701 174.441C172.089 169.773 180.003 156.955 177.266 145.026C177.119 144.285 176.897 143.544 176.675 142.803C176.305 141.692 175.861 140.655 175.269 139.691C169.722 129.318 155.965 124.651 143.021 129.17C128.671 134.209 120.683 148.36 125.047 160.808Z" fill="#F6B399"/>
<path d="M121.423 172.885C120.462 177.924 123.938 182.814 129.19 183.851C134.441 184.888 139.471 181.554 140.433 176.516C141.394 171.477 137.918 166.587 132.666 165.55C127.489 164.513 122.385 167.847 121.423 172.885Z" fill="#F6B399"/>
<path d="M123.789 173.404C126.526 171.996 129.706 171.552 132.739 171.922C133.478 171.996 134.144 172.811 133.996 173.626C133.848 174.441 133.182 175.034 132.295 174.886C131.925 174.812 131.629 174.812 131.259 174.812C131.111 174.812 130.889 174.812 130.742 174.812C130.668 174.812 130.668 174.812 130.668 174.812C130.594 174.812 130.52 174.812 130.52 174.812C129.854 174.812 129.188 174.886 128.523 174.96C128.153 175.034 127.857 175.108 127.487 175.182C127.487 175.182 127.043 175.33 127.339 175.182C127.191 175.256 126.969 175.256 126.821 175.33C126.156 175.553 125.49 175.849 124.898 176.145C124.233 176.516 123.197 176.071 122.975 175.33C122.679 174.589 123.049 173.774 123.789 173.404Z" fill="#EE796A"/>
<path d="M170.166 152.361C169.944 150.88 168.539 149.842 167.059 150.065C165.58 150.287 164.544 151.695 164.766 153.176C164.988 154.658 166.394 155.696 167.873 155.473C169.352 155.251 170.388 153.917 170.166 152.361Z" fill="#2D2335"/>
<path d="M174.307 162.068C172.68 162.068 170.905 161.623 169.277 160.808C166.911 159.622 165.209 157.696 164.47 155.473C162.768 149.916 165.061 145.767 170.905 143.693C175.49 142.062 180.594 144.804 182.295 149.768C183.109 152.139 183.035 154.658 182.073 156.881C181.112 159.178 179.337 160.808 177.118 161.623C176.304 161.919 175.269 162.068 174.307 162.068ZM167.28 154.584C167.724 156.066 168.908 157.326 170.609 158.141C172.458 159.104 174.603 159.326 176.156 158.733C177.635 158.215 178.745 157.103 179.411 155.621C180.076 154.066 180.15 152.287 179.559 150.657C178.375 147.249 174.973 145.397 171.94 146.434C167.502 148.064 166.097 150.583 167.28 154.584Z" fill="white"/>
<path d="M164.174 144.285C164.618 143.618 165.653 143.544 166.245 144.063C166.911 144.582 166.911 145.471 166.467 146.138C164.692 148.879 164.988 152.732 166.985 155.325C168.168 156.807 170.017 157.77 170.683 159.623C171.275 161.327 170.683 163.698 168.76 164.29C166.985 164.883 165.801 162.142 167.65 161.549C167.946 161.475 168.02 161.178 167.946 160.734C167.798 159.919 166.837 159.326 166.319 158.808C164.988 157.622 163.878 156.214 163.212 154.51C161.881 151.102 162.251 147.323 164.174 144.285Z" fill="#EE796A"/>
<path d="M164.026 142.062C164.396 141.099 165.283 140.358 166.245 139.988C168.242 139.173 171.497 138.654 172.458 141.321C172.532 141.544 172.606 141.84 172.68 142.062C173.124 144.878 167.133 146.656 165.209 145.322C164.174 144.656 163.582 143.322 164.026 142.062Z" fill="#2D2335"/>
<path d="M153.375 155.325C153.153 153.843 151.747 152.806 150.268 153.028C148.789 153.251 147.753 154.658 147.975 156.14C148.197 157.622 149.602 158.659 151.082 158.437C152.635 158.215 153.597 156.807 153.375 155.325Z" fill="#2D2335"/>
<path d="M150.048 165.698C149.456 165.698 148.864 165.624 148.273 165.55C142.873 164.513 139.397 159.178 140.432 153.621C141.468 148.064 146.719 144.359 152.119 145.397C157.518 146.434 160.995 151.769 159.959 157.326C158.998 162.216 154.782 165.698 150.048 165.698ZM150.27 148.138C146.941 148.138 143.983 150.583 143.317 154.14C142.577 158.066 145.018 161.919 148.79 162.66C152.563 163.401 156.261 160.734 157.001 156.807C157.74 152.88 155.299 149.027 151.527 148.286C151.157 148.212 150.714 148.138 150.27 148.138Z" fill="white"/>
<path d="M146.053 141.914C147.533 141.47 149.086 141.322 150.565 141.618C151.601 141.84 152.562 142.433 153.006 143.396C153.376 144.285 153.154 145.323 152.562 145.99C151.897 147.545 148.938 147.768 147.607 147.99C145.388 148.361 143.243 148.953 141.024 149.472C139.988 149.768 139.027 148.361 139.47 147.471C140.728 145.026 143.243 142.878 146.053 141.914Z" fill="#2D2335"/>
<path d="M157.37 156.437C158.332 154.436 160.107 153.028 162.252 152.51C164.397 151.991 166.764 152.51 168.243 154.214C169.057 155.177 169.131 156.066 168.391 156.659C168.095 156.881 168.021 155.918 166.468 155.473C164.101 154.733 161.143 155.473 160.033 157.696C159.737 158.363 158.85 158.808 158.11 158.437C157.444 158.067 157.001 157.252 157.37 156.437Z" fill="white"/>
<path d="M170.535 131.986C168.094 135.172 164.026 136.58 160.328 137.765C151.748 140.507 142.798 141.47 133.922 142.359C132.665 151.917 134.144 161.697 138.212 170.366C138.952 171.922 136.955 173.256 135.771 172.07C133.183 169.255 129.854 167.254 126.23 166.143C125.86 166.217 125.416 166.069 125.12 165.846C124.751 165.772 124.381 165.624 124.011 165.55C123.197 165.402 122.827 164.365 123.049 163.698C123.123 163.475 123.271 163.253 123.493 163.105C119.351 155.399 116.318 146.286 120.313 137.913C122.088 134.135 125.268 131.393 128.745 129.17C132.443 126.799 136.363 124.873 140.431 123.391C148.493 120.501 157.591 119.983 165.579 123.465C167.428 124.28 169.499 125.243 170.905 126.651C172.68 127.985 171.792 130.356 170.535 131.986Z" fill="#2D2335"/>
<path d="M163.509 171.848C170.314 171.848 170.98 166.735 170.98 166.735C170.98 166.735 156.853 166.068 156.927 166.068C156.927 166.068 156.705 171.848 163.509 171.848Z" fill="white"/>
<path d="M253.968 231.567L229.485 285.803L225.713 283.358L224.012 282.246L250.047 227.195C250.343 227.492 250.639 227.862 250.861 228.159C251.157 228.529 251.527 228.899 251.823 229.27C252.636 230.011 253.302 230.752 253.968 231.567Z" fill="white"/>
<path d="M250.123 227.121L224.087 282.247L223.274 281.728L203.155 268.465L197.46 284.321C197.09 284.247 196.646 284.247 196.276 284.247C195.685 285.062 194.871 285.729 193.983 286.248C192.208 287.433 190.063 287.952 187.992 288.396C185.625 288.841 183.185 289.285 180.744 289.582C175.862 290.175 170.906 290.545 165.951 290.545C156.705 290.545 147.385 289.434 138.362 287.211C117.725 286.84 102.341 286.173 81.7045 284.618L85.9945 266.835L86.2164 266.465L88.5832 262.167L90.7282 258.315L39.3965 239.791C41.7634 234.308 44.2782 228.751 47.0149 223.343C54.4854 208.598 69.2044 195.336 84.811 191.927C95.8318 189.556 108.406 189.408 117.799 189.853C119.205 195.261 124.53 207.783 142.43 209.043C160.773 210.302 168.465 198.003 170.832 193.039C178.747 191.631 190.729 188.889 202.194 190.001C220.907 191.779 225.197 198.447 250.123 227.121Z" fill="#2F82FF"/>
<path d="M191.763 309.513H135.772C131.777 309.513 129.706 306.327 131.112 302.326L150.786 246.237C152.192 242.236 156.556 239.05 160.476 239.05H216.467C220.462 239.05 222.533 242.236 221.127 246.237L201.452 302.326C200.047 306.252 195.683 309.513 191.763 309.513Z" fill="#CED5DE"/>
<path d="M193.39 313.143H137.398C133.404 313.143 131.333 309.957 132.739 305.956L152.413 249.868C153.819 245.867 158.183 242.681 162.103 242.681H218.094C222.088 242.681 224.159 245.867 222.754 249.868L203.079 305.956C201.674 309.957 197.384 313.143 193.39 313.143Z" fill="#E8EAED" fill-opacity="0.72"/>
<path d="M205.816 246.459H176.008C173.419 246.459 172.014 244.311 172.976 241.718C173.863 239.124 176.748 236.976 179.337 236.976H209.145C211.733 236.976 213.139 239.124 212.177 241.718C211.289 244.385 208.479 246.459 205.816 246.459Z" fill="#2D2335"/>
<path d="M156.851 185.185L156.112 188.074C151.526 187.778 147.014 186.741 142.724 184.963C141.023 184.222 141.91 181.406 143.685 182.147C147.901 183.925 152.339 184.963 156.851 185.185Z" fill="#EE796A"/>
<path d="M170.906 192.964C168.613 197.929 160.921 210.228 142.503 208.968C124.604 207.709 119.278 195.187 117.873 189.778C118.391 189.778 118.835 189.852 119.278 189.852C120.314 189.927 121.275 190.001 122.163 190.001C122.829 194.594 130.965 205.634 142.208 205.56C158.628 205.486 164.175 197.632 165.95 193.557C166.098 193.557 166.246 193.557 166.394 193.557C167.652 193.483 169.205 193.261 170.906 192.964Z" fill="white"/>
<path d="M311.934 161.962C309.04 160.674 305.953 162.413 304.345 164.539C303.895 165.119 303.574 165.763 303.188 166.407C303.767 163.702 304.217 160.996 304.41 158.226C304.667 155.327 304.731 152.041 302.609 149.657C301.001 147.789 298.043 146.952 295.599 147.789C295.213 145.856 294.12 144.053 292.19 143.022C289.811 141.798 287.046 142.184 285.052 143.731C282.865 145.406 282.094 147.854 281.643 150.302C281.129 153.072 280.743 155.906 280.293 158.677C279.585 163.122 278.814 167.567 278.106 172.012C277.785 171.883 277.463 171.819 277.077 171.69C277.527 168.598 278.042 165.441 278.492 162.349C278.942 159.45 279.392 156.615 279.843 153.716C280.228 151.075 281.129 148.111 280.1 145.534C279.199 143.344 277.013 141.798 274.312 142.056C271.546 142.378 269.617 144.31 268.652 146.501C267.559 148.884 267.237 151.655 266.723 154.231C266.144 157.066 265.63 159.836 265.115 162.671C264.15 168.082 263.443 173.494 262.864 178.97C262.092 177.553 261.449 176.007 260.678 174.589C259.263 171.755 257.269 168.92 254.182 167.438C251.288 166.085 247.88 166.15 245.243 167.954C242.349 169.951 242.284 173.236 244.021 175.878C244.985 177.359 246.207 178.648 247.108 180.13C248.072 181.611 248.909 183.157 249.552 184.768C250.902 188.183 251.288 191.79 251.674 195.333C252.06 199.134 252.639 203.064 255.018 206.285C255.34 206.736 255.726 207.187 256.111 207.574C256.24 208.089 256.304 208.669 256.369 209.249C252.188 220.072 248.33 230.96 244.921 241.976C244.471 243.458 243.956 245.004 243.506 246.55L227.686 281.661C236.754 287.652 245.114 295.061 256.433 295.383C266.273 295.705 277.013 290.036 280.55 278.246C286.338 258.984 289.618 236.629 293.477 223.615C293.927 222.134 294.313 220.716 294.763 219.234C300.101 208.347 304.796 197.202 308.783 185.799C309.812 182.835 310.777 179.936 311.741 176.973C312.642 174.074 313.671 171.175 314.314 168.211C314.7 165.828 314.507 163.122 311.934 161.962Z" fill="#F6B399"/>
<path d="M263.058 177.939C261.9 176.78 259.971 178.519 261.128 179.679C267.302 185.863 274.441 193.143 274.312 202.549C274.312 204.224 276.885 204.353 276.885 202.678C277.078 192.434 269.811 184.639 263.058 177.939Z" fill="#EE796A"/>
<path d="M295.47 147.403C294.891 147.21 293.991 147.532 293.862 148.24C291.804 157.517 289.746 166.794 287.688 176.136C287.559 176.844 287.817 177.553 288.524 177.746C289.103 177.939 290.003 177.617 290.132 176.909L296.306 149.013C296.435 148.369 296.177 147.66 295.47 147.403Z" fill="#EE796A"/>
<path d="M255.276 208.089L240.87 253.637C239.52 257.889 238.169 262.205 236.819 266.457C236.304 268.067 238.748 268.841 239.263 267.294C244.086 252.091 248.845 236.951 253.669 221.747C255.019 217.495 256.37 213.179 257.72 208.927C258.235 207.316 255.791 206.543 255.276 208.089Z" fill="#EE796A"/>
<path d="M88.7302 262.167L86.3633 266.465L88.7302 262.167Z" fill="#F6B399"/>
<path d="M218.613 293.434C218.761 297.732 215.876 300.547 212.548 301.288C210.847 301.659 209.071 301.511 207.444 301.288C207.37 301.288 207.296 301.288 207.222 301.288C206.778 303.363 206.113 305.363 204.855 306.993C204.633 307.29 204.412 307.512 204.116 307.808C204.19 311.884 202.414 315.959 199.53 318.774C199.752 321.59 198.272 324.109 196.127 325.813C193.687 327.665 190.506 328.184 187.548 328.332C147.828 330.184 96.9403 329.221 57.2211 330.184C37.1766 330.703 18.6114 330.036 14.6912 313.958C11.6586 301.659 16.9841 292.693 22.9013 277.653C28.0789 264.316 33.0345 253.572 35.9192 247.719L36.363 247.867L86.1414 266.835L79.0408 283.654C99.6031 285.21 128.893 286.914 149.603 287.285C152.71 284.247 155.743 281.283 159.145 278.616C164.988 274.096 172.015 270.614 179.559 270.688C187.178 270.762 195.536 276.245 197.607 283.506C198.199 283.506 198.79 283.58 199.382 283.654C201.675 283.802 203.894 283.95 206.187 284.173C207 284.247 207.814 284.321 208.702 284.395C209.811 284.543 210.92 284.691 212.03 284.988C215.21 285.951 218.465 288.915 218.613 293.434Z" fill="#F6B399"/>
<path d="M38.2863 242.755C37.6206 244.459 36.881 246.163 36.2153 247.793L35.7715 247.645C37.3248 244.459 38.2123 242.755 38.2863 242.755Z" fill="#F6B399"/>
<path d="M90.875 258.314L88.73 262.167L86.3631 266.464L86.1413 266.835L36.2148 247.793C36.8805 246.089 37.5462 244.385 38.2859 242.755C38.6557 241.792 39.0995 240.754 39.5433 239.791L90.875 258.314Z" fill="white"/>
<path d="M38.2863 242.755C37.6206 244.459 36.881 246.163 36.2153 247.793L35.7715 247.645C37.3248 244.459 38.2123 242.755 38.2863 242.755Z" fill="white"/>
<path d="M91.3928 247.497C87.8425 259.722 83.7005 271.799 79.0407 283.728C78.375 285.507 81.1857 286.396 81.8513 284.691C86.5111 272.837 90.6532 260.759 94.2035 248.46C94.7213 246.608 91.9106 245.645 91.3928 247.497Z" fill="#2D2335"/>
<path d="M151.822 285.507C131.482 285.136 111.141 284.692 90.8008 284.321C85.0316 284.173 79.2623 284.099 73.493 283.951C71.5699 283.876 71.422 286.84 73.3451 286.914C93.6855 287.285 114.026 287.729 134.366 288.1C140.136 288.248 145.905 288.322 151.674 288.47C153.523 288.47 153.671 285.507 151.822 285.507Z" fill="#EE796A"/>
<path d="M199.752 282.765C196.941 276.393 190.58 272.244 183.849 271.058C175.935 269.724 167.725 272.392 161.142 276.763C157.444 279.208 154.115 282.098 150.935 285.21C149.603 286.544 151.526 288.766 152.932 287.433C158.035 282.394 163.805 277.578 170.683 275.207C177.192 272.985 184.515 272.836 190.432 276.541C193.317 278.319 195.684 280.913 197.089 284.024C197.903 285.877 200.491 284.469 199.752 282.765Z" fill="#EE796A"/>
<path d="M214.544 285.136C210.55 283.135 205.742 282.765 201.305 282.617C195.831 282.394 190.358 282.913 184.958 284.024C183.109 284.395 183.701 287.285 185.624 286.914C189.84 286.025 194.056 285.506 198.346 285.506C202.34 285.506 206.63 285.654 210.55 286.692C213.731 287.581 216.985 289.507 217.651 293.064C218.243 296.176 215.654 298.324 212.991 299.139C208.775 300.473 204.189 299.436 199.973 300.769C198.198 301.288 198.79 304.178 200.639 303.659C204.855 302.4 209.441 303.363 213.657 302.029C217.207 300.918 220.462 298.398 220.683 294.397C220.831 290.396 218.021 286.84 214.544 285.136Z" fill="#EE796A"/>
<path d="M556.268 113.364C555.672 121.981 552.03 130.267 545.805 136.299C539.116 142.729 529.911 146.11 523.818 153.202C517.726 160.361 516.799 170.106 515.342 178.988C514.613 183.628 513.686 188.268 512.031 192.643C510.309 197.151 507.594 201.194 504.216 204.641C496.866 212.132 487.131 216.308 477.065 218.694C469.648 220.418 462.032 221.478 454.416 222.075C450.377 224.594 446.138 226.781 441.768 228.571C426.338 234.802 408.524 236.724 392.233 232.747C378.856 229.499 366.141 221.545 359.452 209.48C359.253 209.281 359.121 209.083 358.922 208.95C352.499 201.99 349.452 192.511 349.519 183.098C349.651 173.685 353.36 164.67 359.717 157.776C365.743 151.346 373.227 146.706 380.577 142C387.994 137.227 395.411 132.189 400.643 124.964C403.756 120.655 406.14 115.949 408.722 111.309C411.106 107.066 413.755 102.957 416.735 99.1119C428.192 84.4624 444.152 73.061 461.966 67.758C482.627 61.5933 504.547 64.1785 524.282 72.2655C533.619 76.0439 543.421 80.9492 549.513 89.3014C554.811 96.1952 556.93 104.879 556.268 113.364Z" fill="#17345F"/>
<path d="M366.075 195.162C367.797 200.863 371.837 205.636 376.936 208.552C381.704 211.27 387.333 212.397 392.763 212.264C395.479 212.198 398.127 211.8 400.71 211.071C403.16 210.342 405.809 209.679 407.862 208.088C409.518 206.829 410.511 205.039 411.306 203.117C416.339 198.477 419.518 191.782 419.518 184.357C419.518 170.238 408.061 158.837 394.022 158.837C381.704 158.837 371.373 167.587 368.989 179.253C367.996 181.109 367.135 183.098 366.407 185.153C365.347 188.467 365.082 191.715 366.075 195.162Z" fill="#FFB699"/>
<path d="M327.201 247.33C327.201 261.449 338.658 272.851 352.697 272.851C366.803 272.851 378.193 261.383 378.193 247.33C378.193 233.211 366.736 221.81 352.697 221.81C338.592 221.81 327.201 233.211 327.201 247.33Z" fill="#FFDFD1"/>
<path d="M389.981 154.992C391.24 157.246 391.703 160.03 392.101 162.549C392.564 165.465 393.028 168.382 393.69 171.299C396.074 182.104 400.974 191.914 407.266 200.995C413.226 209.679 420.974 218.031 431.04 221.81C431.702 222.075 432.563 221.876 432.894 221.147C437.199 211.933 438.92 201.327 438.126 191.251C437.795 186.677 436.934 182.104 435.278 177.795C434.086 174.547 432.497 171.166 430.245 168.581C426.669 164.537 422.034 161.223 417.53 158.24C412.166 154.661 406.339 151.28 400.047 149.689C395.346 148.496 389.849 148.827 387.531 153.733C386.803 155.39 389.187 156.583 389.981 154.992Z" fill="#17345F"/>
<path d="M384.484 202.984L385.345 210.607L385.478 211.469L385.676 213.259L385.743 214.12L386.074 216.838L388.127 235.597H406.802L405.146 218.628L403.49 201.327L384.484 202.984Z" fill="#FFB699"/>
<path d="M346.207 222.671C350.445 226.781 357.929 231.687 371.239 235.332C398.788 242.823 422.629 239.31 444.085 233.211C447.065 232.349 449.913 231.687 452.562 231.156C450.244 230.493 447.727 230.029 445.078 229.764C445.078 229.764 424.748 227.113 417 224.13C409.252 221.147 399.517 215.512 399.517 215.512H388.193C388.193 215.512 378.59 222.473 369.584 221.81C361.174 221.147 353.359 221.014 346.207 222.671Z" fill="#FFB699"/>
<path d="M422.825 202.94C423.717 197.41 419.962 192.204 414.438 191.311C408.913 190.418 403.712 194.177 402.82 199.707C401.928 205.236 405.683 210.443 411.208 211.335C416.732 212.228 421.933 208.469 422.825 202.94Z" fill="#FFB699"/>
<path d="M377.002 183.96C377.598 182.766 378.856 182.17 379.982 181.573C380.446 181.308 380.843 181.109 381.307 180.712C381.903 180.248 382.366 179.651 382.764 178.988C383.691 177.397 383.889 175.475 383.956 173.619C383.956 172.956 384.353 172.293 385.081 172.16C385.677 172.094 386.538 172.558 386.538 173.287C386.472 176.801 385.744 180.844 382.631 182.965C382.101 183.297 381.505 183.628 380.909 183.96C380.379 184.225 380.181 184.291 379.717 184.689C379.651 184.755 379.585 184.821 379.519 184.888C379.519 184.888 379.386 185.02 379.386 185.086C379.386 185.02 379.32 185.153 379.32 185.285C379.386 185.484 379.452 185.683 379.452 185.683C379.585 186.015 379.85 186.346 380.048 186.611C381.042 187.937 378.989 189.461 377.995 188.136C377.002 186.943 376.207 185.418 377.002 183.96Z" fill="#F47A69"/>
<path d="M377.796 165.996C378.988 165.465 380.312 165.664 381.438 166.128C382.431 166.526 383.491 167.123 384.219 167.918C384.352 168.051 384.418 168.117 384.484 168.25C385.544 169.443 385.809 171.166 385.544 172.757C385.478 173.287 385.014 173.818 384.418 173.884C383.822 173.95 383.292 173.619 383.094 173.089C383.027 173.022 383.027 172.89 382.961 172.823C382.829 172.757 382.763 172.492 382.696 172.426C382.564 172.293 382.498 172.16 382.365 172.028C382.299 171.962 382.233 171.895 382.233 171.829C382.498 172.16 382.299 171.895 382.167 171.829C381.703 171.365 381.107 170.967 380.577 170.636C379.385 169.84 378.193 169.178 377.266 168.051C376.67 167.322 377.067 166.327 377.796 165.996Z" fill="#17345F"/>
<path d="M374.484 191.649C374.815 193.306 375.279 194.831 376.14 196.289C377.862 199.073 381.239 200.067 384.352 199.537C387.464 199.073 390.444 197.084 390.908 193.836C387.597 193.505 384.219 193.439 380.908 192.975C378.789 192.71 376.67 192.179 374.484 191.649Z" fill="white"/>
<path d="M468.324 240.768C467.595 242.292 466.734 243.751 465.94 245.143C464.814 247.131 463.622 249.12 462.496 251.109C460.575 254.556 458.721 258.069 456.933 261.582C453.291 268.675 449.913 275.9 446.735 283.192C444.682 287.832 442.761 292.538 440.907 297.311C437.596 309.309 435.212 321.174 433.623 330.985H341.903V313.352C340.711 312.756 330.447 307.055 327.798 293.93C324.089 275.768 334.751 268.211 334.751 268.211L334.155 267.946C334.089 267.946 316.01 259.859 316.01 259.859L313.957 258.931C316.407 251.639 319.189 245.673 322.169 240.834C328.725 230.228 336.539 225.124 345.347 222.937C345.546 222.87 345.81 222.804 346.009 222.738C346.804 223.533 347.665 224.329 348.724 225.124C348.79 225.19 348.857 225.19 348.923 225.257C353.095 228.505 359.254 231.885 368.525 234.669C369.32 234.935 370.181 235.133 371.042 235.399C372.697 235.863 374.286 236.26 375.876 236.592C382.432 238.116 388.789 238.978 394.948 239.376C396.405 239.442 397.796 239.508 399.253 239.575C399.385 239.575 399.584 239.575 399.716 239.575C401.703 239.641 403.69 239.641 405.676 239.575C407.464 239.508 409.186 239.442 410.908 239.376C422.563 238.58 433.556 236.26 443.953 233.277C446.933 232.416 449.781 231.753 452.43 231.222C455.542 230.825 457.662 230.891 458.986 231.62C460.509 228.438 464.483 228.306 467.198 230.162C470.708 232.548 469.979 237.321 468.324 240.768Z" fill="#FBA120"/>
<path d="M341.904 313.352V330.985H295.746C298.329 319.716 301.375 306.326 304.885 292.273C304.885 292.207 304.951 292.14 304.951 292.074C305.68 289.29 306.342 286.44 307.07 283.589C308.527 278.021 309.984 272.387 311.507 266.885C312.302 264.035 313.097 261.383 313.958 258.931L316.01 259.859L334.089 267.879C334.156 267.879 334.752 268.211 334.752 268.211C334.752 268.211 324.09 275.768 327.798 293.93C330.447 307.055 340.712 312.69 341.838 313.286L341.904 313.352Z" fill="#FFB699"/>
<path d="M392.962 172.823C393.822 172.227 394.948 172.161 395.942 172.293C398.193 172.625 400.379 173.751 402.299 175.011C403.094 175.541 403.955 176.138 404.551 176.867C404.882 177.265 404.882 177.729 404.683 178.126C404.683 178.988 403.822 179.982 402.895 179.452C399.981 177.861 396.604 176.801 393.226 176.933C392.564 176.933 391.836 176.535 391.77 175.806C391.77 174.679 392.034 173.553 392.962 172.823Z" fill="#17345F"/>
<path d="M404.219 200.2C404.352 199.471 404.948 199.073 405.676 199.073C408.59 199.206 411.769 198.211 414.682 197.548C415.345 197.416 416.007 198.012 416.139 198.675C416.206 199.404 415.676 199.935 415.014 200.134C411.835 200.863 408.656 201.791 405.411 201.658C404.616 201.592 404.153 200.863 404.219 200.2Z" fill="#F47A69"/>
<path d="M400.046 180.778C397.927 180.513 395.808 180.778 393.755 181.507C393.225 181.706 392.762 182.236 392.563 182.7C392.364 183.164 392.364 183.827 392.563 184.291C392.828 184.821 393.225 185.286 393.755 185.484C394.285 185.683 394.815 185.683 395.344 185.484C395.477 185.418 395.609 185.418 395.742 185.352C396.536 185.153 397.397 185.02 398.258 185.02C398.656 185.02 399.119 185.02 399.517 185.087C400.046 185.153 400.642 184.954 401.04 184.689C401.437 184.357 401.834 183.761 401.834 183.231C401.967 182.037 401.238 180.911 400.046 180.778Z" fill="#17345F"/>
<path d="M472.573 225.673C468.485 223.981 464.298 222.386 460.061 221.032C456.223 219.824 452.185 218.857 448.696 216.73C446.154 215.183 443.661 212.718 442.864 209.817C442.764 209.962 442.664 210.107 442.565 210.204C442.116 209.527 441.069 209.237 440.421 210.059C433.692 218.374 426.963 226.737 420.183 235.051C419.834 235.486 419.834 235.97 420.084 236.357C419.585 237.178 419.186 237.903 418.987 238.629C417.043 245.59 420.881 264.153 442.615 262.316C454.678 261.301 467.538 246.412 478.355 228.187C476.511 227.365 474.567 226.495 472.573 225.673Z" fill="#FBA120"/>
<path d="M495.589 187.817C491.266 201.565 483.838 219.536 475.365 233.506C473.45 232.629 471.621 231.964 469.652 231.087C465.602 229.335 461.498 227.746 457.285 226.377C453.509 225.117 449.46 224.131 446.067 221.995C443.55 220.407 439.745 217.006 438.979 214.048C442.591 208.845 447.599 203.646 450.937 196.471C456.957 183.654 460.459 169.687 461.991 155.611C462.757 148.654 463.03 141.643 462.866 134.633C462.702 128.224 462.921 121.158 460.24 115.188C457.832 109.766 453.509 105.055 447.982 102.7C446.669 102.152 445.301 101.714 443.879 101.44C443.112 101.331 442.401 101.221 441.635 101.221C440.814 101.166 439.939 101.276 439.118 101.057C435.889 100.345 435.014 96.5108 436.601 93.8817C438.407 90.8692 442.511 90.7049 445.575 91.0883C447.435 91.3074 449.296 91.6908 451.211 91.4717C451.813 91.4169 452.415 91.3074 452.962 91.1978C450.828 85.3372 448.749 79.4765 446.614 73.6706C445.575 70.8224 444.59 67.9742 443.55 65.1808C442.565 62.497 441.252 59.7035 441.252 56.8006C441.252 54.5001 442.346 52.0354 444.535 50.9947C446.888 49.8445 449.569 50.9947 451.102 52.9117C452.798 54.9931 453.126 57.7865 453.728 60.2513C454.002 60.9085 454.275 61.5658 454.494 62.2231C456.081 65.3451 457.613 68.4672 459.036 71.644C458.653 67.8099 458.106 64.0306 457.613 60.1965C457.449 58.7724 457.285 57.2935 457.121 55.8695C457.011 54.3906 456.847 52.9117 457.175 51.4329C457.723 48.9133 459.693 46.5581 462.483 46.6129C463.961 46.6676 465.11 47.3797 465.985 48.3656C466.97 47.4892 468.338 47.1058 469.706 47.2154C474.905 47.7083 475.342 54.6645 476.054 58.6081C476.492 60.9633 476.929 63.3185 477.367 65.6738C477.531 64.8522 477.641 64.0306 477.805 63.1542C478.243 61.0729 478.735 58.9367 479.392 56.9101C479.884 55.2122 480.924 53.7333 482.839 53.569C484.262 53.4047 485.739 54.0072 486.779 54.9931C488.037 56.1981 488.53 57.896 488.639 59.5392C488.749 61.3467 488.585 63.1542 488.585 64.9617C488.53 66.824 488.53 68.6315 488.585 70.4938C488.803 78.1619 489.679 85.8301 491.211 93.334C491.977 97.0585 492.907 100.728 494.002 104.398C495.096 108.123 496.191 111.792 496.902 115.626C496.902 115.626 505.329 156.98 495.589 187.817Z" fill="#FFB699"/>
<path d="M478.844 98.3734C476.765 91.1982 469.651 86.5425 462.264 87.3641C460.349 87.5832 458.543 88.2404 456.792 89.0073C455.096 89.7193 453.29 90.5409 451.43 90.5957C449.514 90.5957 447.599 89.8836 445.793 89.4454C443.988 89.0073 442.127 88.7882 440.321 89.2811C436.327 90.3218 433.481 94.1559 434.795 98.2638C435.287 99.8522 437.64 98.8116 437.148 97.2779C436.163 94.2654 439.063 91.9102 441.744 91.5816C445.137 91.1434 448.256 93.2247 451.648 93.1152C455.151 93.0057 457.996 90.8148 461.334 90.1027C464.453 89.4454 467.846 89.8836 470.581 91.5268C473.482 93.2795 475.561 96.0729 476.491 99.3045C476.655 99.9618 477.586 100.236 478.188 100.017C478.899 99.7427 479.063 99.0307 478.844 98.3734Z" fill="#F47A69"/>
<path d="M470.362 72.0825C469.432 64.1404 468.502 56.2532 467.572 48.3111C467.353 46.6679 464.836 47.0514 465.054 48.6398C465.985 56.5818 466.915 64.4691 467.845 72.4111C468.064 74.0543 470.581 73.6709 470.362 72.0825Z" fill="#F47A69"/>
<path d="M480.706 72.5206C480.049 69.289 479.392 66.0574 478.736 62.8258C478.134 59.7586 477.587 56.5818 476.711 53.5693C475.945 51.0497 474.851 48.1468 472.443 46.7227C470.364 45.4629 467.518 45.6272 465.931 47.5443C464.892 48.804 466.916 50.3377 467.956 49.0779C469.214 47.599 471.403 48.804 472.333 49.9543C473.756 51.7618 474.358 54.2813 474.905 56.4722C476.164 61.8947 477.149 67.372 478.243 72.7945C478.517 74.4924 481.034 74.1638 480.706 72.5206Z" fill="#F47A69"/>
<path d="M461.772 73.5064C458.872 69.3985 457.34 64.6333 455.534 59.9776C453.892 55.7601 451.594 49.4612 446.122 49.3517C443.496 49.2969 440.979 51.1044 440.76 53.7883C440.595 55.4314 443.113 55.7053 443.277 54.0621C443.386 53.0214 444.207 52.1999 445.192 51.926C446.341 51.5974 447.654 52.1451 448.585 52.8024C450.773 54.4455 451.758 57.2937 452.743 59.7037C454.823 64.9071 456.519 70.3296 459.747 74.9305C460.678 76.4094 462.702 74.8757 461.772 73.5064Z" fill="#F47A69"/>
<path d="M462.68 114.554C462.191 112.976 459.853 114.01 460.343 115.533C461.81 120.05 462.136 124.893 462.028 129.627C461.919 134.252 461.484 138.932 461.104 143.557C460.343 152.372 459.255 161.188 457.407 169.894C455.613 178.437 453.004 186.871 449.253 194.762C447.35 198.734 445.121 202.543 442.62 206.189C439.848 210.215 436.749 213.97 433.651 217.779C426.366 226.594 419.136 235.41 411.851 244.225C410.818 245.476 412.83 247 413.863 245.748C420.441 237.749 427.073 229.696 433.651 221.697C439.794 214.242 445.936 206.787 450.394 198.135C458.657 182.192 461.702 164.072 463.387 146.387C463.876 141.217 464.365 136.048 464.528 130.878C464.692 125.328 464.365 119.832 462.68 114.554Z" fill="white"/>
<path d="M380.445 178.59C380.445 178.458 380.445 178.391 380.378 178.325C380.312 178.06 380.246 177.795 380.18 177.53C380.18 177.463 380.113 177.331 380.047 177.265C379.915 176.999 379.782 176.801 379.65 176.535C379.584 176.469 379.517 176.403 379.451 176.336C379.253 176.138 379.054 175.939 378.855 175.74C378.657 175.541 378.392 175.408 378.127 175.276C378.061 175.21 377.928 175.21 377.862 175.143C377.597 175.011 377.332 175.011 377.067 175.011C376.802 175.011 376.537 175.011 376.273 175.143C376.008 175.276 375.743 175.408 375.61 175.607C375.412 175.806 375.213 176.005 375.147 176.336C375.08 176.535 375.08 176.668 375.014 176.867C374.948 177.265 375.014 177.596 375.147 177.927C375.213 178.06 375.345 178.259 375.412 178.391C375.61 178.657 375.941 178.855 376.206 179.054C376.273 179.452 376.339 179.651 376.471 179.916C376.604 180.181 376.802 180.38 377.001 180.579C377.2 180.778 377.465 180.91 377.796 180.91C378.061 180.977 378.325 181.043 378.59 180.977L379.12 180.844C379.451 180.711 379.782 180.446 379.981 180.181C380.047 179.982 380.18 179.85 380.246 179.651C380.445 179.319 380.511 178.988 380.445 178.59Z" fill="#17345F"/>
<path d="M343.558 321.506C343.425 323.428 343.293 325.35 343.227 327.273L343.028 330.985H339.584C339.783 328.267 339.916 325.549 340.114 322.831C340.247 320.843 340.379 318.854 340.512 316.866C340.578 316.07 340.512 315.54 339.916 314.877C339.386 314.28 338.724 313.75 338.128 313.154C333.492 308.513 329.585 302.945 327.532 296.714C325.545 290.815 325.28 284.584 327.201 278.618C328.525 274.442 330.975 270.663 334.22 267.879C334.75 267.415 335.346 266.951 335.942 266.554C336.008 266.487 336.075 266.421 336.207 266.355C334.949 264.234 333.691 262.046 332.432 259.925C331.969 259.129 331.903 258.135 332.763 257.538C333.426 257.008 334.684 257.074 335.148 257.87C336.737 260.521 338.326 263.239 339.849 265.891C340.445 266.885 340.18 267.946 339.187 268.542C339.055 268.608 338.988 268.675 338.856 268.741C333.691 271.724 330.512 277.425 329.585 283.192C328.658 289.158 330.048 295.123 332.83 300.426C334.287 303.21 336.141 305.796 338.194 308.182C339.187 309.309 340.247 310.436 341.372 311.496C342.631 312.69 343.757 313.816 343.889 315.672C343.955 317.661 343.69 319.65 343.558 321.506Z" fill="white"/>
<path d="M387.597 212.927C387.531 213.789 387.399 214.717 387.067 215.512C386.935 215.844 386.803 216.175 386.67 216.44C386.538 216.772 386.339 217.103 386.14 217.435C383.226 222.009 377.134 223.069 371.969 223.202C369.982 223.268 368.061 223.334 366.141 223.401C364.816 223.467 363.426 223.467 362.101 223.533C359.055 223.666 356.075 223.931 353.095 224.329C351.77 224.527 350.446 224.726 349.121 224.991C344.353 225.986 339.983 227.51 336.142 229.897C334.42 231.024 332.764 232.217 331.241 233.609C328.857 235.73 326.804 238.183 324.95 240.768C324.751 241.099 324.486 241.431 324.288 241.762C320.579 247.33 318.063 253.429 316.142 259.792C314.354 265.626 313.096 271.658 311.838 277.624C308.858 291.544 305.149 305.332 301.573 319.119C300.514 323.03 299.52 327.008 298.461 330.985H294.818C296.408 324.953 297.931 318.921 299.52 312.955C301.308 306.061 303.162 299.233 304.884 292.339C304.884 292.273 304.951 292.207 304.951 292.141C306.606 285.512 307.997 278.817 309.454 272.188C311.838 261.251 314.818 250.247 320.844 240.768C321.506 239.707 322.235 238.647 323.029 237.586C326.473 233.012 330.711 229.101 335.678 226.317C340.711 223.467 346.406 221.942 352.168 221.081C352.499 221.014 352.83 221.014 353.161 220.948C357.201 220.418 361.307 220.219 365.412 220.086C366.273 220.086 367.2 220.02 368.061 220.02C369.32 219.954 370.578 219.954 371.836 219.887C374.816 219.755 378.194 219.622 380.842 218.031C382.63 216.904 384.22 215.048 384.352 212.927C384.352 212.596 384.352 212.331 384.286 211.999C384.286 211.8 384.286 211.668 384.286 211.469C384.352 210.806 384.882 210.342 385.412 210.143C386.339 209.812 387.531 210.209 387.663 211.469C387.663 211.668 387.73 211.867 387.73 212.065C387.663 212.331 387.663 212.596 387.597 212.927Z" fill="white"/>
<path d="M396.869 207.624C395.544 208.154 394.286 208.751 392.895 209.082C391.438 209.48 390.048 209.48 388.591 209.414C387.067 209.348 385.544 209.281 384.021 209.215C382.697 209.149 381.372 209.082 380.114 208.618C378.061 207.823 376.803 211.071 378.856 211.8C381.902 212.927 385.346 212.662 388.524 212.795C390.18 212.861 391.769 212.795 393.359 212.397C395.014 211.999 396.604 211.336 398.193 210.673C400.18 209.944 398.855 206.762 396.869 207.624Z" fill="#F47A69"/>
<path opacity="0.2" fill-rule="evenodd" clip-rule="evenodd" d="M65.409 108.086C65.725 118.108 71.483 114.227 78.8162 126.329C80.4579 128.911 80.8788 130.533 85.4028 130.078C87.4784 129.895 87.1122 127.79 87.5396 127.219C89.331 124.207 86.5438 122.134 85.8355 118.781C84.4975 112.447 90.7616 108.367 85.3029 101.061C77.6451 90.7581 65.2231 99.05 65.409 108.086ZM85.5667 128.63C83.8638 128.723 85.3853 127.029 85.9154 127.685C86.2335 128.079 85.8061 128.651 85.5667 128.63ZM86.1678 123.32C86.1131 123.802 85.7918 124.505 82.5401 126.535C81.9007 126.844 80.7825 127.112 80.5432 127.091C80.3038 127.069 80.0131 126.434 80.3858 126.345C82.1707 125.527 84.1676 124.972 85.4497 123.256C85.7437 122.795 86.3285 122.968 86.1678 123.32ZM83.7741 123.109C83.2407 123.55 82.6286 123.618 81.4558 124.368C80.0163 125.338 79.5135 124.44 80.0469 124C82.1258 122.72 84.4987 120.979 84.8168 121.372C85.1349 121.766 84.1468 123.02 83.7741 123.109ZM79.3692 119.309C75.8977 114.737 75.2342 114.191 75.7403 113.992C79.2827 112.597 79.9593 108.757 80.0347 110.226C80.343 113.91 80.7846 117.483 82.211 120.899C82.3171 121.031 82.3958 121.403 82.1291 121.623C81.3563 122.043 81.2776 121.67 79.3692 119.309ZM85.9917 110.994C82.8778 120.349 86.3688 118.34 83.6232 120.17C83.0898 120.611 81.4754 117.788 81.037 113.117C80.7801 110.048 81.2173 106.186 80.0172 107.177C78.6837 108.279 77.8192 112.712 74.2286 112.396C71.2228 112.254 75.2824 115.902 79.7354 121.413C80.6896 122.594 78.8533 122.798 78.2959 122.383C70.2315 114.604 74.8179 120.005 67.9197 113.67C66.9382 112.73 64.8548 106.574 68.3011 101.759C74.9782 92.9611 89.8302 99.509 85.9917 110.994ZM92.1416 73.7513C88.6407 79.0498 86.528 82.7642 85.1366 85.445C81.6052 92.0816 83.3627 91.505 83.6841 90.802C91.711 75.4197 86.9521 83.289 97.0547 67.7238C98.0427 66.47 97.4066 65.6827 92.1416 73.7513ZM61.1264 98.9333C54.8852 95.337 49.0168 91.6516 44.7146 89.0792C42.2182 87.6407 40.7852 86.4176 40.7306 86.9003C40.5699 87.2519 42.1635 88.1234 45.6415 90.5015C51.9341 94.7117 55.7848 97.0007 58.1753 98.308C62.9562 100.923 61.5778 99.2168 61.1264 98.9333ZM97.594 109.943C97.3547 109.922 92.1705 108.734 91.9311 108.713C90.7616 108.367 90.919 109.112 91.8491 109.437C94.6396 110.414 105.49 111.735 106.314 111.929C107.856 112.187 112.641 113.705 113.013 113.615C113.013 113.615 113.041 113.374 112.829 113.112C107.142 111.027 104.693 111.299 97.594 109.943ZM64.6048 128.004C63.7708 131.099 62.7457 135.884 61.4472 143.083C61.3926 143.566 61.844 143.849 62.0867 142.774C64.608 126.907 67.7056 123.036 67.7056 123.036C67.9209 122.201 66.6213 120.868 64.6048 128.004ZM60.5538 112.534C56.7961 114.763 48.9176 116.02 44.3663 116.716C43.9936 116.805 43.1935 117.466 46.1206 117.236C48.3296 116.943 52.5355 116.094 60.5233 113.872C60.896 113.783 60.8173 113.41 60.9779 113.059C61.272 112.597 60.9266 112.445 60.5538 112.534ZM97.9917 92.5485C96.4462 93.3876 88.6125 97.4517 89.6728 98.7638C90.3089 99.5511 92.4184 96.9334 98.2824 93.1835C98.7885 92.9843 98.4977 92.3493 97.9917 92.5485ZM73.3572 92.3309C74.13 91.9114 69.1008 74.4052 68.8614 74.3841C68.222 74.6935 72.3178 92.9708 73.3572 92.3309Z" fill="#FF981F"/>
<g opacity="0.2">
<path d="M497.869 100.612C494.661 100.853 495.984 100.619 490.124 108.95C489.286 110.068 489.808 111.577 491.256 111.817C498.343 112.932 512.526 113.762 512.909 113.784C513.793 113.797 514.615 113.573 515.468 113.467C516.172 113.275 516.431 112.823 516.541 112.285C518.178 101.295 529.454 98.7261 497.869 100.612ZM517.823 105.203C517.116 107.301 516.442 109.517 515.767 111.734C515.57 112.423 515.312 112.874 514.576 112.948C513.371 113.15 512.221 113.082 511.04 112.897C508.208 112.653 505.494 112.378 502.693 112.253C491.78 111.42 488.759 112.371 491.525 108.06C492.332 106.823 493.632 105.071 495.278 102.717C495.826 101.932 496.374 101.147 499.582 100.907C524.509 99.0592 518.584 102.836 517.823 105.203Z" fill="#FF981F"/>
<path d="M502.181 23.9984C500.772 24.3831 493.342 26.2838 491.985 30.2135C488.963 39.3007 492.996 61.3344 495.41 75.2938C495.667 76.7491 495.817 74.9284 483.997 85.0188C460.184 105.501 448.781 113.825 479.115 116.223C513.433 118.932 528.836 120.067 536.553 119.74C542.15 119.483 543.638 118.442 545.948 117.176C551.829 114.172 570.424 81.513 572.912 74.224C573.054 73.8041 572.914 72.3168 573.266 72.2207C576.813 70.8712 574.63 70.7045 572.387 50.2158C570.656 34.5448 568.224 23.3869 567.984 21.0374C566.374 1.51988 551.136 9.61968 502.181 23.9984ZM493.067 78.3485C495.863 76.0599 498.634 76.0664 499.988 75.951C545.501 68.1047 543.816 69.8356 568.068 65.3771C572.859 64.4508 565.861 73.7335 555.116 97.0043C548.975 110.502 545.183 115.224 531.993 116.281C520.628 117.095 502.237 115.124 469.131 112.719C456.649 111.678 458.015 106.347 493.067 78.3485ZM572.107 73.5541C570.12 80.8334 551.313 113.169 545.173 116.624C543.623 117.429 542.19 118.201 540.397 118.563C535.192 119.349 473.706 117.191 463.974 112.729C463.825 112.642 463.794 112.524 463.88 112.373C463.966 112.222 464.084 112.19 464.201 112.158C466.478 112.681 472.535 113.697 487.937 114.832C514.406 116.887 528.415 117.512 536.564 116.432C546.067 115.236 547.401 111.694 551.327 106.047C553.091 103.659 568.226 72.1982 570.226 67.8389C570.312 67.6883 570.429 67.6562 570.429 67.6562C570.547 67.6241 570.696 67.7107 570.727 67.8293C571.43 69.5442 572.162 73.2848 572.107 73.5541ZM564.648 65.2938C561.031 65.8996 496.247 76.0823 496.208 75.4573C491.864 50.3304 490.897 38.5186 492.577 32.4669C494.203 26.6845 498.117 26.2518 505.601 24.0818C574.505 3.24124 562.793 6.56508 566.368 33.5543C568.148 46.5424 568.758 56.0367 568.965 60.1749C569.101 65.4765 570.292 64.2617 564.648 65.2938ZM566.705 16.1748C566.806 17.0371 571.814 51.389 574.327 68.1178C574.584 69.573 574.543 70.8552 573.314 71.445C572.523 71.7879 572.697 69.5794 570.549 65.7169C569.642 64.1848 565.819 18.0692 565.811 17.5627C565.501 14.4695 564.031 12.7098 563.015 11.7161C562.866 11.6296 562.952 11.4789 563.039 11.3283C563.125 11.1776 563.242 11.1456 563.391 11.2321C564.494 12.0751 566.081 13.8028 566.705 16.1748Z" fill="#FF981F"/>
<path d="M480.079 97.1808C563.921 95.1274 552.666 96.8007 558.213 85.3911C564.849 71.9083 567.675 69.7422 562.967 70.011C560.495 70.1773 522.94 73.6933 500.031 77.9101C493.656 79.0139 491.308 81.5575 489.594 83.1669C478.823 93.8437 473.338 97.3695 480.079 97.1808ZM491.818 96.3906C487.963 96.5538 486.375 96.7329 486.837 96.0994C488.685 93.5654 488.943 93.1143 489.326 93.1367C495.067 92.9671 494.707 92.5576 491.935 96.3586L491.818 96.3906ZM515.779 87.5729C515.952 87.2721 517.182 84.7797 517.416 84.7157C523.188 84.6645 522.445 84.2326 520.988 87.2946C520.902 87.4449 520.784 87.4769 520.784 87.4769L520.667 87.5089C516.608 87.8544 515.521 88.024 515.779 87.5729ZM513.401 88.0944C510.07 87.8608 508.301 89.7389 511.355 85.0996C511.473 85.0676 511.442 84.9492 511.559 84.9172C515.766 84.6581 516.501 84.5845 516.36 85.0036C515.537 87.1313 515.317 88.2064 513.401 88.0944ZM521.809 87.0706C522.522 85.4804 522.625 84.4374 524.541 84.5494C528.607 84.7094 529.203 83.1512 527.518 86.7827C527.432 86.9331 527.228 87.1154 527.142 87.2658C527.142 87.2658 527.025 87.2978 526.907 87.3298C522.348 87.6849 523.083 87.6113 522.051 87.5121C521.934 87.5441 521.903 87.4257 521.754 87.3394C521.723 87.221 521.692 87.1026 521.809 87.0706ZM529.076 84.5814C529.162 84.431 529.249 84.2806 529.366 84.2487C529.483 84.2167 529.483 84.2167 529.601 84.1847C534.574 83.9703 535.013 83.724 534.582 84.4759C533.234 87.0003 533.234 87.0003 532.882 87.0963C526.759 87.2434 527.384 87.7074 529.076 84.5814ZM535.341 84.0151C535.427 83.8648 535.427 83.8648 535.544 83.8328C541.253 83.5449 541.097 82.953 539.202 86.2613C539.116 86.4116 538.912 86.594 538.677 86.658C532.765 87.1283 533.39 87.5922 535.341 84.0151ZM539.937 86.1877C541.143 84.0824 541.253 83.5449 541.754 83.5353C548.08 83.2058 547.338 82.7738 545.708 86.1365C545.708 86.1365 545.622 86.2869 545.505 86.3189L545.387 86.3509C539.827 86.7252 539.506 86.9396 539.937 86.1877ZM541.77 82.6426C543.11 79.6126 543.282 79.3119 543.634 79.2159C550.313 78.7904 549.743 78.0577 547.479 82.3547C547.393 82.5051 547.393 82.5051 547.276 82.537L547.158 82.569C543.099 82.9146 541.629 83.0617 541.77 82.6426ZM541.035 82.7162C540.949 82.8666 540.949 82.8666 540.863 83.0169C540.745 83.0489 540.776 83.1673 540.628 83.0809C534.684 83.4328 535.106 84.0791 536.963 80.1469C537.049 79.9965 537.253 79.8142 537.487 79.7502C543.752 79.1839 543.009 78.7519 541.035 82.7162ZM535.005 83.2185C534.888 83.2504 534.919 83.3688 534.802 83.4008C533.949 83.5064 529.39 83.8615 529.703 83.1416C531.098 79.8429 530.136 80.486 536.166 79.9837C536.752 79.8238 535.467 82.5849 535.005 83.2185ZM529.085 83.1832C528.999 83.3336 528.913 83.484 528.827 83.6343C528.827 83.6343 528.71 83.6663 528.592 83.6983C523.767 83.9991 523.063 84.191 523.29 83.6215C524.003 82.0313 524.403 81.161 524.99 81.0011C531.192 80.198 530.425 80.1532 529.085 83.1832ZM522.5 83.9638C522.5 83.9638 522.414 84.1142 522.297 84.1462L522.179 84.1782C517.143 84.1558 517.323 84.3605 518.216 82.9751C518.56 82.3736 518.608 81.5993 519.64 81.6985C524.262 81.5802 524.271 80.182 522.5 83.9638ZM516.877 84.1014C516.76 84.1334 516.76 84.1334 516.643 84.1654C511.286 84.3573 511.465 84.5621 512.413 82.9079C512.93 82.0056 512.578 82.1016 517.638 81.7369C517.755 81.7049 517.787 81.8233 517.904 81.7913C517.935 81.9097 517.935 81.9097 517.966 82.0281C517.77 82.716 517.167 83.7686 516.877 84.1014ZM511.85 82.6807C511.482 83.6694 511.537 83.4006 511.341 84.0885C511.372 84.2069 511.255 84.2389 511.137 84.2709C506.875 84.7988 507.61 84.7252 506.46 84.658C506.343 84.69 506.312 84.5716 506.163 84.4852C506.132 84.3668 506.101 84.2484 506.101 84.2484C506.9 82.5079 506.603 82.3351 511.491 82.2712C511.608 82.2392 511.639 82.3576 511.757 82.3256C511.819 82.5624 511.85 82.6807 511.85 82.6807ZM510.206 85.0324C510.323 85.0004 510.354 85.1188 510.386 85.2372C510.417 85.3555 510.417 85.3555 510.448 85.4739C509.335 87.9344 509.218 87.9664 508.928 88.2991C508.811 88.3311 508.811 88.3311 508.694 88.3631C504.987 88.6126 503.782 88.8142 504.127 88.2127C505.56 85.5379 505.529 85.4195 505.998 85.2915C508.118 85.2211 509.557 84.9556 510.206 85.0324ZM503.102 88.619C502.985 88.651 503.016 88.7694 502.867 88.683C496.775 88.9485 496.931 89.5404 499.124 86.4049C499.296 86.1041 499.586 85.7714 499.851 85.8258C505.115 85.2787 505.639 84.882 503.102 88.619ZM502.288 89.3485C502.405 89.3165 502.436 89.4349 502.468 89.5533C502.499 89.6717 502.499 89.6717 502.413 89.822C502.068 90.4236 501.379 91.6266 501.003 92.1097C501.003 92.1097 500.886 92.1417 500.768 92.1737C495.591 92.5704 495.004 92.7304 495.552 91.9465C495.928 91.4633 496.845 89.6908 497.431 89.5308C497.932 89.5212 501.342 89.0989 502.288 89.3485ZM502.028 91.7034C502.286 91.2522 503.289 89.3293 503.789 89.3197C504.525 89.2461 506.965 88.9614 508.114 89.0286C508.232 88.9966 508.263 89.115 508.294 89.2334C508.325 89.3518 508.325 89.3518 508.356 89.4701C508.129 90.0397 507.612 90.9419 507.009 91.9946C506.923 92.1449 506.923 92.145 506.805 92.1769C502.387 92.1129 501.8 92.2729 502.028 91.7034ZM509.467 88.9134C509.467 88.9134 509.585 88.8814 509.702 88.8494C514.793 88.6031 514.848 88.3344 514.534 89.0542C512.435 92.5449 513.781 91.9242 508.276 92.0298C507.509 91.985 508.857 89.4605 509.467 88.9134ZM515.152 89.0127C515.325 88.7119 515.645 88.4975 515.911 88.5519C516.412 88.5423 518.852 88.2576 520.001 88.3248C520.119 88.2928 520.15 88.4112 520.298 88.4976C520.33 88.616 520.361 88.7344 520.361 88.7344C520.047 89.4542 519.272 90.8076 518.489 91.6555C518.372 91.6875 518.403 91.8059 518.254 91.7195C513.015 91.8794 512.756 92.3306 515.152 89.0127ZM520.971 88.1872C520.94 88.0688 521.057 88.0369 521.175 88.0049C521.292 87.9729 521.292 87.9729 521.441 88.0593C525.765 87.7681 526.735 87.6306 526.477 88.0817C524.557 91.7772 525.872 91.0381 519.78 91.3036C519.107 91.6139 520.265 90.2829 520.971 88.1872ZM527.329 87.9761C527.415 87.8257 527.533 87.7938 527.65 87.7618C532.89 87.6018 533.79 86.7219 531.08 90.7597C530.963 90.7917 530.994 90.9101 530.846 90.8237C524.667 91.2396 525.269 92.0907 527.329 87.9761ZM533.304 87.7426C533.273 87.6242 533.39 87.5922 533.507 87.5602C533.507 87.5602 533.625 87.5282 533.742 87.4962C538.599 87.3139 539.037 87.0675 538.606 87.8194C538.434 88.1202 537.086 90.6446 536.703 90.6222C531.025 91.0285 531.792 91.0733 533.304 87.7426ZM538.018 89.8831C538.855 88.7665 538.771 87.0132 540.718 87.2435C545.112 87.6947 546.225 85.2343 543.616 90.1328C543.53 90.2831 543.413 90.3151 543.444 90.4335C543.327 90.4655 543.327 90.4655 543.209 90.4975C537.821 90.571 537.352 90.699 538.018 89.8831ZM544.32 89.9408C544.634 89.2209 545.347 87.6307 545.809 86.9972C545.926 86.9652 545.895 86.8468 546.044 86.9332C549.399 86.7797 550.752 86.6645 550.61 87.0836C549.294 89.7265 549.067 90.296 548.684 90.2736C545.681 90.3311 544.21 90.4783 544.32 89.9408ZM546.295 85.9766C547.925 82.6138 547.048 83.1066 552.257 82.8283C552.874 82.7867 551.731 85.1287 551.182 85.9126C551.096 86.063 551.096 86.063 550.979 86.095C547.241 86.2261 546.036 86.4277 546.295 85.9766ZM548.511 82.4539C548.394 82.4859 548.363 82.3675 548.332 82.2491C548.3 82.1307 548.3 82.1307 548.269 82.0123C549.296 79.7023 549.695 78.832 550.165 78.704C554.99 78.4033 555.483 77.8882 553.039 81.9804C552.922 82.0124 552.953 82.1308 552.836 82.1628C550.365 82.3291 549.043 82.5627 548.511 82.4539ZM550.627 78.0705C550.509 78.1025 550.478 77.9841 550.447 77.8657C550.416 77.7474 550.416 77.7474 550.385 77.629C551.38 75.2005 551.411 75.3189 551.615 75.1365L551.732 75.1045C557.199 74.3751 557.019 74.1703 555.155 77.597C554.81 78.1985 551.573 78.3201 550.627 78.0705ZM549.712 77.9393C549.743 78.0577 549.508 78.1217 549.54 78.2401C549.54 78.2401 549.422 78.2721 549.305 78.3041C545.598 78.5536 543.658 78.8287 543.917 78.3776C544.975 76.1859 545.171 75.498 546.672 75.4692C551.294 75.3509 551.334 74.0711 549.712 77.9393ZM543.268 78.3008C542.923 78.9023 542.657 78.8479 537.98 79.235C537.597 79.2126 537.449 79.1262 537.621 78.8255C538.507 76.9346 538.648 76.5154 539.352 76.3235C539.586 76.2595 543.732 75.7636 543.732 75.7636C544.819 75.594 544.591 76.1635 543.268 78.3008ZM538.092 76.7938C537.403 77.9968 537.066 79.1039 536.244 79.3278C530.308 80.1852 531.043 80.1117 532.766 77.1041C532.853 76.9537 532.97 76.9217 533.056 76.7713L533.173 76.7394C538.32 76.2243 538.492 75.9235 538.092 76.7938ZM531.914 77.2097C531.601 77.9296 531.029 79.1006 530.449 79.7661C530.449 79.7661 530.332 79.7981 530.215 79.8301C526.069 80.326 524.63 80.5915 524.889 80.1404C526.064 77.9167 526.322 77.4656 526.909 77.3056C527.261 77.2096 530.319 76.8833 531.586 76.9185C531.703 76.8865 531.734 77.0049 531.852 76.9729C531.883 77.0913 531.914 77.2097 531.914 77.2097ZM525.446 77.9583C525.164 78.7966 524.309 80.8059 523.191 80.8571C518.804 80.9114 518.381 82.1689 520.448 78.5598C520.535 78.4094 520.738 78.227 520.738 78.227L520.855 78.195C523.882 77.7503 524.735 77.6448 525.118 77.6672C525.235 77.6352 525.266 77.7535 525.384 77.7215C525.501 77.6895 525.532 77.8079 525.446 77.9583ZM518.569 80.9754L518.452 81.0074L518.335 81.0394C514.542 81.4393 512.985 81.7369 513.33 81.1354C514.191 79.6316 514.708 78.7293 515.06 78.6333C520.824 78.0767 520.23 77.7311 518.569 80.9754ZM513.715 79.254C513.456 79.7052 512.688 81.5641 512.219 81.6921C506.4 82.5175 507.19 82.1752 508.889 79.5547C509.007 79.5227 508.976 79.4044 509.093 79.3724C512.534 79.0684 513.973 78.8029 513.715 79.254ZM506.862 81.884C506.893 82.0024 506.776 82.0344 506.658 82.0664L506.541 82.0984C503.483 82.4247 501.543 82.6998 501.802 82.2487C503.039 80.2618 503.008 80.1434 503.509 80.1338C508.741 79.4684 508.295 79.2092 506.862 81.884ZM505.227 82.8375C506.079 82.7319 506.783 82.5399 505.459 84.6772C505.342 84.7092 505.373 84.8276 505.256 84.8596L505.139 84.8916C500.962 85.2691 501.314 85.1731 500.696 85.2147C500.579 85.2467 500.548 85.1283 500.399 85.0419C500.368 84.9235 500.337 84.8051 500.454 84.7731C501.34 82.8822 501.285 83.151 505.227 82.8375ZM500.291 83.6757C499.32 85.717 498.96 85.3074 495.285 85.6754C495.167 85.7073 495.019 85.621 494.988 85.5026C494.956 85.3842 494.925 85.2658 495.043 85.2338C495.473 84.4819 495.418 84.7507 496.287 83.7524C496.287 83.7524 496.405 83.7204 496.522 83.6884C499.111 83.4901 499.846 83.4165 500.08 83.3525C500.198 83.3205 500.229 83.4389 500.377 83.5253C500.229 83.4389 500.26 83.5573 500.291 83.6757ZM498.381 85.973C498.498 85.941 498.53 86.0593 498.678 86.1457C498.709 86.2641 498.74 86.3825 498.74 86.3825C498.31 87.1344 497.589 88.219 497.127 88.8525C497.01 88.8845 497.041 89.0029 496.892 88.9165C493.537 89.0701 492.185 89.1852 492.443 88.7341C492.819 88.251 494.087 86.3825 494.705 86.3409C495.44 86.2673 497.38 85.9921 498.381 85.973ZM494.793 92.4072C494.676 92.4392 494.707 92.5576 494.559 92.4712C490.672 92.5159 489.468 92.7175 489.726 92.2664C490.274 91.4825 491.425 89.646 492.309 89.6588C496.727 89.7228 497.299 88.5518 494.793 92.4072ZM493.078 95.9203C493.508 95.1684 494.401 93.783 495.098 93.0855C495.215 93.0535 495.184 92.9351 495.332 93.0215C499.923 92.7848 500.893 92.6472 500.634 93.0984C499.6 94.9029 498.88 95.9875 498.528 96.0835C497.91 96.1251 492.733 96.5218 493.078 95.9203ZM504.503 95.85C498.411 96.1155 498.981 96.8482 501.338 92.9064C501.338 92.9064 501.425 92.756 501.542 92.724L501.659 92.692C505.28 92.5929 506.719 92.3273 506.492 92.8968C505.144 95.4213 505.003 95.8404 504.503 95.85ZM510.212 95.5621C504.737 95.786 505.394 96.3683 507.023 93.0056C507.165 92.5865 507.517 92.4905 508.017 92.4809C509.284 92.5161 511.02 92.4234 511.786 92.4682C511.904 92.4362 511.935 92.5545 511.966 92.6729C511.997 92.7913 511.997 92.7913 512.028 92.9097C511.574 94.0487 510.822 95.015 510.329 95.5301C510.446 95.4981 510.329 95.5301 510.212 95.5621ZM540.766 94.5897C529.707 95.5751 522.489 95.3862 511.979 95.5877C511.596 95.5653 511.479 95.5973 511.62 95.1782C513.539 91.4827 512.201 92.6089 517.143 92.2762C522.587 91.9339 526.942 91.7612 530.415 91.5756C545.508 90.6319 543.514 91.1758 541 94.5257C540.883 94.5577 540.766 94.5897 540.766 94.5897ZM546.444 94.1834L546.326 94.2154C542.385 94.5289 541.681 94.7209 542.111 93.969C543.717 90.9934 543.835 90.9614 544.335 90.9518C549.544 90.6735 548.95 90.328 546.937 93.6683C546.851 93.8187 546.647 94.001 546.444 94.1834ZM554.673 91.0511C553.216 94.1131 550.534 93.9563 547.679 94.1002C547.679 94.1002 547.5 93.8955 547.468 93.7771C549.505 90.0496 548.308 90.7567 554.314 90.6416C554.58 90.696 554.759 90.9007 554.673 91.0511ZM555.363 89.8481C555.245 89.8801 555.276 89.9985 555.159 90.0305C550.92 90.1712 549.599 90.4048 549.826 89.8352C551.346 87.0101 551.487 86.5909 551.87 86.6133C556.726 86.431 558.158 85.6599 555.363 89.8481ZM558.708 82.9723C557.416 85.228 557.392 85.6151 557.009 85.5927C553.92 85.8006 551.894 86.2262 552.121 85.6567C553.547 82.4763 553.406 82.8955 553.813 82.5307L553.93 82.4987C557.317 82.4636 559.053 82.3708 558.708 82.9723ZM559.218 81.5645C559.218 81.5645 559.1 81.5965 558.983 81.6285C554.658 81.9196 553.806 82.0252 554.064 81.5741C555.483 77.8882 554.873 78.4353 560.354 78.7169C560.886 78.8257 559.711 81.0494 559.218 81.5645ZM560.699 78.1154C560.582 78.1474 560.613 78.2658 560.464 78.1794C557.931 78.109 556.546 78.1058 556.015 77.997C555.897 78.029 555.866 77.9106 555.835 77.7922C555.804 77.6738 555.804 77.6738 555.89 77.5234C557.293 74.7303 557.379 74.5799 557.879 74.5703C562.994 73.9368 565.099 72.8554 560.699 78.1154ZM560.213 71.0156C560.682 70.8876 563.592 70.4749 564.452 70.8748C564.6 70.9612 564.631 71.0796 564.545 71.23C563.55 73.6584 563.777 73.0889 562.541 73.1721C558.162 73.732 557.723 73.9783 558.037 73.2585C559.133 71.6907 559.157 71.3036 560.213 71.0156ZM553.862 71.7322C558.977 71.0988 559.056 70.4429 557.45 73.4184C557.364 73.5688 557.161 73.7512 556.957 73.9336L556.84 73.9655C551.662 74.3622 551.725 74.599 552.414 73.396C552.759 72.7945 552.893 71.8698 553.862 71.7322ZM551.279 74.3399C551.193 74.4902 551.193 74.4902 551.076 74.5222C547.283 74.9221 545.695 75.1013 545.953 74.6501C546.815 73.1464 547.16 72.5449 547.66 72.5353C553.065 71.5691 552.596 71.697 551.279 74.3399ZM541.13 73.0471C541.599 72.9192 546.331 72.2633 546.018 72.9832C545.79 73.5527 545.422 74.5414 545.015 74.9061C545.015 74.9061 544.898 74.9381 544.78 74.9701C540.103 75.3572 540.487 75.3796 539.869 75.4212C539.751 75.4532 539.72 75.3348 539.572 75.2484C539.541 75.13 539.509 75.0117 539.509 75.0117C539.94 74.2598 540.543 73.2071 541.13 73.0471ZM539.308 73.2903C539.925 73.2487 538.978 74.9029 538.516 75.5364C538.398 75.5684 538.43 75.6868 538.312 75.7188C533.987 76.0099 534.371 76.0323 533.753 76.0738C533.635 76.1058 533.604 75.9875 533.487 76.0195C533.456 75.9011 533.425 75.7827 533.425 75.7827C534.451 73.4726 534.396 73.7414 539.308 73.2903ZM533.043 73.8566C533.161 73.8246 533.309 73.911 533.309 73.911C533.34 74.0293 533.371 74.1477 533.371 74.1477C533.058 74.8676 532.713 75.4691 532.455 75.9203C532.337 75.9523 532.369 76.0706 532.251 76.1026C527.637 76.7265 528.223 76.5665 527.34 76.5537C527.223 76.5857 527.191 76.4673 527.043 76.3809C527.012 76.2626 526.98 76.1442 526.98 76.1442C528.187 74.0389 527.576 74.586 533.043 73.8566ZM523.314 75.1139C527.2 75.0691 527.765 73.3926 526.37 76.6913C526.284 76.8417 526.284 76.8417 526.167 76.8737C520.934 77.5391 520.965 77.6575 521.31 77.056C521.537 76.4865 521.93 75.1107 523.314 75.1139ZM516.29 76.1409C516.377 75.9905 516.377 75.9905 516.494 75.9585C518.934 75.6738 520.256 75.4402 520.67 75.581C520.788 75.549 520.819 75.6674 520.819 75.6674C520.85 75.7858 520.85 75.7858 520.881 75.9042C520.654 76.4737 520.285 77.4623 519.933 77.5583C516.906 78.003 515.937 78.1406 515.553 78.1182C515.436 78.1502 515.405 78.0318 515.256 77.9454C515.225 77.827 515.194 77.7086 515.311 77.6767C515.687 77.1935 516.032 76.592 516.29 76.1409ZM509.461 78.3837C510.323 76.8799 509.267 77.1679 514.734 76.4384C514.851 76.4064 515 76.4928 515 76.4928C515.031 76.6112 515.062 76.7296 515.062 76.7296C514.89 77.0303 514.631 77.4815 514.435 78.1694C514.349 78.3198 514.349 78.3198 514.232 78.3518C511.291 78.6461 510.204 78.8156 509.821 78.7932C509.703 78.8252 509.672 78.7069 509.524 78.6205C509.493 78.5021 509.461 78.3837 509.461 78.3837ZM504.081 78.9628C505.091 77.5454 503.886 77.747 508.735 77.0591C508.853 77.0271 508.884 77.1455 508.884 77.1455C508.915 77.2639 508.915 77.2639 508.946 77.3823C508.719 77.9518 508.523 78.6397 508.171 78.7357C507.584 78.8956 505.206 79.4171 504.291 79.2859C504.174 79.3179 504.143 79.1995 503.994 79.1132C504.026 79.2315 503.994 79.1132 504.081 78.9628ZM499.083 79.5643C499.255 79.2635 499.514 78.8124 499.983 78.6844C500.304 78.47 502.744 78.1853 503.331 78.0253C503.448 77.9933 503.597 78.0797 503.628 78.1981C503.659 78.3165 503.69 78.4349 503.573 78.4668C502.97 79.5195 500.264 79.7498 499.325 80.0058C499.208 80.0378 499.059 79.9514 499.059 79.9514C498.997 79.7146 498.997 79.7146 499.083 79.5643ZM501.921 80.313C502.038 80.281 502.069 80.3994 502.101 80.5178C502.132 80.6361 502.163 80.7545 502.163 80.7545C501.05 83.215 500.926 82.7414 496.984 83.0549C496.483 83.0645 497.838 81.0456 498.808 80.9081C498.777 80.7897 501.921 80.313 501.921 80.313ZM494.469 80.1881C495.431 79.545 497.191 79.0651 497.926 78.9915C498.043 78.9595 498.192 79.0459 498.223 79.1643C498.254 79.2827 498.285 79.4011 498.168 79.4331C497.996 79.7338 497.792 79.9162 497.737 80.1849C497.737 80.1849 497.651 80.3353 497.534 80.3673C495.946 80.5465 495.094 80.6521 494.624 80.78C494.507 80.812 494.359 80.7257 494.327 80.6073C494.296 80.4889 494.382 80.3385 494.469 80.1881ZM490.947 83.0517C492.16 81.4519 494.366 81.2312 496.571 81.0104C496.689 80.9784 496.837 81.0648 496.868 81.1832C496.9 81.3016 496.931 81.42 496.813 81.452C496.469 82.0535 495.921 82.8374 495.569 82.9334C494.982 83.0933 492.307 83.4421 491.189 83.4932C491.071 83.5252 490.923 83.4388 490.892 83.3204C490.892 83.3204 490.861 83.2021 490.947 83.0517ZM488.278 85.8097C488.857 85.1442 488.043 85.8737 489.702 84.5331L489.819 84.5011C493.081 83.9924 494.168 83.8228 494.668 83.8132C494.786 83.7812 494.934 83.8676 494.965 83.986C494.997 84.1044 495.028 84.2228 494.91 84.2548C494.652 84.7059 494.19 85.3394 493.9 85.6721C493.611 86.0049 490.052 86.3408 488.433 86.4016C488.316 86.4336 488.168 86.3472 488.136 86.2288C488.105 86.1104 488.191 85.9601 488.278 85.8097ZM484.615 89.0924C485.225 88.5453 486.329 87.483 486.618 87.1503L486.736 87.1183C491.029 86.7088 493.321 86.3377 492.945 86.8208C492.107 87.9374 491.629 89.4636 489.831 89.3196C488.798 89.2204 486.124 89.5691 484.739 89.5659C484.622 89.5979 484.474 89.5115 484.442 89.3931C484.529 89.2428 484.497 89.1244 484.615 89.0924ZM481.249 92.5479C483.034 89.7771 484.16 90.2314 490.456 89.7835C491.074 89.7419 489.57 91.6745 488.67 92.5543C488.553 92.5863 488.553 92.5863 488.435 92.6183C482.961 92.8422 481.757 93.0438 481.374 93.0214C481.256 93.0534 481.225 92.935 481.077 92.8486C481.163 92.6983 481.132 92.5799 481.249 92.5479ZM478.235 95.9074C478.752 95.0051 479.645 93.6197 480.646 93.6005C486.589 93.2486 488.177 93.0695 487.918 93.5206C485.781 96.3874 485.843 96.6241 485.312 96.5154C478.242 96.4129 477.89 96.5089 478.235 95.9074Z" fill="#FF981F"/>
<path d="M526.839 40.9872C528.647 41.6379 529.399 40.6699 529.916 39.766C530.692 38.4101 529.676 37.4164 528.494 37.2305C527.579 37.0991 526.224 37.2144 525.746 38.7434C525.604 39.1633 525.736 40.1442 525.329 40.5096C524.193 41.4551 523.412 40.3973 523.49 39.7402C524.27 34.57 530.727 34.7143 531.483 38.0671C532.177 41.1828 528.92 42.1989 527.041 42.7117C526.571 42.8399 524.779 43.2021 526.696 43.3143C530.116 43.3977 533.023 40.5706 532.368 38.08C532.149 37.2498 531.665 36.3651 530.358 35.7047C524.569 32.8358 520.751 39.8524 523.426 41.4103C525.39 42.654 525.744 40.6506 526.839 40.9872ZM529.259 39.1826C528.953 40.4102 527.285 41.2468 526.738 40.1249C525.668 37.4933 529.535 37.8363 529.259 39.1826Z" fill="#FF981F"/>
<path d="M555.435 16.6832C552.727 16.9139 548.673 17.7662 539.884 19.2753C535.18 20.0507 503.083 27.6671 499.755 29.8461C492.63 34.332 495.56 47.3833 497.918 61.6073C499.077 68.4069 498.934 70.7333 505.093 70.7045C510.985 70.6212 515.329 69.4356 531.795 66.9749C543.057 65.2991 550.703 64.2289 555.313 63.0978C559.102 62.1911 561.09 61.1401 561.859 59.2784C562.227 58.2882 562.299 57.125 562.159 55.6382C558.724 22.012 561.116 16.2763 555.435 16.6832ZM558.968 28.6802C559.773 47.5217 562.919 55.1768 560.795 59.0604C558.898 62.3737 553.217 62.7806 539.075 64.9883C512.082 69.0511 504.944 70.6179 502.684 69.2016C498.969 67.0387 496.989 42.2916 497.227 38.4144C497.524 30.4548 502.142 29.83 512.097 27.4942C550.832 18.3205 557.767 16.9363 558.522 20.2881C558.755 22.1306 558.768 25.0497 558.968 28.6802Z" fill="#FF981F"/>
<path d="M529.987 31.8813C528.664 32.1153 513.018 34.352 513.431 36.3999C514.024 38.6528 513.646 41.0435 513.651 43.4567C513.703 47.0011 513.989 50.4814 514.542 54.0163C514.892 55.8269 514.054 56.9454 516.354 57.08C519.038 57.2371 525.973 55.8527 543.31 52.3917C547.748 51.5617 546.87 53.9621 544.068 37.5699C542.535 27.4397 545.359 29.0838 529.987 31.8813ZM514.754 36.1659C518.144 34.2239 538.22 30.6508 541.726 30.5835C541.844 30.5515 541.875 30.6701 541.875 30.6701C541.906 30.7886 541.906 30.7886 541.789 30.8207C530.642 42.505 530.361 49.5714 517.24 38.9188C517.06 38.7137 514.315 36.4127 514.754 36.1659ZM515.769 55.3334C515.479 55.6667 515.424 55.9359 515.292 54.9552C514.752 46.2063 514.218 39.8706 514.158 37.7266C514.126 37.608 514.244 37.576 514.33 37.4254C514.448 37.3933 514.565 37.3613 514.596 37.4799C515.519 38.1176 516.895 39.5213 518.741 40.7968C520.469 42.1043 523.676 43.7708 523.386 44.1041C516.264 52.9106 518.018 51.9236 515.769 55.3334ZM545.119 51.1355C541.832 52.0328 516.002 57.1761 516.778 55.8205C520.212 48.783 522.742 46.4404 523.784 45.1393C524.419 44.2035 525.428 44.6906 526.226 44.8541C527.556 45.1265 529.301 45.5399 531.572 43.6491C532.3 43.0691 535.843 45.5336 539.527 47.5782C544.252 50.2286 544.963 50.5426 545.143 50.7477C545.589 51.0073 545.354 51.0714 545.119 51.1355ZM545.629 49.7254C545.661 49.844 545.574 49.9946 545.574 49.9946C545.457 50.0267 545.339 50.0587 545.339 50.0587C542.257 48.8665 533.779 43.428 533.216 43.2005C532.442 42.6493 532.356 42.7999 533.053 42.1013C538.63 36.5123 542.158 29.8304 542.906 32.6762C543.187 33.7434 545.295 47.0206 545.629 49.7254Z" fill="#FF981F"/>
</g>
<path d="M263.707 36.7683L273.47 45.3744" stroke="#FC8F5F" stroke-width="1.8837" stroke-miterlimit="10" stroke-linecap="round"/>
<path d="M256.086 56.3656L269.017 57.4753" stroke="#FC8F5F" stroke-width="1.8837" stroke-miterlimit="10" stroke-linecap="round"/>
<path d="M255.486 76.9875L267.39 71.7027" stroke="#FC8F5F" stroke-width="1.8837" stroke-miterlimit="10" stroke-linecap="round"/>
<g filter="url(#filter0_d_66_216425)">
<path d="M317.145 98.1583C331.308 98.1583 342.79 86.6757 342.79 72.5112C342.79 58.3467 331.308 46.8641 317.145 46.8641C302.982 46.8641 291.5 58.3467 291.5 72.5112C291.5 86.6757 302.982 98.1583 317.145 98.1583Z" fill="#D0D6DA"/>
</g>
<path d="M308.025 89.6036C322.152 89.6036 333.542 78.1512 333.466 64.024C333.389 49.8967 321.876 38.4443 307.749 38.4443C293.622 38.4443 282.232 49.8967 282.308 64.024C282.384 78.1512 293.898 89.6036 308.025 89.6036Z" fill="#FFFFFC"/>
<path fill-rule="evenodd" clip-rule="evenodd" d="M304.117 62.6799L307.29 54.2363C307.375 53.8955 307.803 53.7251 308.146 53.8103C308.488 53.8955 308.66 54.3215 308.574 54.6624L305.402 63.105C305.716 63.3939 305.92 63.8083 305.92 64.2903C305.92 64.499 305.879 64.7025 305.803 64.8909L314.827 74.1739C315.083 74.4295 315.083 74.8556 314.827 75.1112C314.781 75.134 314.741 75.1569 314.704 75.1781C314.603 75.236 314.524 75.2816 314.398 75.2816C314.227 75.2816 314.056 75.1964 313.885 75.1112L304.848 65.8148C304.677 65.8761 304.49 65.9098 304.293 65.9098C303.437 65.9098 302.666 65.2279 302.666 64.2903C302.666 63.492 303.267 62.7684 304.117 62.6799Z" fill="#8C95B7"/>
<path opacity="0.8" d="M525.337 207.794C527.045 210.486 530.217 211.529 533.144 210.747C535.91 209.965 538.512 207.533 538.919 204.406C539 203.972 538.919 203.538 538.756 203.19C538.919 202.93 539 202.669 539 202.322C538.756 200.498 538.024 198.76 536.723 197.457C535.584 196.328 534.039 195.46 532.412 195.112C529.403 194.591 526.313 195.894 524.93 198.847C523.629 201.714 523.629 205.275 525.337 207.794ZM527.045 203.451C527.045 203.19 527.045 202.93 527.045 202.582C527.045 202.582 527.045 202.408 527.045 202.322C527.045 202.235 527.045 202.061 527.126 201.974C527.207 201.714 527.207 201.453 527.289 201.192C527.37 201.019 527.37 200.932 527.451 200.758C527.37 201.019 527.451 200.758 527.533 200.671C527.614 200.411 527.777 200.15 527.939 199.976C527.939 199.889 528.021 199.889 528.021 199.803C528.102 199.716 528.183 199.629 528.265 199.542C528.346 199.455 528.427 199.368 528.59 199.195L528.671 199.108C528.915 198.934 529.078 198.76 529.322 198.673C529.403 198.673 529.403 198.587 529.485 198.587C529.566 198.587 529.729 198.5 529.81 198.5C529.973 198.413 530.135 198.413 530.298 198.413C530.298 198.413 530.461 198.413 530.542 198.413C530.623 198.413 530.786 198.413 530.786 198.413C530.867 198.413 531.03 198.413 531.111 198.413C531.274 198.413 531.355 198.413 531.518 198.413C531.599 198.413 531.599 198.413 531.599 198.413C531.599 198.413 531.599 198.413 531.68 198.413C531.924 198.5 532.168 198.5 532.494 198.587C532.656 198.673 532.738 198.673 532.9 198.76C532.982 198.76 532.982 198.76 533.063 198.847C533.307 199.021 533.551 199.108 533.795 199.281C533.958 199.368 534.039 199.455 534.12 199.542L534.202 199.629C534.364 199.803 534.608 199.976 534.771 200.15C534.852 200.237 535.015 200.411 535.096 200.498C535.096 200.498 535.096 200.498 535.096 200.584C535.259 200.845 535.422 201.019 535.503 201.279C535.503 201.366 535.584 201.453 535.584 201.453C535.584 201.54 535.666 201.714 535.666 201.8C535.747 201.974 535.747 202.061 535.747 202.235C535.747 202.408 535.828 202.582 535.747 202.322C535.747 202.582 535.828 202.843 535.991 203.016C535.91 203.19 535.828 203.277 535.828 203.451C535.747 203.798 535.666 204.146 535.584 204.493C535.584 204.58 535.584 204.58 535.503 204.667C535.422 204.841 535.34 204.927 535.259 205.101C535.178 205.188 535.096 205.362 535.015 205.449C535.015 205.449 534.934 205.535 534.934 205.622C534.69 205.883 534.527 206.143 534.283 206.317C534.202 206.404 534.202 206.404 534.12 206.491C534.039 206.578 533.876 206.665 533.795 206.751C533.551 206.925 533.307 207.099 532.982 207.186C532.982 207.186 532.9 207.186 532.9 207.273H532.819C532.656 207.359 532.575 207.359 532.412 207.446C532.087 207.533 531.843 207.62 531.518 207.62C531.436 207.62 531.355 207.62 531.274 207.62C531.193 207.62 531.03 207.62 530.949 207.62C530.705 207.62 530.461 207.62 530.298 207.62C530.217 207.62 530.135 207.62 530.054 207.533C529.891 207.533 529.81 207.446 529.647 207.446C529.566 207.446 529.403 207.359 529.322 207.359C529.647 207.446 529.322 207.359 529.159 207.273C528.997 207.186 528.915 207.099 528.753 207.012C528.753 207.012 528.59 206.925 528.509 206.838C528.427 206.751 528.346 206.751 528.346 206.665C528.265 206.578 528.183 206.491 528.021 206.317L527.858 206.143C527.858 206.057 527.777 205.97 527.695 205.97C527.533 205.709 527.451 205.535 527.289 205.275C527.289 205.275 527.207 205.188 527.207 205.101C527.126 204.927 527.126 204.841 527.126 204.754C527.045 204.493 526.963 204.232 526.963 203.972C526.963 203.885 526.963 203.798 526.963 203.798C527.126 203.711 527.045 203.624 527.045 203.451Z" fill="#895EF9"/>
<path opacity="0.8" d="M502.614 285.633C504.628 285.817 506.73 286 508.745 286C509.708 286 510.759 286 511.722 286C512.686 285.908 513.649 285.725 514.262 284.992C515.225 283.984 515.138 282.701 514.612 281.51C514.175 280.502 513.649 279.586 513.211 278.67C512.248 276.746 511.372 274.821 510.409 272.897C510.146 272.256 509.445 271.981 508.832 272.072C508.657 271.614 508.219 271.156 507.781 271.065C506.905 270.79 506.117 271.431 505.767 272.256C504.453 275.921 502.877 279.586 501.213 283.068C500.6 284.259 501.388 285.542 502.614 285.633ZM507.869 282.518C506.905 282.518 506.03 282.426 505.154 282.426C506.205 280.136 507.168 277.845 508.044 275.463C508.745 276.837 509.358 278.212 510.058 279.586C510.496 280.411 510.846 281.235 511.284 282.06C511.284 282.06 511.46 282.335 511.547 282.61C511.197 282.61 510.934 282.61 510.584 282.61C509.62 282.61 508.745 282.61 507.869 282.518Z" fill="#2F82FF"/>
<path opacity="0.8" d="M284 303.124C285.574 305.53 288.328 306.647 290.924 305.616C292.419 305.015 293.678 303.898 294.622 302.523C294.937 302.437 295.252 302.179 295.409 301.836C295.645 301.234 295.803 300.633 295.803 300.031C295.881 299.859 295.96 299.602 295.96 299.43C296.117 298.656 295.803 297.883 295.173 297.539C294.308 295.993 292.734 294.704 291.082 294.275C288.879 293.673 286.439 294.017 284.63 295.735C282.663 297.539 282.505 300.89 284 303.124ZM285.889 299.516V299.43C285.889 299.344 285.889 299.258 285.967 299.172C285.967 299.086 286.046 298.828 286.046 298.828V298.742C286.046 298.656 286.282 298.399 286.282 298.399C286.361 298.313 286.439 298.227 286.518 298.055L286.597 297.969C286.597 297.969 286.597 297.969 286.676 297.883C286.676 297.883 286.675 297.883 286.754 297.797C286.754 297.797 286.754 297.797 286.676 297.797C286.912 297.625 287.069 297.539 287.226 297.454C287.305 297.368 287.384 297.368 287.541 297.368C287.698 297.282 287.856 297.282 288.013 297.196C288.092 297.196 288.643 297.11 288.249 297.11C288.643 297.11 289.115 297.11 289.508 297.11H289.587H289.508H289.587C289.665 297.11 289.665 297.11 289.587 297.11C289.665 297.11 289.665 297.11 289.744 297.11C289.98 297.11 290.137 297.196 290.295 297.282C290.374 297.282 290.531 297.368 290.61 297.368C290.767 297.454 290.924 297.539 291.082 297.625C291.16 297.711 291.318 297.797 291.396 297.883C291.396 297.883 291.475 297.883 291.475 297.969C291.632 298.141 291.79 298.313 291.947 298.485C291.947 298.485 292.262 298.914 292.104 298.656C292.183 298.742 292.262 298.914 292.262 299C292.341 299.086 292.341 299.172 292.419 299.344C292.419 299.344 292.419 299.344 292.419 299.43C292.419 299.516 292.419 299.516 292.419 299.516C292.341 299.602 292.341 299.773 292.262 299.859C292.183 300.117 292.026 300.289 291.868 300.547C291.868 300.547 291.711 300.719 291.711 300.804C291.632 300.89 291.554 300.976 291.475 301.062C291.318 301.234 291.16 301.406 291.003 301.578C290.924 301.664 290.846 301.664 290.767 301.75C290.688 301.836 290.61 301.921 290.531 301.921C290.373 302.093 290.137 302.179 289.901 302.265C289.901 302.265 289.823 302.265 289.823 302.351C289.744 302.351 289.744 302.351 289.665 302.437C289.587 302.437 289.429 302.523 289.351 302.523C289.193 302.523 289.115 302.609 288.957 302.609C288.957 302.609 288.957 302.609 288.879 302.609C288.643 302.609 288.406 302.609 288.249 302.609H288.17C288.17 302.609 288.17 302.609 288.092 302.609C288.013 302.609 287.934 302.609 287.856 302.523C287.777 302.523 287.62 302.437 287.541 302.437C287.541 302.437 287.462 302.437 287.384 302.351C287.226 302.265 286.99 302.179 286.833 302.007L286.597 301.836C286.518 301.836 286.518 301.75 286.439 301.75C286.282 301.578 286.125 301.406 285.967 301.234C285.889 301.062 285.81 300.976 285.731 300.804C285.653 300.719 285.653 300.547 285.574 300.461C285.495 300.203 285.417 300.031 285.417 299.773C285.889 299.773 285.889 299.688 285.889 299.516Z" fill="#15C666"/>
<path opacity="0.8" d="M54.1136 167.774C50.9331 172.294 44.72 173.331 40.2082 170.145C35.6963 166.959 34.6608 160.735 37.8413 156.215C41.0218 151.696 47.2349 150.658 51.7467 153.844C56.1846 157.03 57.2941 163.254 54.1136 167.774Z" fill="#FABB18"/>
<path opacity="0.8" d="M215.394 165.873C214.876 164.762 213.915 163.873 212.805 163.354C211.474 162.761 209.994 162.984 208.737 163.502C207.849 163.873 207.036 164.539 206.444 165.28C206.296 165.354 206.074 165.503 206 165.725C205.778 166.095 205.63 166.466 205.483 166.836C204.891 168.244 204.817 169.726 205.409 171.134C205.63 171.578 206.074 171.875 206.592 171.949C206.888 172.319 207.258 172.69 207.627 173.06C208.589 173.875 209.92 174.32 211.104 174.246C212.509 174.172 213.767 173.505 214.654 172.393C216.207 170.689 216.355 167.948 215.394 165.873ZM213.027 169.059C213.027 169.133 213.027 169.281 213.027 169.355C212.953 169.578 212.953 169.726 212.879 169.948C212.879 170.022 212.805 170.096 212.805 170.171C212.657 170.393 212.583 170.541 212.435 170.689C212.361 170.763 212.287 170.837 212.213 170.911C212.139 170.986 212.065 170.986 212.065 171.06C211.991 171.134 211.843 171.134 211.77 171.208C211.77 171.208 211.696 171.208 211.696 171.282C211.548 171.282 211.252 171.356 211.104 171.43H211.03C210.882 171.43 210.808 171.43 210.66 171.43C210.586 171.43 210.438 171.356 210.364 171.356C210.29 171.356 210.216 171.282 210.142 171.282C210.068 171.282 209.994 171.208 209.994 171.208C209.772 171.06 209.625 170.911 209.403 170.837C209.329 170.763 209.329 170.763 209.255 170.689C209.181 170.615 209.107 170.541 209.033 170.393C208.959 170.319 208.885 170.245 208.811 170.171C208.737 170.096 208.737 170.096 208.811 170.096V170.022C208.663 169.8 208.589 169.578 208.441 169.355C208.441 169.281 208.367 169.281 208.367 169.207C208.367 169.059 208.293 168.985 208.293 168.837C208.293 168.763 208.293 168.763 208.293 168.689C208.293 168.689 208.293 168.689 208.293 168.763V168.689V168.615C208.293 168.54 208.293 168.466 208.293 168.466C208.293 168.392 208.293 168.318 208.293 168.17V168.096V168.022C208.367 167.874 208.441 167.8 208.441 167.725C208.515 167.651 208.515 167.577 208.589 167.503C208.589 167.503 208.737 167.355 208.737 167.281C208.811 167.207 208.885 167.133 208.885 167.133C208.959 167.059 209.033 166.985 209.107 166.91C209.181 166.836 209.255 166.762 209.329 166.688C209.329 166.688 209.329 166.688 209.403 166.614C209.625 166.466 209.772 166.392 209.994 166.318C209.994 166.318 210.068 166.318 210.068 166.244H210.142C210.216 166.244 210.29 166.17 210.142 166.244C210.216 166.244 210.364 166.17 210.364 166.17C210.438 166.17 210.586 166.095 210.66 166.095C210.808 166.095 210.882 166.095 211.03 166.095C211.03 166.095 211.178 166.095 211.252 166.095C211.326 166.095 211.4 166.17 211.474 166.17C211.548 166.17 211.696 166.244 211.77 166.318C211.843 166.392 211.991 166.466 212.065 166.54C212.065 166.54 212.139 166.54 212.139 166.614C212.213 166.688 212.213 166.688 212.287 166.762C212.361 166.836 212.435 166.91 212.435 166.985C212.435 166.985 212.435 166.985 212.509 167.059C212.583 167.207 212.731 167.355 212.805 167.577C212.805 167.651 212.879 167.725 212.879 167.8V167.874C212.953 168.022 212.953 168.244 213.027 168.466C213.027 168.54 213.027 168.615 213.027 168.689C213.027 168.763 213.027 168.763 213.027 168.837C213.027 168.689 213.027 168.911 213.027 169.059Z" fill="#2F82FF"/>
<path opacity="0.8" d="M20.0642 199.321C17.0316 197.321 13.9251 195.246 10.8925 193.246C10.4487 192.949 10.0049 192.949 9.63509 193.097C8.82147 193.097 8.22975 193.69 8.15579 194.505C7.41614 198.802 6.75045 203.1 6.0108 207.397C5.86287 208.509 7.26821 209.324 8.15579 208.805C12.0759 206.508 15.9961 204.211 19.9162 201.914C20.9517 201.322 21.0257 199.914 20.0642 199.321ZM10.7446 196.654C12.6677 197.913 14.5907 199.173 16.4399 200.433C14.073 201.766 11.7801 203.174 9.41319 204.508C9.93095 201.914 10.3747 199.321 10.7446 196.654Z" fill="#15C666"/>
<path opacity="0.8" d="M269.608 131.412C269.09 129.411 267.389 128.152 265.318 128.004C263.247 127.93 261.25 128.967 260.363 130.893C260.289 130.967 260.289 131.116 260.215 131.19C260.215 131.264 260.141 131.412 260.141 131.486C259.623 133.487 260.584 135.635 262.212 136.895C263.913 138.154 266.354 138.08 267.907 136.598C269.386 135.265 270.052 133.19 269.608 131.412ZM266.576 133.635V133.709C266.576 133.709 266.576 133.709 266.576 133.783C266.502 133.931 266.428 134.079 266.28 134.228L266.206 134.302C266.132 134.376 265.984 134.45 265.91 134.598C265.836 134.598 265.836 134.672 265.762 134.672C265.688 134.672 265.614 134.746 265.614 134.746C265.466 134.746 265.392 134.82 265.244 134.82C265.17 134.82 265.022 134.82 264.948 134.82C264.948 134.82 264.948 134.82 265.022 134.82C264.948 134.82 264.874 134.82 264.8 134.746C264.726 134.746 264.652 134.672 264.579 134.672C264.579 134.672 264.579 134.672 264.505 134.672C264.357 134.598 264.209 134.524 264.061 134.376L263.987 134.302C263.913 134.228 263.913 134.228 263.913 134.228C263.765 134.079 263.691 134.005 263.617 133.857C263.617 133.857 263.617 133.857 263.617 133.931C263.617 133.931 263.617 133.857 263.543 133.857C263.543 133.783 263.469 133.783 263.543 133.783C263.469 133.709 263.469 133.635 263.395 133.561C263.321 133.487 263.321 133.412 263.321 133.338C263.247 133.19 263.247 133.042 263.247 132.894V132.968C263.247 132.894 263.247 132.894 263.247 132.82C263.247 132.82 263.247 132.82 263.247 132.746C263.247 132.672 263.247 132.672 263.247 132.672C263.247 132.597 263.247 132.523 263.247 132.449C263.247 132.375 263.321 132.227 263.321 132.153C263.321 132.079 263.321 132.079 263.395 132.005C263.395 132.005 263.469 131.857 263.543 131.782L263.617 131.708C263.691 131.634 263.691 131.634 263.765 131.56C263.839 131.486 263.839 131.486 263.913 131.412C264.061 131.338 264.135 131.264 264.283 131.19C264.357 131.19 264.431 131.116 264.505 131.116C264.652 131.116 264.726 131.042 264.874 131.042C264.948 131.042 265.022 131.042 265.096 130.967H265.17H265.244C265.318 130.967 265.466 130.967 265.466 130.967C265.614 130.967 265.762 130.967 265.836 131.042C265.91 131.042 265.91 131.042 265.984 131.116C266.132 131.116 266.206 131.19 266.28 131.264C266.354 131.338 266.428 131.338 266.502 131.412C266.502 131.412 266.502 131.412 266.576 131.412L266.65 131.486C266.724 131.56 266.724 131.56 266.797 131.634C266.797 131.634 266.797 131.708 266.871 131.708C266.871 131.708 266.871 131.782 266.945 131.782C267.019 131.857 267.019 131.931 267.019 132.005V132.079C267.019 132.079 267.019 132.079 267.019 132.153C267.093 132.301 267.093 132.449 267.093 132.597C267.093 132.672 267.093 132.746 267.093 132.746C267.093 132.894 267.093 133.042 267.019 133.19C267.019 133.264 267.019 133.264 266.945 133.338C266.65 133.338 266.65 133.487 266.576 133.635Z" fill="#15C666"/>
<defs>
<filter id="filter0_d_66_216425" x="237.5" y="0.864136" width="159.289" height="159.294" filterUnits="userSpaceOnUse" color-interpolation-filters="sRGB">
<feFlood flood-opacity="0" result="BackgroundImageFix"/>
<feColorMatrix in="SourceAlpha" type="matrix" values="0 0 0 0 0 0 0 0 0 0 0 0 0 0 0 0 0 0 127 0" result="hardAlpha"/>
<feMorphology radius="8" operator="erode" in="SourceAlpha" result="effect1_dropShadow_66_216425"/>
<feOffset dy="8"/>
<feGaussianBlur stdDeviation="31"/>
<feComposite in2="hardAlpha" operator="out"/>
<feColorMatrix type="matrix" values="0 0 0 0 0.145098 0 0 0 0 0.145098 0 0 0 0 0.145098 0 0 0 0.16 0"/>
<feBlend mode="normal" in2="BackgroundImageFix" result="effect1_dropShadow_66_216425"/>
<feBlend mode="normal" in="SourceGraphic" in2="effect1_dropShadow_66_216425" result="shape"/>
</filter>
</defs>
</svg>
