<svg width="25" height="24" viewBox="0 0 25 24" fill="none" xmlns="http://www.w3.org/2000/svg">
<g clip-path="url(#clip0_363_55446)">
<path d="M16.1284 17.6287H8.87951C8.41726 17.6287 8.03906 18.0048 8.03906 18.4645C8.03906 18.9243 8.41726 19.3004 8.87951 19.3004H16.1284C16.5906 19.3004 16.9688 18.9243 16.9688 18.4645C16.9688 18.0048 16.5941 17.6287 16.1284 17.6287Z" fill="#194761"/>
<path d="M18.7985 4.73826L18.788 4.73478H18.7214C18.6059 4.71388 18.4833 4.70343 18.3608 4.70343H15.3842L15.3877 4.69995H6.64704C6.51747 4.69995 6.39141 4.7104 6.26884 4.73478H6.25484H6.20581C5.2463 4.9333 4.54593 5.75873 4.50391 6.74089V6.76178C4.50391 6.78268 4.50391 6.80358 4.50391 6.82447V14.3195C4.50391 14.3404 4.50391 14.3613 4.50391 14.3822V14.4031C4.54593 15.3853 5.2463 16.2072 6.20581 16.4057H6.21631H6.26884C6.39141 16.4266 6.51747 16.4406 6.64704 16.4406H15.3842L15.3807 16.4371H18.3573C18.4798 16.4371 18.5989 16.4266 18.7179 16.4057H18.7285H18.7845L18.7915 16.4022C19.786 16.1968 20.5039 15.3191 20.5039 14.316V6.82099C20.5074 5.81794 19.7895 4.94375 18.7985 4.73826Z" fill="#194761"/>
<path d="M14.0269 10.0002L11.6492 8.66624C11.5441 8.60703 11.4285 8.57568 11.313 8.57568C11.1939 8.57568 11.0784 8.60703 10.9733 8.66624C10.7667 8.78117 10.6406 9.00059 10.6406 9.23394V11.9053C10.6406 12.1386 10.7667 12.3545 10.9698 12.473C11.0784 12.5357 11.1974 12.567 11.313 12.567C11.4285 12.567 11.5441 12.5357 11.6457 12.4799L14.0234 11.146C14.1775 11.0624 14.2896 10.9196 14.3386 10.7524C14.3876 10.5853 14.3666 10.4042 14.2826 10.2544C14.223 10.1464 14.1355 10.0594 14.0269 10.0002Z" fill="white"/>
</g>
<defs>
<clipPath id="clip0_363_55446">
<rect width="16" height="16" fill="white" transform="translate(4.5 4)"/>
</clipPath>
</defs>
</svg>
