<svg width="41" height="40" viewBox="0 0 41 40" fill="none" xmlns="http://www.w3.org/2000/svg">
<rect x="0.648438" width="40" height="40" rx="8" fill="#FFBE17"/>
<path d="M9.39844 20C9.39844 22.442 9.53092 24.319 9.85401 25.7728C10.174 27.2124 10.6639 28.1592 11.3266 28.8219C11.9892 29.4845 12.9361 29.9745 14.3757 30.2944C15.8295 30.6175 17.7065 30.75 20.1484 30.75C22.5904 30.75 24.4674 30.6175 25.9212 30.2944C27.3608 29.9745 28.3077 29.4845 28.9703 28.8219C29.6329 28.1592 30.1229 27.2124 30.4429 25.7728C30.766 24.319 30.8984 22.442 30.8984 20C30.8984 17.558 30.766 15.681 30.4429 14.2272C30.1229 12.7876 29.6329 11.8408 28.9703 11.1781C28.3077 10.5155 27.3608 10.0255 25.9212 9.70557C24.4674 9.38248 22.5904 9.25 20.1484 9.25C17.7065 9.25 15.8295 9.38248 14.3757 9.70557C12.9361 10.0255 11.9892 10.5155 11.3266 11.1781C10.6639 11.8408 10.174 12.7876 9.85401 14.2272C9.53092 15.681 9.39844 17.558 9.39844 20Z" stroke="white" stroke-width="2.5" stroke-linecap="round" stroke-linejoin="round"/>
<path d="M21.9945 20C23.0714 20 24.1482 19 24.1482 17.5C24.1482 16 23.0714 15 21.9945 15C20.9176 15 19.3022 15 18.2253 15C17.1485 15 17.1484 15 17.1485 16C17.1485 17 17.1485 20 17.1485 20M21.9945 20C20.9176 20 18.2253 20 18.2253 20H17.1485M21.9945 20C23.0714 20 24.1305 21 24.1482 22.5C24.166 24 23.0713 25 21.9945 25C20.9176 25 19.3022 25 18.2253 25C17.1485 25 17.1485 25 17.1485 24C17.1484 23 17.1485 20 17.1485 20" stroke="white" stroke-width="2.5" stroke-linecap="round" stroke-linejoin="round"/>
</svg>
