<svg width="842" height="819" viewBox="0 0 842 819" fill="none" xmlns="http://www.w3.org/2000/svg">
<g opacity="0.48">
<path d="M956.871 214.758V652.815C881.222 630.823 779.569 616.359 668.755 607.946V214.758H956.871Z" fill="#F9F9F9" stroke="#DDDDDD" stroke-miterlimit="10" stroke-linecap="round" stroke-linejoin="round"/>
<path d="M817.393 404.416C817.393 403.973 817.393 329.881 817.393 329.881L798.629 331.062V407.663" stroke="#EDEDED" stroke-miterlimit="10" stroke-linecap="round" stroke-linejoin="round"/>
<path d="M778.092 412.681V336.523L798.629 335.785" stroke="#EDEDED" stroke-miterlimit="10" stroke-linecap="round" stroke-linejoin="round"/>
<path d="M762.282 412.681L761.248 344.198H778.092V412.681" fill="#EDEDED"/>
<path d="M762.282 412.681L761.248 344.198H778.092V412.681" stroke="#DDDDDD" stroke-miterlimit="10" stroke-linecap="round" stroke-linejoin="round"/>
<path d="M688.554 412.681L668.607 345.969L683.974 342.427" stroke="#DDDDDD" stroke-width="0.75" stroke-miterlimit="10" stroke-linecap="round" stroke-linejoin="round"/>
<path d="M704.363 412.386C704.216 412.681 681.757 334.752 681.757 334.752L699.931 333.423L724.014 412.681" fill="#EDEDED"/>
<path d="M704.363 412.386C704.216 412.681 681.757 334.752 681.757 334.752L699.931 333.423L724.014 412.681" stroke="#DDDDDD" stroke-miterlimit="10" stroke-linecap="round" stroke-linejoin="round"/>
<path d="M706.136 354.086L729.186 351.429L755.485 412.681" stroke="#DDDDDD" stroke-width="0.75" stroke-miterlimit="10" stroke-linecap="round" stroke-linejoin="round"/>
<path d="M774.102 301.543C774.25 301.543 794.049 227.304 794.049 227.304L807.199 229.222L788.582 301.543" fill="#DDDDDD"/>
<path d="M774.102 301.543C774.25 301.543 794.049 227.304 794.049 227.304L807.199 229.222L788.582 301.543" stroke="#DDDDDD" stroke-miterlimit="10"/>
<path d="M810.301 299.772L809.71 222.138H833.055L832.021 296.968" fill="#F9F9F9"/>
<path d="M810.301 299.772L809.71 222.138H833.055L832.021 296.968" stroke="#DDDDDD" stroke-width="0.75" stroke-miterlimit="10" stroke-linecap="round" stroke-linejoin="round"/>
<path d="M833.055 227.304H859.946L858.173 297.706" fill="#F9F9F9"/>
<path d="M833.055 227.304H859.946L858.173 297.706" stroke="#DDDDDD" stroke-width="0.75" stroke-miterlimit="10" stroke-linecap="round" stroke-linejoin="round"/>
<path d="M752.826 281.47H763.759V301.543" stroke="#EDEDED" stroke-miterlimit="10" stroke-linecap="round" stroke-linejoin="round"/>
<path d="M686.337 282.946L686.928 301.543" stroke="#EDEDED" stroke-miterlimit="10" stroke-linecap="round" stroke-linejoin="round"/>
<path d="M766.714 256.232H686.928V268.925H766.714V256.232Z" stroke="#EDEDED" stroke-miterlimit="10" stroke-linecap="round" stroke-linejoin="round"/>
<path d="M686.928 268.925H676.733V283.094L752.826 281.47V268.925" fill="#EDEDED"/>
<path d="M686.928 268.925H676.733V283.094L752.826 281.47V268.925" stroke="#DDDDDD" stroke-miterlimit="10" stroke-linecap="round" stroke-linejoin="round"/>
<path d="M956.724 301.543H668.607V321.025H956.724V301.543Z" stroke="#DDDDDD" stroke-miterlimit="10" stroke-linecap="round" stroke-linejoin="round"/>
<path d="M956.724 412.681H668.607V432.163H956.724V412.681Z" stroke="#DDDDDD" stroke-miterlimit="10" stroke-linecap="round" stroke-linejoin="round"/>
<path d="M978 189.077V659.309C971.203 657.095 964.111 654.881 956.871 652.667C881.222 630.676 779.569 616.212 668.755 607.799C661.663 607.208 654.719 606.766 647.626 606.175V189.077H978Z" stroke="#DDDDDD" stroke-width="2" stroke-miterlimit="10" stroke-linecap="round" stroke-linejoin="round"/>
<path d="M402.648 104.802V598.206C288.14 597.025 175.701 600.42 81.5825 606.766V104.802H402.648Z" fill="#F9F9F9" stroke="#DDDDDD" stroke-miterlimit="10" stroke-linecap="round" stroke-linejoin="round"/>
<path d="M300.108 568.097L324.635 493.71L338.671 495.038L317.247 567.949" stroke="#EDEDED" stroke-miterlimit="10" stroke-linecap="round" stroke-linejoin="round"/>
<path d="M336.455 567.949L361.277 477.327H343.99L338.671 495.038" stroke="#EDEDED" stroke-miterlimit="10" stroke-linecap="round" stroke-linejoin="round"/>
<path d="M353.447 567.949L371.62 491.643L357.584 490.758L336.455 567.949" fill="#EDEDED"/>
<path d="M353.447 567.949L371.62 491.643L357.584 490.758L336.455 567.949" stroke="#DDDDDD" stroke-miterlimit="10" stroke-linecap="round" stroke-linejoin="round"/>
<path d="M402.647 474.965C402.647 475.261 374.87 474.965 374.87 474.965L375.904 567.211" stroke="#EDEDED" stroke-miterlimit="10" stroke-linecap="round" stroke-linejoin="round"/>
<path d="M290.356 372.535H311.484L328.328 443.675H309.416" fill="#EDEDED"/>
<path d="M290.356 372.535H311.484L328.328 443.675H309.416" stroke="#DDDDDD" stroke-miterlimit="10" stroke-linecap="round" stroke-linejoin="round"/>
<path d="M345.32 365.156H328.476C328.476 365.156 329.806 443.823 331.283 443.823H347.536" fill="#F9F9F9"/>
<path d="M345.32 365.156H328.476C328.476 365.156 329.806 443.823 331.283 443.823H347.536" stroke="#DDDDDD" stroke-miterlimit="10" stroke-linecap="round" stroke-linejoin="round"/>
<path d="M347.536 443.675C346.502 442.494 345.32 351.725 345.32 351.725H365.562V443.675" fill="#F9F9F9"/>
<path d="M347.536 443.675C346.502 442.494 345.32 351.725 345.32 351.725H365.562V443.675" stroke="#DDDDDD" stroke-miterlimit="10" stroke-linecap="round" stroke-linejoin="round"/>
<path d="M379.893 443.675L400.726 366.779L385.951 361.761C385.951 361.761 365.562 431.72 365.562 432.31V443.823" fill="#EDEDED"/>
<path d="M379.893 443.675L400.726 366.779L385.951 361.761C385.951 361.761 365.562 431.72 365.562 432.31V443.823" stroke="#DDDDDD" stroke-miterlimit="10" stroke-linecap="round" stroke-linejoin="round"/>
<path d="M293.459 443.675L271.296 362.942L287.696 360.285L309.416 443.675" fill="#F9F9F9"/>
<path d="M293.459 443.675L271.296 362.942L287.696 360.285L309.416 443.675" stroke="#DDDDDD" stroke-miterlimit="10" stroke-linecap="round" stroke-linejoin="round"/>
<path d="M200.523 405.153L193.726 404.711V412.238" stroke="#EDEDED" stroke-miterlimit="10" stroke-linecap="round" stroke-linejoin="round"/>
<path d="M269.227 408.548L268.636 420.503" stroke="#EDEDED" stroke-miterlimit="10" stroke-linecap="round" stroke-linejoin="round"/>
<path d="M204.364 389.804L202.591 376.077H269.966V389.804" stroke="#EDEDED" stroke-miterlimit="10" stroke-linecap="round" stroke-linejoin="round"/>
<path d="M200.522 405.154L199.34 389.804H274.989L275.876 408.696L200.522 405.154Z" fill="#DDDDDD" stroke="#DDDDDD" stroke-miterlimit="10"/>
<path d="M199.34 418.585L272.773 420.503V443.675" stroke="#EDEDED" stroke-miterlimit="10" stroke-linecap="round" stroke-linejoin="round"/>
<path d="M219.14 272.467H129.75V286.784H219.14V272.467Z" stroke="#DDDDDD" stroke-width="0.75" stroke-miterlimit="10" stroke-linecap="round" stroke-linejoin="round"/>
<path d="M215.003 319.254C215.742 320.583 215.003 299.329 215.003 299.329L142.309 298.296V319.55" stroke="#DDDDDD" stroke-width="0.75" stroke-miterlimit="10" stroke-linecap="round" stroke-linejoin="round"/>
<path d="M210.57 286.784V299.329" stroke="#DDDDDD" stroke-width="0.75" stroke-miterlimit="10" stroke-linecap="round" stroke-linejoin="round"/>
<path d="M227.414 319.549L230.517 221.4L253.418 222.728L251.498 319.549" fill="#EDEDED"/>
<path d="M227.414 319.549L230.517 221.4L253.418 222.728L251.498 319.549" stroke="#DDDDDD" stroke-miterlimit="10" stroke-linecap="round" stroke-linejoin="round"/>
<path d="M253.271 228.337H272.478L270.705 319.549" stroke="#DDDDDD" stroke-width="0.75" stroke-miterlimit="10" stroke-linecap="round" stroke-linejoin="round"/>
<path d="M147.333 287.817L148.071 298.443" stroke="#DDDDDD" stroke-width="0.75" stroke-miterlimit="10" stroke-linecap="round" stroke-linejoin="round"/>
<path d="M81.5825 237.783H102.268L105.962 319.549" stroke="#EDEDED" stroke-miterlimit="10" stroke-linecap="round" stroke-linejoin="round"/>
<path d="M123.249 319.254L120.737 244.277L102.563 243.391" stroke="#EDEDED" stroke-miterlimit="10" stroke-linecap="round" stroke-linejoin="round"/>
<path d="M272.478 319.549L292.868 235.273L314.292 240.144" stroke="#EDEDED" stroke-miterlimit="10" stroke-linecap="round" stroke-linejoin="round"/>
<path d="M292.572 319.549L317.247 228.337L338.523 236.75L316.656 319.549" stroke="#EDEDED" stroke-miterlimit="10" stroke-linecap="round" stroke-linejoin="round"/>
<path d="M368.369 319.549L367.039 221.4L338.523 220.367V319.549" stroke="#EDEDED" stroke-miterlimit="10" stroke-linecap="round" stroke-linejoin="round"/>
<path d="M392.748 319.549L391.27 229.37H367.039L369.255 319.549" fill="#EDEDED"/>
<path d="M392.748 319.549L391.27 229.37H367.039L369.255 319.549" stroke="#DDDDDD" stroke-miterlimit="10" stroke-linecap="round" stroke-linejoin="round"/>
<path d="M402.648 319.55H81.5825V339.032H402.648V319.55Z" stroke="#DDDDDD" stroke-miterlimit="10" stroke-linecap="round" stroke-linejoin="round"/>
<path d="M402.648 443.675H81.5825V463.158H402.648V443.675Z" stroke="#DDDDDD" stroke-miterlimit="10" stroke-linecap="round" stroke-linejoin="round"/>
<path d="M402.648 567.949H81.5825V587.431H402.648V567.949Z" stroke="#DDDDDD" stroke-width="2" stroke-miterlimit="10" stroke-linecap="round" stroke-linejoin="round"/>
<path d="M420.23 79.858V598.501C414.32 598.353 408.558 598.353 402.648 598.205C288.14 597.025 175.701 600.419 81.5825 606.766C75.6724 607.209 69.7623 607.504 64 607.947V79.858H420.23Z" stroke="#DDDDDD" stroke-width="2" stroke-miterlimit="10" stroke-linecap="round" stroke-linejoin="round"/>
<path d="M280.752 114.838L277.501 125.169L255.043 195.276H241.302L268.045 111.443L280.752 114.838Z" stroke="#DDDDDD" stroke-width="0.75" stroke-miterlimit="10" stroke-linecap="round" stroke-linejoin="round"/>
<path d="M277.501 125.169L296.561 130.188L276.763 195.276" stroke="#DDDDDD" stroke-width="0.75" stroke-miterlimit="10" stroke-linecap="round" stroke-linejoin="round"/>
<path d="M297.152 104.802L295.379 195.276" stroke="#DDDDDD" stroke-width="0.75" stroke-miterlimit="10" stroke-linecap="round" stroke-linejoin="round"/>
<path d="M304.097 112.034H323.6" stroke="#DDDDDD" stroke-width="0.75" stroke-miterlimit="10" stroke-linecap="round" stroke-linejoin="round"/>
<path d="M329.214 104.802V195.276" stroke="#DDDDDD" stroke-width="0.75" stroke-miterlimit="10" stroke-linecap="round" stroke-linejoin="round"/>
<path d="M329.214 152.622L342.217 195.277" stroke="#DDDDDD" stroke-width="0.75" stroke-miterlimit="10" stroke-linecap="round" stroke-linejoin="round"/>
<path d="M354.037 195.276L367.039 189.815L340.739 121.775L329.214 125.17" stroke="#DDDDDD" stroke-width="0.75" stroke-miterlimit="10" stroke-linecap="round" stroke-linejoin="round"/>
<path d="M364.675 190.849L366.3 195.276H371.915L381.518 190.406L364.379 131.811L346.354 136.387" stroke="#DDDDDD" stroke-width="0.75" stroke-miterlimit="10" stroke-linecap="round" stroke-linejoin="round"/>
<path d="M402.648 195.276H81.5825V214.759H402.648V195.276Z" stroke="#DDDDDD" stroke-miterlimit="10" stroke-linecap="round" stroke-linejoin="round"/>
<path d="M116.747 195.276H101.825L81.5825 130.188L97.6875 125.17L116.895 186.716" stroke="#EDEDED" stroke-miterlimit="10" stroke-linecap="round" stroke-linejoin="round"/>
<path d="M137.285 195.276H116.748L116.895 186.716L118.225 113.362H135.808L136.251 136.092L137.285 195.276Z" stroke="#EDEDED" stroke-miterlimit="10" stroke-linecap="round" stroke-linejoin="round"/>
<path d="M179.395 195.277H155.902L154.868 131.073L154.572 112.182L175.258 111.591C175.258 111.591 175.405 115.429 175.701 121.48C176.587 139.781 178.508 178.451 179.395 195.277Z" stroke="#EDEDED" stroke-miterlimit="10" stroke-linecap="round" stroke-linejoin="round"/>
<path d="M137.285 195.277L136.251 136.092L136.103 126.646L154.868 131.074L155.902 195.277H137.285Z" fill="#EDEDED" stroke="#DDDDDD" stroke-miterlimit="10" stroke-linecap="round" stroke-linejoin="round"/>
<path d="M179.394 195.277H199.784L198.011 125.17V121.48H175.701L179.394 195.277Z" fill="#EDEDED" stroke="#DDDDDD" stroke-miterlimit="10" stroke-linecap="round" stroke-linejoin="round"/>
<path d="M198.011 125.17H220.617L221.208 195.276H199.784" stroke="#EDEDED" stroke-miterlimit="10" stroke-linecap="round" stroke-linejoin="round"/>
<path d="M757.737 150.829C786.04 145.061 804.304 117.465 798.529 89.1925C792.755 60.9196 765.129 42.676 736.826 48.4443C708.522 54.2126 690.259 81.8084 696.034 110.081C701.808 138.354 729.434 156.598 757.737 150.829Z" stroke="#EDEDED" stroke-width="2" stroke-miterlimit="10" stroke-linecap="round" stroke-linejoin="round"/>
<path d="M772.565 114.395L753.505 100.669C753.505 100.373 753.653 100.078 753.653 99.783C753.653 97.4215 752.323 95.3552 750.254 94.322C749.959 87.2376 749.368 74.1018 748.777 61.9991C748.629 59.49 746.265 59.49 746.117 61.9991L744.64 94.1744C742.571 95.2076 741.094 97.2739 741.094 99.783C741.094 103.178 743.901 105.982 747.299 105.982C748.629 105.982 749.959 105.539 750.993 104.801C756.903 108.343 764.143 112.624 771.235 116.609C773.304 117.789 774.633 115.871 772.565 114.395Z" fill="#DDDDDD" stroke="#DDDDDD" stroke-miterlimit="10"/>
</g>
<path d="M288.668 511.059C291.64 510.538 293.728 508.109 294.772 505.245C296.138 501.427 295.495 497.261 294.772 493.356C293.407 486.327 291.479 478.517 295.576 472.009C298.467 467.41 303.126 464.72 307.142 461.422C308.909 459.947 310.676 458.298 311.881 456.302C313.648 453.352 313.648 449.967 313.086 446.67C311.72 437.732 307.945 429.141 309.712 419.942C310.114 417.86 313.005 418.727 312.604 420.81C311.078 429.141 314.612 437.298 315.897 445.368C316.54 449.013 316.7 452.831 315.335 456.302C314.371 458.732 312.684 460.728 310.837 462.463C306.981 466.021 302.162 468.538 298.869 472.79C293.969 479.212 297.021 487.629 298.146 494.832C298.789 499.171 298.949 503.596 297.182 507.588C295.736 510.886 293.005 513.662 289.552 514.27C287.544 514.53 286.74 511.406 288.668 511.059Z" fill="#335B71"/>
<path d="M290.274 554.795C296.7 560.956 305.054 564.08 313.327 565.99C333.407 570.676 354.05 569.721 374.05 564.688C391.72 560.262 409.231 554.188 425.616 545.684C433.568 541.518 441.198 536.745 448.267 531.105C451.801 528.328 455.174 525.291 458.387 522.167C459.994 520.518 461.6 518.869 463.126 517.22C464.411 515.745 465.857 514.183 466.419 512.274C472.845 507.588 476.379 498.823 474.291 490.406C473.166 485.98 470.757 482.075 467.464 479.298C464.492 476.869 460.797 475.654 458.146 472.877C456.781 471.402 456.138 469.753 456.379 467.67C456.7 465.067 457.504 462.724 457.343 460.034C457.022 455.521 454.773 451.443 451.881 448.319C448.829 445.021 445.054 442.852 441.118 441.029C437.423 439.294 433.407 437.645 430.516 434.348C427.383 430.79 427.142 425.843 427.142 421.157C426.982 400.244 419.753 379.417 402.403 368.483C392.925 362.496 381.6 360.239 370.757 362.062C359.431 363.971 348.106 365.359 337.584 370.653C330.194 374.384 323.769 379.851 319.03 386.967C314.692 393.475 311.72 401.198 310.515 409.095C309.23 417.079 309.552 425.409 311.72 433.219C312.925 437.558 314.933 441.55 316.7 445.629C318.467 449.707 319.833 454.306 318.307 458.732C316.218 464.633 310.114 467.931 305.616 471.402C303.126 473.311 300.716 475.393 298.789 478.084C296.62 481.121 295.656 484.592 295.576 488.41C295.495 496.48 300.234 506.286 294.21 513.142C291.479 516.266 287.865 518.262 285.455 521.646C283.126 524.857 281.921 528.675 281.68 532.754C280.957 540.998 284.572 549.241 290.274 554.795Z" fill="#335B71"/>
<path d="M380.738 466.885C404.482 460.828 419.186 435.121 413.579 409.469C407.972 383.816 384.179 367.93 360.434 373.988C336.69 380.045 321.987 405.751 327.593 431.404C333.2 457.057 356.994 472.943 380.738 466.885Z" fill="#F6B399"/>
<path d="M361.68 460.728L362.965 473.398L363.287 476.695L364.973 493.009L390.194 494.311L386.901 462.29L361.68 460.728Z" fill="#F6B399"/>
<path d="M323.447 430.79C323.447 456.129 338.307 473.484 361.761 473.484C385.214 473.484 408.267 456.129 408.267 430.79C408.267 405.45 389.311 384.971 365.857 384.971C342.403 384.971 323.447 405.537 323.447 430.79Z" fill="#F6B399"/>
<path d="M335.977 427.405C337.751 427.405 339.19 425.851 339.19 423.934C339.19 422.017 337.751 420.463 335.977 420.463C334.203 420.463 332.764 422.017 332.764 423.934C332.764 425.851 334.203 427.405 335.977 427.405Z" fill="#335B71"/>
<path d="M324.491 415.083C325.375 416.732 327.463 416.211 328.909 416.124C330.516 416.037 332.122 416.037 333.728 415.951C335.094 415.864 336.62 415.69 337.905 416.298C338.789 416.732 339.512 417.165 340.315 417.513C340.797 417.686 341.198 417.86 341.761 417.86C342.483 417.946 343.046 417.252 343.206 416.558C343.206 416.471 343.287 416.384 343.287 416.298C343.528 415.864 343.528 415.343 343.206 414.822C341.68 412.046 339.351 410.05 336.62 408.835C334.13 407.707 331.078 407.36 328.507 408.488C327.222 409.008 326.098 409.876 325.295 411.091C324.572 412.046 323.849 413.868 324.491 415.083Z" fill="#335B71"/>
<path d="M171.559 622.916C172.122 626.474 172.925 629.945 173.969 633.329C174.852 636.193 175.656 639.751 178.547 640.966C179.913 641.573 181.439 641.573 182.885 641.92C184.411 642.267 186.017 642.788 187.463 643.309C190.595 644.437 193.648 645.738 196.7 646.867C203.045 649.123 209.632 650.338 216.298 650.945C229.792 652.16 243.367 650.945 256.861 651.466C260.154 651.553 263.447 651.813 266.74 652.247C269.712 652.594 272.684 653.288 275.656 653.722C280.877 654.59 286.821 654.85 290.917 650.598C293.166 648.342 294.21 645.131 295.335 642.094C296.539 638.623 297.664 635.065 298.708 631.507C300.716 624.391 302.242 617.102 303.286 609.726C303.286 609.465 303.286 609.292 303.286 609.118C304.09 607.122 304.813 605.213 305.294 603.13C306.098 599.92 306.258 596.449 305.455 593.238C304.652 590.114 303.126 587.337 301.359 584.82C297.584 579.527 293.086 574.581 288.668 569.895C284.17 565.122 279.27 560.696 273.728 557.399C268.347 554.188 262.403 552.018 256.379 550.803C243.849 548.2 230.676 548.634 218.065 549.936C211.318 550.63 204.491 551.845 198.146 554.535C192.041 557.051 186.338 560.609 180.877 564.428C178.467 566.076 175.736 567.725 174.049 570.415C172.282 573.192 172.041 576.663 171.72 579.874C170.997 587.077 170.354 594.366 170.194 601.655C170.113 608.598 170.435 615.8 171.559 622.916Z" fill="#2F82FF"/>
<path d="M246.901 531.973C246.901 552.452 258.788 569.894 275.576 576.663C275.736 591.762 282.403 605.213 292.604 613.804L293.246 664.656H472.925L467.704 578.572C478.628 576.056 488.026 569.113 494.291 559.655C495.415 558.006 496.46 556.184 497.343 554.361C500.636 547.679 502.484 540.043 502.484 531.973C502.484 530.497 502.403 529.022 502.323 527.547C501.761 521.472 500.235 515.658 497.745 510.452C497.263 509.41 496.781 508.369 496.219 507.414V507.328C496.219 507.328 496.219 507.328 496.219 507.241C495.897 506.72 495.576 506.113 495.255 505.592C488.668 494.918 478.307 487.195 466.178 484.852C463.608 487.889 459.592 491.794 453.407 496.307C438.307 507.241 411.72 521.386 358.387 520.431C319.431 519.737 297.021 496.654 287.784 484.245C287.704 484.245 287.624 484.245 287.544 484.245H287.383C264.732 486.414 246.901 506.981 246.901 531.973Z" fill="#2F82FF"/>
<path d="M285.856 544.295C287.704 541.084 289.792 538.047 291.961 535.01C292.443 534.402 292.925 533.968 292.684 533.101C292.362 532.233 291.64 531.452 291.238 530.671C290.033 528.762 288.909 526.853 287.704 524.944C286.66 523.208 289.23 521.559 290.274 523.295C291.238 524.944 292.282 526.506 293.246 528.154C294.13 529.543 295.334 531.018 295.736 532.667C296.138 534.142 295.575 535.357 294.772 536.572C293.808 537.96 292.764 539.435 291.8 540.824C288.266 546.204 284.893 551.931 282.724 558.179C280.555 564.341 279.431 570.849 280.073 577.357C280.716 583.605 283.045 589.506 286.017 594.8C289.551 600.961 294.049 606.341 298.869 611.287C299.591 611.982 299.431 612.849 298.869 613.457C301.037 628.99 302.081 644.61 302.001 660.317C302.001 662.226 298.949 662.226 298.949 660.317C299.029 644.784 297.985 629.164 295.897 613.717C295.816 613.37 295.897 613.11 295.977 612.849C287.784 604.345 280.234 594.019 277.664 581.87C274.933 568.419 279.35 555.403 285.856 544.295Z" fill="white"/>
<path d="M363.929 426.972C365.704 426.972 367.142 425.417 367.142 423.5C367.142 421.583 365.704 420.029 363.929 420.029C362.155 420.029 360.716 421.583 360.716 423.5C360.716 425.417 362.155 426.972 363.929 426.972Z" fill="#335B71"/>
<path d="M140.421 665H334.579C340.889 665 346 660.972 346 656C346 651.028 340.889 647 334.579 647H140.421C134.112 647 129 651.028 129 656C129 660.972 134.112 665 140.421 665Z" fill="#335B71"/>
<path d="M356.379 374.991C357.021 381.239 358.307 387.401 360.395 393.302C367.865 414.302 380.154 427.145 399.993 434.261C400.074 434.955 404.411 440.075 405.295 440.248C410.114 440.943 414.692 437.645 417.022 433.306C419.512 428.707 420.315 423.153 420.475 417.947C421.198 399.116 411.881 381.326 397.102 371.52C390.275 367.008 382.082 363.797 374.05 363.624C366.981 363.45 359.27 365.706 355.415 372.648C354.772 373.69 355.495 374.731 356.379 374.991Z" fill="#335B71"/>
<path d="M411.069 446.478C417.631 444.804 421.694 437.7 420.145 430.61C418.595 423.521 412.019 419.131 405.457 420.805C398.895 422.479 394.832 429.583 396.381 436.672C397.931 443.762 404.506 448.152 411.069 446.478Z" fill="#F6B399"/>
<path d="M356.861 411.872C356.379 413.347 357.022 414.909 358.467 415.43C359.833 415.864 361.519 415.343 362.805 414.996C364.25 414.649 365.696 414.215 367.222 413.955C370.034 413.521 373.005 414.041 375.576 415.343C376.62 415.864 378.307 414.996 377.825 413.521C377.263 412.046 376.299 411.004 375.014 410.223C374.692 409.963 374.371 409.789 373.969 409.529C373.728 409.355 373.487 409.269 373.327 409.095C373.166 409.008 373.005 408.922 372.845 408.835H372.764C372.202 408.488 371.64 408.227 371.078 407.967C368.106 406.579 364.893 406.231 361.76 407.012C361.439 407.099 361.118 407.273 360.957 407.533C360.315 407.793 359.752 408.054 359.19 408.488C358.146 409.355 357.262 410.484 356.861 411.872Z" fill="#335B71"/>
<path d="M326.901 438.773C318.869 438.773 312.282 431.657 312.282 422.98C312.282 414.302 318.869 407.186 326.901 407.186C334.933 407.186 341.519 414.302 341.519 422.98C341.519 431.657 335.013 438.773 326.901 438.773ZM326.901 410.484C320.475 410.484 315.334 416.124 315.334 422.98C315.334 429.835 320.555 435.476 326.901 435.476C333.326 435.476 338.467 429.835 338.467 422.98C338.467 416.124 333.326 410.484 326.901 410.484Z" fill="white"/>
<path d="M337.905 439.468C339.351 440.856 341.439 438.6 340.074 437.125C339.431 436.517 338.467 435.736 338.387 434.782C338.307 433.827 339.19 433.046 339.752 432.439C341.118 430.963 342.403 429.575 343.206 427.579C344.652 424.021 344.732 419.943 343.286 416.471C343.126 417.166 342.483 417.86 341.841 417.773C341.278 417.773 340.877 417.6 340.395 417.426C342.001 420.897 341.6 425.323 339.351 428.273C338.066 429.922 336.138 431.137 335.576 433.393C334.853 435.996 336.298 437.992 337.905 439.468Z" fill="#EE796A"/>
<path d="M338.708 443.459C338.949 442.678 339.752 442.071 340.556 442.331C345.054 443.98 350.114 442.331 353.086 438.339C353.568 437.645 354.692 437.732 355.254 438.339C355.897 439.034 355.736 439.988 355.254 440.682C351.72 445.542 345.214 447.538 339.833 445.542C339.029 445.195 338.467 444.414 338.708 443.459Z" fill="#EE796A"/>
<path d="M398.226 436.604C398.467 435.562 399.19 434.868 399.993 434.261C400.797 433.653 401.6 433.132 402.483 432.612L407.463 429.227C408.106 428.794 409.15 429.054 409.552 429.835C409.953 430.616 409.712 431.57 408.989 432.091C407.463 433.132 405.937 434.174 404.411 435.215C403.688 435.736 403.046 436.17 402.323 436.69C404.251 437.558 406.178 438.513 408.106 439.38C408.829 439.728 409.07 440.942 408.668 441.637C408.186 442.418 407.383 442.591 406.58 442.244C404.01 441.029 401.439 439.901 398.949 438.686C398.307 438.166 398.066 437.298 398.226 436.604Z" fill="#EE796A"/>
<path d="M303.045 484.331C306.66 488.236 311.319 492.662 316.298 496.046C327.945 503.943 353.246 517.133 402.082 507.328C430.756 501.513 444.732 491.968 451.56 484.418H303.045V484.331Z" fill="#F6B399"/>
<path d="M287.704 484.332C296.941 496.741 319.351 519.737 358.307 520.518C411.64 521.559 438.226 507.414 453.327 496.394C459.512 491.881 463.528 487.976 466.098 484.939C464.733 484.679 463.367 484.505 462.002 484.332H461.921C460.716 484.245 459.512 484.158 458.307 484.158H458.227C457.022 484.158 455.737 484.245 454.532 484.332H451.64C444.813 491.968 430.837 501.514 402.162 507.241C353.327 517.134 328.025 503.857 316.379 495.96C311.399 492.575 306.74 488.237 303.126 484.245H294.853C294.692 484.245 294.612 484.245 294.451 484.245C293.327 484.158 292.282 484.071 291.158 484.071C289.953 484.158 288.829 484.245 287.704 484.332Z" fill="white"/>
<path d="M378.065 572.324C382.403 575.622 388.106 578.052 393.407 577.444C393.487 577.444 393.648 577.444 393.728 577.444C400.796 576.403 408.186 572.411 411.479 565.122C415.254 556.704 411.479 548.287 409.712 539.956C408.909 536.051 408.427 531.539 410.194 527.807C411.8 524.336 415.013 522.167 417.825 519.824C420.555 517.481 423.206 514.704 424.25 511.059C425.535 506.633 423.688 502.295 422.242 498.216C418.949 489.018 418.788 482.77 420.314 473.137C422.162 461.335 416.298 449.534 405.134 446.496C396.7 444.24 391.399 452.137 389.069 459.86C387.704 464.199 387.061 468.712 386.901 473.311C386.82 475.307 386.74 477.563 387.061 479.559C387.463 481.815 389.551 484.071 389.712 486.154C390.194 491.274 389.551 495.352 386.981 499.865C383.849 505.332 379.511 509.324 379.752 516.266C379.832 518.609 380.395 520.778 380.796 523.034C381.118 525.03 381.278 527.287 379.832 528.849C376.298 532.667 372.684 534.836 370.355 539.956C364.812 551.845 368.186 564.688 378.065 572.324Z" fill="#335B71"/>
<path d="M302.403 561.564C306.419 570.068 314.853 572.758 322.082 570.502C329.07 568.333 335.415 561.304 337.262 552.279C338.387 546.812 337.343 541.432 336.299 536.138C335.335 531.279 334.451 525.725 336.7 521.212C338.226 518.175 340.877 516.353 343.286 514.791C345.937 513.055 348.588 511.493 350.837 509.063C353.487 506.287 355.013 502.382 355.013 497.956C355.013 495.266 354.612 492.576 354.13 489.972C353.568 486.935 353.005 483.898 352.443 480.861C352.042 478.691 349.552 479.299 349.471 481.295C349.311 480.947 349.07 480.687 348.909 480.34C344.331 473.398 336.941 469.146 329.712 469.84C326.098 470.187 322.162 471.836 320.716 476.435C319.19 481.121 323.768 485.373 321.359 489.712C318.949 494.138 312.523 499.952 309.07 502.642C294.451 513.749 305.294 530.671 305.134 536.051C305.053 538.741 303.608 540.737 302.483 542.82C301.519 544.642 300.716 546.638 300.475 548.808C299.833 553.233 300.555 557.833 302.403 561.564Z" fill="#335B71"/>
<path d="M555.014 530.497C555.415 535.183 556.219 540.737 558.95 544.555C561.761 548.46 566.339 548.634 570.516 547.593C576.701 545.944 583.207 542.299 586.821 536.485C587.062 536.398 587.383 536.138 587.544 535.791C591.881 526.853 591.56 514.877 584.733 507.414C579.351 501.427 570.355 498.997 563.287 502.902C559.11 505.245 557.504 510.712 556.379 515.224C555.094 520.171 554.612 525.377 555.014 530.497Z" fill="#F6B399"/>
<path d="M496.539 526.766C496.78 530.497 497.262 534.142 498.788 537.526C500.154 540.39 502.323 542.907 504.813 544.642C506.419 545.77 508.186 546.551 510.033 546.985C509.712 547.159 509.391 547.332 509.07 547.593C507.383 548.634 508.909 551.411 510.596 550.369C512.282 549.328 514.05 548.374 515.736 547.332C518.307 547.072 520.797 546.117 523.046 544.642C524.25 543.861 523.768 542.212 522.885 541.778C524.732 539.435 525.696 536.659 526.339 533.534C527.222 529.022 528.106 524.423 527.704 519.737C527.303 515.398 525.295 511.406 524.973 507.067C523.929 492.575 536.379 476.869 526.821 463.244C523.527 458.558 515.977 454.827 511.72 460.468C509.712 463.158 508.909 467.063 508.266 470.447C507.463 474.178 506.981 477.997 506.419 481.815C505.857 485.633 505.214 489.365 504.09 493.009C502.885 496.827 500.957 500.299 499.511 504.03C496.7 511.319 496.058 519.129 496.539 526.766Z" fill="#F6B399"/>
<path d="M444.411 543.167C444.411 543.167 457.584 626.994 462.242 655.371C463.206 661.185 463.769 664.656 463.849 664.656H530.516C530.516 664.656 526.66 649.817 519.913 615.627C517.584 603.912 514.933 589.94 511.881 573.453C508.026 552.192 504.893 537.526 502.403 527.46C500.475 519.563 498.949 514.53 497.825 511.233C497.182 509.41 496.7 508.196 496.299 507.328V507.241C496.299 507.241 496.299 507.241 496.299 507.154C495.737 506.026 495.415 505.592 495.335 505.505C495.335 505.419 495.255 505.419 495.255 505.419L444.411 543.167Z" fill="#2F82FF"/>
<path d="M497.985 622.829L562.644 601.829C560.154 590.634 557.664 579.7 555.656 570.936C559.27 568.506 562.885 565.99 566.499 563.473C567.062 563.213 567.704 563.039 568.266 562.866C570.917 561.998 573.648 561.304 576.299 560.523C582.001 558.874 587.624 557.225 593.327 555.403C603.367 552.279 613.407 548.808 623.126 544.469C625.134 543.601 627.222 542.82 628.588 540.911C629.793 539.262 630.275 537.093 630.114 535.01C629.712 530.324 626.339 527.2 622.483 525.464C617.905 523.468 612.925 523.468 608.186 524.597C603.206 525.811 598.307 527.46 593.487 529.109C587.624 531.018 581.841 533.188 576.218 535.704C576.138 534.663 576.058 533.621 575.897 532.58C575.254 527.373 574.291 522.254 573.568 517.134C572.925 512.187 572.122 507.328 570.756 502.555C568.427 494.571 563.849 485.894 556.299 483.29C547.704 480.34 539.511 486.241 532.523 491.187C525.455 496.22 518.307 501.253 511.801 507.241C510.756 508.196 509.792 509.15 508.748 510.105C504.973 506.634 502.483 504.377 502.483 504.377C502.483 504.377 497.343 502.208 496.379 533.795C495.897 551.584 496.941 591.676 497.985 622.829Z" fill="#F6B399"/>
<path d="M512.363 544.468C524.652 532.32 542.323 534.923 557.584 533.187C559.512 532.927 559.512 536.225 557.584 536.485C543.287 538.134 526.018 535.444 514.451 546.811C513.006 548.2 510.917 545.857 512.363 544.468Z" fill="#EE796A"/>
<path d="M522.082 536.225C520.395 537.179 518.869 534.402 520.556 533.448C527.062 529.89 528.829 521.646 529.471 514.443C529.552 513.576 530.114 512.795 530.997 512.795C531.72 512.795 532.604 513.576 532.524 514.443C531.72 522.687 529.552 532.059 522.082 536.225Z" fill="#EE796A"/>
<path d="M507.705 469.666C507.705 479.559 515.656 487.455 525.375 487.455V489.799C525.375 499.431 533.086 507.154 542.644 507.154H566.018C575.576 507.154 583.287 499.344 583.287 489.799V439.814H525.375V451.79C515.656 451.79 507.705 459.773 507.705 469.666ZM514.934 469.666C514.934 463.852 519.592 459.079 525.456 459.079V480.166C519.592 480.166 514.934 475.48 514.934 469.666Z" fill="#05537E"/>
<path d="M526.982 468.278C528.508 469.493 530.516 471.228 532.524 470.881C534.13 470.621 535.174 468.885 536.138 467.67C537.343 466.282 538.789 465.154 540.556 464.98C542.484 464.807 544.251 465.674 545.777 466.889C548.106 468.712 551.881 474.613 555.174 472.096C556.54 471.055 557.343 469.319 558.628 468.017C559.833 466.803 561.279 466.108 562.885 465.935C566.259 465.501 569.873 467.41 571.319 470.794C572.122 472.703 569.552 474.352 568.749 472.443C567.624 469.753 564.572 468.451 562.002 469.493C560.556 470.1 559.672 471.575 558.709 472.79C557.584 474.265 556.219 475.48 554.532 475.827C550.516 476.608 547.785 472.964 545.054 470.447C543.769 469.232 541.841 467.67 540.074 468.451C538.709 469.059 537.825 470.621 536.781 471.749C535.415 473.224 533.729 474.352 531.64 474.179C529.311 474.005 527.223 472.617 525.375 471.141C523.929 469.84 525.375 467.063 526.982 468.278Z" fill="white"/>
<path d="M461.35 412.7C463.037 415.39 466.169 416.432 469.061 415.651C471.792 414.87 474.362 412.44 474.764 409.316C474.844 408.882 474.764 408.448 474.603 408.101C474.764 407.841 474.844 407.58 474.844 407.233C474.603 405.411 473.88 403.675 472.595 402.374C471.471 401.245 469.945 400.378 468.338 400.031C465.366 399.51 462.314 400.812 460.949 403.762C459.663 406.626 459.663 410.184 461.35 412.7ZM463.037 408.361C463.037 408.101 463.037 407.841 463.037 407.493C463.037 407.493 463.037 407.32 463.037 407.233C463.037 407.146 463.037 406.973 463.117 406.886C463.198 406.626 463.198 406.365 463.278 406.105C463.358 405.931 463.358 405.845 463.438 405.671C463.358 405.931 463.438 405.671 463.519 405.584C463.599 405.324 463.76 405.064 463.92 404.89C463.92 404.803 464.001 404.803 464.001 404.717C464.081 404.63 464.161 404.543 464.242 404.456C464.322 404.369 464.402 404.283 464.563 404.109L464.643 404.022C464.884 403.849 465.045 403.675 465.286 403.588C465.366 403.588 465.366 403.502 465.447 403.502C465.527 403.502 465.688 403.415 465.768 403.415C465.928 403.328 466.089 403.328 466.25 403.328C466.25 403.328 466.41 403.328 466.491 403.328C466.571 403.328 466.732 403.328 466.732 403.328C466.812 403.328 466.973 403.328 467.053 403.328C467.214 403.328 467.294 403.328 467.455 403.328C467.535 403.328 467.535 403.328 467.535 403.328C467.535 403.328 467.535 403.328 467.615 403.328C467.856 403.415 468.097 403.415 468.418 403.502C468.579 403.588 468.659 403.588 468.82 403.675C468.9 403.675 468.9 403.675 468.981 403.762C469.222 403.936 469.463 404.022 469.704 404.196C469.864 404.283 469.945 404.369 470.025 404.456L470.105 404.543C470.266 404.717 470.507 404.89 470.667 405.064C470.748 405.15 470.908 405.324 470.989 405.411C470.989 405.411 470.989 405.411 470.989 405.498C471.149 405.758 471.31 405.931 471.39 406.192C471.39 406.279 471.471 406.365 471.471 406.365C471.471 406.452 471.551 406.626 471.551 406.712C471.631 406.886 471.631 406.973 471.631 407.146C471.631 407.32 471.712 407.493 471.631 407.233C471.631 407.493 471.712 407.754 471.872 407.927C471.792 408.101 471.712 408.188 471.712 408.361C471.631 408.708 471.551 409.055 471.471 409.403C471.471 409.489 471.471 409.489 471.39 409.576C471.31 409.75 471.23 409.836 471.149 410.01C471.069 410.097 470.989 410.27 470.908 410.357C470.908 410.357 470.828 410.444 470.828 410.531C470.587 410.791 470.426 411.051 470.186 411.225C470.105 411.312 470.105 411.312 470.025 411.398C469.945 411.485 469.784 411.572 469.704 411.659C469.463 411.832 469.222 412.006 468.9 412.093C468.9 412.093 468.82 412.093 468.82 412.179H468.74C468.579 412.266 468.499 412.266 468.338 412.353C468.017 412.44 467.776 412.527 467.455 412.527C467.374 412.527 467.294 412.527 467.214 412.527C467.133 412.527 466.973 412.527 466.892 412.527C466.651 412.527 466.41 412.527 466.25 412.527C466.169 412.527 466.089 412.527 466.009 412.44C465.848 412.44 465.768 412.353 465.607 412.353C465.527 412.353 465.366 412.266 465.286 412.266C465.607 412.353 465.286 412.266 465.125 412.179C464.965 412.093 464.884 412.006 464.724 411.919C464.724 411.919 464.563 411.832 464.483 411.746C464.402 411.659 464.322 411.659 464.322 411.572C464.242 411.485 464.161 411.398 464.001 411.225L463.84 411.051C463.84 410.965 463.76 410.878 463.679 410.878C463.519 410.617 463.439 410.444 463.278 410.184C463.278 410.184 463.198 410.097 463.198 410.01C463.117 409.836 463.117 409.75 463.117 409.663C463.037 409.403 462.957 409.142 462.957 408.882C462.957 408.795 462.957 408.708 462.957 408.708C463.117 408.622 463.037 408.535 463.037 408.361Z" fill="#895EF9"/>
<path d="M136.51 488.85C138.561 489.024 140.701 489.198 142.752 489.198C143.733 489.198 144.803 489.198 145.784 489.198C146.765 489.111 147.745 488.937 148.37 488.24C149.35 487.282 149.261 486.063 148.726 484.931C148.28 483.973 147.745 483.102 147.3 482.231C146.319 480.402 145.427 478.573 144.446 476.744C144.179 476.134 143.465 475.873 142.841 475.96C142.663 475.525 142.217 475.089 141.771 475.002C140.88 474.741 140.077 475.35 139.72 476.134C138.383 479.618 136.778 483.102 135.084 486.411C134.459 487.543 135.262 488.763 136.51 488.85ZM141.86 485.889C140.88 485.889 139.988 485.801 139.096 485.801C140.166 483.624 141.147 481.447 142.039 479.182C142.752 480.489 143.376 481.795 144.09 483.102C144.535 483.885 144.892 484.669 145.338 485.453C145.338 485.453 145.516 485.714 145.605 485.976C145.249 485.976 144.981 485.976 144.625 485.976C143.644 485.976 142.752 485.976 141.86 485.889Z" fill="#2F82FF"/>
<path d="M425.593 339.852C427.2 342.282 430.011 343.41 432.662 342.368C434.188 341.761 435.473 340.633 436.437 339.244C436.758 339.158 437.079 338.897 437.24 338.55C437.481 337.943 437.642 337.335 437.642 336.728C437.722 336.554 437.802 336.294 437.802 336.12C437.963 335.339 437.642 334.558 436.999 334.211C436.116 332.649 434.509 331.348 432.822 330.914C430.573 330.306 428.083 330.653 426.236 332.389C424.228 334.211 424.067 337.596 425.593 339.852ZM427.521 336.207V336.12C427.521 336.034 427.521 335.947 427.601 335.86C427.601 335.773 427.682 335.513 427.682 335.513V335.426C427.682 335.339 427.923 335.079 427.923 335.079C428.003 334.992 428.083 334.905 428.164 334.732L428.244 334.645C428.244 334.645 428.244 334.645 428.324 334.558C428.324 334.558 428.324 334.558 428.405 334.472C428.405 334.472 428.405 334.472 428.324 334.472C428.565 334.298 428.726 334.211 428.887 334.124C428.967 334.038 429.047 334.038 429.208 334.038C429.369 333.951 429.529 333.951 429.69 333.864C429.77 333.864 430.332 333.777 429.931 333.777C430.332 333.777 430.814 333.777 431.216 333.777H431.296H431.216H431.296C431.377 333.777 431.377 333.777 431.296 333.777C431.377 333.777 431.377 333.777 431.457 333.777C431.698 333.777 431.859 333.864 432.019 333.951C432.099 333.951 432.26 334.038 432.34 334.038C432.501 334.124 432.662 334.211 432.822 334.298C432.903 334.385 433.063 334.472 433.144 334.558C433.144 334.558 433.224 334.558 433.224 334.645C433.385 334.819 433.545 334.992 433.706 335.166C433.706 335.166 434.027 335.6 433.867 335.339C433.947 335.426 434.027 335.6 434.027 335.686C434.108 335.773 434.108 335.86 434.188 336.034C434.188 336.034 434.188 336.034 434.188 336.12C434.188 336.207 434.188 336.207 434.188 336.207C434.108 336.294 434.108 336.467 434.027 336.554C433.947 336.815 433.786 336.988 433.626 337.248C433.626 337.248 433.465 337.422 433.465 337.509C433.385 337.596 433.304 337.682 433.224 337.769C433.063 337.943 432.903 338.116 432.742 338.29C432.662 338.377 432.581 338.377 432.501 338.463C432.421 338.55 432.34 338.637 432.26 338.637C432.099 338.81 431.859 338.897 431.618 338.984C431.618 338.984 431.537 338.984 431.537 339.071C431.457 339.071 431.457 339.071 431.377 339.158C431.296 339.158 431.136 339.244 431.055 339.244C430.895 339.244 430.814 339.331 430.654 339.331C430.654 339.331 430.654 339.331 430.573 339.331C430.332 339.331 430.091 339.331 429.931 339.331H429.85C429.85 339.331 429.85 339.331 429.77 339.331C429.69 339.331 429.61 339.331 429.529 339.244C429.449 339.244 429.288 339.158 429.208 339.158C429.208 339.158 429.128 339.158 429.047 339.071C428.887 338.984 428.646 338.897 428.485 338.724L428.244 338.55C428.164 338.55 428.164 338.463 428.083 338.463C427.923 338.29 427.762 338.116 427.601 337.943C427.521 337.769 427.441 337.682 427.361 337.509C427.28 337.422 427.28 337.248 427.2 337.162C427.12 336.901 427.039 336.728 427.039 336.467C427.521 336.467 427.521 336.381 427.521 336.207Z" fill="#15C666"/>
<path d="M562.242 518.435C563.608 520.084 565.455 521.212 567.222 522.08C569.552 523.208 571.881 524.336 574.13 525.464C575.977 526.332 578.066 527.2 579.672 528.588C580.315 529.196 581.038 529.977 581.038 531.018C581.118 531.973 580.716 533.014 580.636 533.968C580.556 536.398 582.001 537.44 583.849 537.873C583.929 539.002 585.375 539.956 586.5 539.002C587.062 538.568 587.544 538.134 588.106 537.613C588.829 537.44 589.471 537.266 590.034 537.006C593.648 535.444 596.54 532.146 597.503 527.981C597.664 527.373 597.504 526.853 597.182 526.506C597.182 526.506 597.263 526.419 597.263 526.332C599.19 521.733 599.271 516.613 596.781 512.361C598.708 508.629 600.395 504.724 600.877 500.472C601.198 497.782 600.957 495.092 600.074 492.575C604.813 487.108 605.937 478.604 602.724 471.835C599.672 465.501 593.728 461.509 587.785 459.166C581.68 456.649 572.443 455.174 568.748 462.984C566.018 468.711 568.588 474.959 572.604 478.951C567.704 480.079 563.447 483.464 562.885 489.451C562.644 492.662 563.608 496.047 565.616 498.476C566.58 499.604 567.785 500.472 568.989 501.08C566.419 502.034 564.17 503.683 562.483 505.939C559.913 509.584 559.271 514.877 562.242 518.435Z" fill="#F6B399"/>
<path d="M560.074 508.369C561.841 503.943 566.018 501.253 570.275 500.472C575.255 499.518 580.556 500.732 585.295 502.468C589.953 504.117 594.291 506.807 597.263 511.146C598.387 512.881 595.817 514.443 594.692 512.795C592.604 509.671 589.472 507.588 586.178 506.199C582.403 504.637 578.146 503.422 574.05 503.336C570.355 503.336 566.339 504.464 563.929 507.675C561.6 510.799 561.52 515.398 564.411 518.088C566.098 519.737 568.267 520.952 570.275 521.993C572.524 523.208 574.933 524.162 577.343 524.857C579.19 525.464 578.387 528.588 576.54 527.981C571.801 526.505 566.821 524.336 562.965 520.952C559.271 518.001 558.227 512.968 560.074 508.369Z" fill="#EE796A"/>
<path d="M577.343 531.365C587.464 533.014 596.861 526.592 606.419 524.076C614.452 521.993 624.974 521.906 630.275 530.063C632.925 534.142 632.604 540.303 628.267 542.907C626.58 543.948 625.054 541.084 626.741 540.13C630.275 537.96 628.99 533.014 626.66 530.497C623.929 527.547 619.994 526.332 616.219 526.158C607.544 525.811 599.753 530.15 591.64 532.84C586.741 534.489 581.68 535.357 576.54 534.576C574.612 534.229 575.415 531.105 577.343 531.365Z" fill="#EE796A"/>
<path d="M569.311 531.799C572.524 531.886 575.656 531.712 578.789 531.278C579.592 531.192 580.315 532.059 580.315 532.927C580.315 533.882 579.672 534.489 578.789 534.576C575.656 535.01 572.443 535.183 569.311 535.097C568.508 535.097 567.785 534.402 567.785 533.448C567.865 532.58 568.427 531.799 569.311 531.799Z" fill="#EE796A"/>
<path d="M562.162 523.555C562.243 523.208 562.484 522.774 562.885 522.601C564.17 521.906 565.616 521.472 567.062 521.559C567.464 521.559 567.865 521.733 568.106 521.993C568.347 522.253 568.588 522.774 568.508 523.121C568.508 523.989 567.865 524.77 566.982 524.77C566.66 524.77 566.419 524.77 566.098 524.857C565.536 524.944 565.054 525.117 564.492 525.291C564.411 525.291 564.331 525.377 564.251 525.377C563.849 525.551 563.528 525.638 563.126 525.551C562.805 525.464 562.403 525.117 562.243 524.77C562.082 524.423 562.002 523.989 562.162 523.555Z" fill="#EE796A"/>
<path d="M565.536 480.513C569.231 477.65 573.97 477.563 578.227 478.431C582.484 479.298 586.821 480.86 590.757 482.856C595.094 485.026 598.869 488.15 601.6 492.489C602.644 494.224 600.074 495.873 599.03 494.137C595.094 487.716 588.026 484.592 581.359 482.596C577.745 481.468 573.809 480.6 570.114 481.728C566.821 482.77 564.331 485.807 563.688 489.451C563.046 493.617 565.215 497.695 568.588 499.518C570.275 500.472 568.749 503.336 567.062 502.295C563.367 500.212 560.958 496.133 560.636 491.708C560.235 487.369 562.323 483.03 565.536 480.513Z" fill="#EE796A"/>
<path d="M566.58 468.885C566.741 466.368 567.544 463.939 568.668 461.769C569.712 459.773 571.158 457.604 573.166 456.563C575.255 455.434 577.825 455.608 580.074 455.608C582.403 455.695 584.813 455.955 587.062 456.476C591.48 457.517 595.737 459.513 599.11 462.897C602.644 466.368 604.974 471.054 605.375 476.261C605.536 478.344 602.484 478.344 602.323 476.261C601.761 468.451 595.656 462.724 589.07 460.468C585.295 459.166 581.359 458.819 577.343 458.906C575.335 458.992 573.889 459.513 572.604 461.249C571.399 462.811 570.435 464.633 569.953 466.542C568.829 470.534 569.712 475.307 573.086 477.65C574.692 478.778 573.166 481.641 571.56 480.426C568.106 477.91 566.259 473.397 566.58 468.885Z" fill="#EE796A"/>
<path d="M497.985 622.829C498.789 646.346 499.511 664.743 499.511 664.743H557.985C567.463 664.743 574.451 655.197 572.283 645.305C569.632 633.329 566.098 617.275 562.724 601.829L519.993 615.713L498.307 622.742L497.985 622.829Z" fill="#2F82FF"/>
<path d="M248.105 454.133C248.105 454.133 248.587 477.823 247.463 524.51C246.419 571.196 240.957 625.519 240.957 625.519L170.595 620.573C170.595 620.573 180.234 565.903 183.527 538.221C186.82 510.538 188.507 474.178 188.507 474.178L248.105 454.133Z" fill="#F6B399"/>
<path d="M166.82 440.943C171.72 445.542 174.371 444.067 174.371 444.067C174.371 444.067 177.744 459.253 179.591 467.93C181.278 475.914 185.053 483.117 191.399 487.889C197.905 492.836 206.017 494.745 213.808 494.311C218.387 494.051 222.885 493.183 227.302 491.794C231.077 490.666 234.853 489.278 238.226 487.108C241.439 485.113 244.25 482.249 245.857 478.604C247.543 474.699 247.945 470.36 248.025 466.195C248.347 448.145 247.624 430.095 246.981 412.046C246.419 395.471 247.865 378.636 243.206 362.495C241.68 357.289 239.672 351.475 235.094 348.611C231.318 346.181 226.017 346.094 222.965 349.913C219.511 354.252 220.877 360.76 221.68 365.88C222.644 372.388 223.527 378.896 224.009 385.405C224.331 390.178 224.491 394.95 224.331 399.723C221.198 395.384 208.427 395.211 203.929 400.417C200.314 395.992 188.266 396.426 184.652 403.628C182.403 400.851 179.351 399.897 174.371 400.764C161.84 402.847 157.262 431.831 166.82 440.943Z" fill="#F6B399"/>
<path d="M178.146 438.426C181.359 441.203 185.776 441.984 189.712 442.505C193.326 442.938 196.861 442.938 200.475 442.418C200.154 443.372 199.993 444.327 199.993 445.281C199.832 445.542 199.752 445.802 199.832 446.236C200.073 450.054 200.395 453.959 200.636 457.777C200.877 461.075 201.198 464.286 202.403 467.323C204.33 472.009 208.025 475.567 212.041 477.997C216.7 480.86 221.921 482.856 227.222 481.207C237.423 477.997 243.206 466.021 240.234 455.087C240.154 454.914 240.073 454.74 239.993 454.567C237.503 445.195 234.13 435.996 228.186 428.62C222.885 422.025 215.816 417.513 207.784 416.298C203.206 415.603 198.467 415.343 193.808 415.69C189.712 415.951 185.455 416.732 181.84 418.901C178.547 420.897 175.977 424.108 175.174 428.099C174.371 431.918 175.254 435.909 178.146 438.426Z" fill="#F6B399"/>
<path d="M181.841 423.24C183.768 422.372 185.776 422.112 187.865 422.025C190.435 421.852 192.925 421.678 195.495 421.504C200.395 421.244 205.535 420.723 210.355 421.418C215.495 422.112 219.351 425.149 222.724 429.141C226.419 433.567 229.792 438.339 232.845 443.372C233.889 445.108 231.319 446.757 230.274 445.021C227.865 440.943 225.214 437.124 222.242 433.48C219.672 430.269 216.861 426.711 213.005 425.323C208.748 423.847 204.009 424.368 199.672 424.542C195.174 424.715 190.596 424.802 186.178 425.409C184.491 425.67 182.644 426.104 181.359 427.405C180.154 428.62 179.752 430.443 179.913 432.178C180.154 436.17 183.206 438.86 186.339 440.335C190.194 442.244 194.531 442.505 198.628 443.633C200.475 444.153 202.242 444.848 202.724 447.017C203.206 449.187 203.045 451.53 203.367 453.699C204.572 462.811 208.427 472.877 217.343 475.654C219.19 476.261 218.387 479.385 216.539 478.778C208.186 476.174 203.206 467.757 201.278 458.992C200.716 456.476 200.395 453.959 200.154 451.443C200.074 450.315 200.074 449.1 199.913 447.972C199.672 446.757 198.146 446.757 197.182 446.496C192.684 445.368 188.106 444.934 183.929 442.591C180.475 440.682 177.584 437.385 177.021 433.046C176.379 428.881 178.146 424.889 181.841 423.24Z" fill="#EE796A"/>
<path d="M215.816 417.686C216.379 416.298 217.503 415.343 218.628 414.562C219.19 414.215 219.752 413.955 220.234 413.608C220.877 413.174 221.118 413 221.6 412.393C222.081 411.698 223.206 411.785 223.768 412.393C224.411 413.087 224.33 414.042 223.768 414.736C222.965 415.777 221.921 416.385 220.877 416.992C220.395 417.252 219.913 417.599 219.431 417.947C219.431 417.947 219.351 418.033 219.27 418.12C219.19 418.207 219.11 418.294 218.949 418.467C218.949 418.467 218.869 418.554 218.869 418.641C218.788 418.728 218.708 418.814 218.708 418.988C218.628 419.161 218.547 419.335 218.387 419.595C218.387 419.682 218.306 419.769 218.306 419.856C218.226 420.029 218.226 420.116 218.226 420.29C218.226 420.376 218.146 420.55 218.146 420.637C218.146 420.637 218.146 420.637 218.146 420.723C218.146 420.984 218.146 421.331 218.146 421.591C218.146 421.591 218.146 421.765 218.146 421.852C218.146 421.938 218.146 422.025 218.146 422.112C218.226 422.372 218.306 422.633 218.387 422.893C218.387 422.893 218.387 422.98 218.467 422.98C218.547 423.066 218.547 423.24 218.628 423.327C218.708 423.414 218.708 423.5 218.788 423.587L218.949 423.761C219.511 424.455 219.511 425.409 218.949 426.104C218.387 426.711 217.343 426.798 216.78 426.104C214.933 423.674 214.612 420.463 215.816 417.686Z" fill="#EE796A"/>
<path d="M203.286 398.942C204.893 397.814 206.419 400.591 204.812 401.719C198.708 406.058 196.218 414.996 198.788 422.285C199.511 424.281 196.539 425.062 195.897 423.153C192.764 414.475 196.057 404.062 203.286 398.942Z" fill="#EE796A"/>
<path d="M183.367 401.979C184.732 400.504 186.901 402.847 185.535 404.322C180.796 409.269 179.752 417.513 183.126 423.587C184.089 425.409 181.519 427.058 180.555 425.236C176.459 417.86 177.664 407.88 183.367 401.979Z" fill="#EE796A"/>
<path d="M168.989 442.852C169.391 442.071 170.354 441.81 171.077 442.244C171.318 442.418 171.559 442.505 171.8 442.678C171.961 442.765 172.041 442.765 172.363 442.938C172.604 443.025 172.844 443.112 173.166 443.112H173.246C173.407 443.112 173.567 443.112 173.648 443.112C174.612 443.199 175.415 443.025 176.218 442.591C176.379 442.505 176.62 442.331 176.78 442.244C176.78 442.244 176.941 442.157 177.021 442.071C177.101 441.984 177.182 441.897 177.182 441.897C177.583 441.55 177.824 441.203 178.065 440.856C178.226 440.595 178.306 440.422 178.467 440.162C178.547 440.075 178.547 439.988 178.628 439.901C178.628 439.814 178.628 439.814 178.708 439.814V439.728C178.788 439.467 178.869 439.294 178.949 439.033C178.949 438.86 179.029 438.773 179.029 438.6C179.029 438.513 179.11 438.079 179.029 438.426C179.11 437.558 179.672 436.777 180.555 436.777C181.278 436.777 182.162 437.558 182.081 438.426C181.76 441.29 180.314 444.067 177.824 445.455C175.254 446.93 172.122 446.757 169.712 445.108C168.828 444.587 168.587 443.633 168.989 442.852Z" fill="#EE796A"/>
<path d="M220.555 352.429C222.563 348.003 226.981 344.706 231.64 345.834C233.567 346.268 232.764 349.479 230.836 348.958C227.142 348.003 223.848 351.561 222.724 355.119C221.198 360.152 222.724 365.706 223.607 370.739C225.535 381.413 226.74 392.173 227.302 403.021C227.623 409.182 227.704 415.343 227.543 421.417C227.463 423.5 224.491 423.5 224.491 421.417C224.732 409.616 224.25 397.727 222.804 385.925C222.081 380.111 221.198 374.297 220.073 368.483C219.19 363.276 218.306 357.549 220.555 352.429Z" fill="white"/>
<path d="M176.62 446.583C177.583 454.827 178.547 463.158 181.198 470.968C183.286 477.389 187.383 484.505 194.21 485.373C196.138 485.633 196.138 488.844 194.21 488.67C186.499 487.716 181.599 480.86 178.869 473.571C175.656 464.98 174.692 455.695 173.648 446.583C173.407 444.5 176.379 444.587 176.62 446.583Z" fill="#EE796A"/>
<path d="M362.965 473.398L363.287 476.608C366.339 476.348 369.391 475.654 372.283 474.526C374.371 473.745 376.459 472.703 378.387 471.575C380.154 470.534 382.082 469.406 382.724 467.15C383.367 465.154 380.475 464.286 379.833 466.282C379.592 467.063 378.628 467.584 377.985 468.017C377.263 468.538 376.459 468.972 375.656 469.406C373.969 470.36 372.202 471.141 370.355 471.749C368.026 472.703 365.536 473.224 362.965 473.398Z" fill="#EE796A"/>
<path d="M529.873 407.186C533.488 411.178 538.226 413.174 542.564 416.037C544.331 417.252 546.259 418.727 547.142 420.897C548.186 423.327 547.222 426.19 548.668 428.62C550.837 432.351 556.138 433.132 559.512 430.789C563.206 428.099 564.17 422.893 563.447 418.38C563.608 418.293 563.769 418.12 563.929 417.86C565.295 415.517 567.463 413.781 568.749 411.351C570.114 408.835 570.114 405.884 568.508 403.541C566.821 401.025 564.09 399.983 561.439 399.029C558.949 398.161 556.299 397.12 555.335 394.169C553.809 389.31 555.255 383.582 550.917 380.024C546.741 376.64 540.235 377.508 535.737 379.591C530.676 381.847 526.58 386.359 525.375 392.26C524.17 397.64 526.178 403.107 529.873 407.186ZM529.793 388.702C532.283 384.19 536.941 381.673 541.68 381.066C543.849 380.805 546.259 380.805 548.186 381.847C550.194 382.888 550.998 384.884 551.319 387.14C552.042 391.566 551.64 396.252 555.335 399.289C557.102 400.764 559.271 401.459 561.359 402.24C563.206 402.934 565.375 403.802 566.339 405.797C567.303 407.62 566.339 409.442 565.214 410.917C564.09 412.393 562.725 413.781 561.68 415.43C560.797 415.43 559.753 416.211 560.154 417.426C561.198 421.417 560.636 428.099 555.817 428.707C554.21 428.967 552.202 428.36 551.319 426.884C550.596 425.67 550.837 424.194 550.757 422.806C550.676 421.504 550.355 420.289 549.873 419.161C548.106 415.256 544.251 413.087 540.797 411.178C536.861 409.008 532.845 406.578 530.275 402.587C527.463 398.335 527.303 393.128 529.793 388.702Z" fill="#E8EAED" fill-opacity="0.72"/>
<path d="M505.774 414.927C507.862 417.357 510.834 419.179 513.886 418.312C515.332 417.878 516.537 416.836 517.18 415.361C517.822 413.799 517.822 411.977 516.939 410.588C516.778 410.328 516.537 410.068 516.296 409.981C515.895 407.117 513.967 404.514 511.477 403.386C508.746 402.084 504.89 402.431 503.364 405.642C501.838 408.853 503.605 412.411 505.774 414.927ZM505.935 407.464C506.015 407.031 506.176 406.77 506.497 406.51C507.139 405.902 508.023 405.816 508.907 405.816C508.987 405.816 508.987 405.816 508.987 405.816H509.067C509.148 405.816 509.308 405.902 509.388 405.902C509.629 405.989 509.87 406.076 510.111 406.163C510.111 406.163 510.433 406.336 510.513 406.336C510.754 406.423 510.915 406.597 511.156 406.77C512.521 407.725 513.405 409.46 513.324 411.283C513.324 412.237 513.886 412.758 514.609 412.845V412.931C514.609 412.931 514.609 412.931 514.609 413.018C514.609 413.105 514.609 413.279 514.609 413.365V413.539C514.609 413.626 514.529 413.799 514.529 413.886C514.529 413.886 514.449 414.146 514.368 414.146C514.288 414.233 514.288 414.32 514.208 414.407C514.368 414.233 513.886 414.754 513.967 414.667C513.806 414.754 513.646 414.841 513.485 414.927L513.324 415.014C512.762 415.274 512.441 415.274 511.878 415.188C510.995 415.101 510.031 414.667 509.228 413.973C508.505 413.365 507.702 412.498 507.059 411.63C506.738 411.109 506.417 410.588 506.176 410.068C506.095 409.894 506.015 409.634 505.935 409.374C505.935 409.287 505.854 409.113 505.854 409.026C505.854 408.94 505.774 408.593 505.774 408.853C505.774 408.245 505.774 407.985 505.935 407.464Z" fill="#E8EAED" fill-opacity="0.72"/>
<path d="M490.608 377.678C496.311 380.889 503.219 383.058 508.922 378.719C513.902 374.901 515.669 367.091 511.813 361.711C511.653 361.537 511.492 361.364 511.331 361.277C507.877 355.55 502.496 350.777 495.829 351.211C489.564 351.558 482.817 355.55 481.612 362.752C480.327 369.608 485.387 374.728 490.608 377.678ZM485.307 360.756C487.717 355.723 494.142 353.294 499.122 354.595C503.861 355.81 507.315 360.062 509.644 364.488C509.805 364.748 509.966 364.922 510.126 365.095C512.054 369.781 509.644 375.335 505.066 377.244C500.006 379.327 494.383 376.55 490.126 373.686C486.03 370.909 482.737 366.137 485.307 360.756Z" fill="#E8EAED" fill-opacity="0.72"/>
<path d="M133.174 652.789H269.948C278.852 652.789 286.072 645.393 286.072 636.272V540.787C286.072 531.666 278.852 524.27 269.948 524.27H133.174C124.27 524.27 117.05 531.666 117.05 540.787V636.272C117.05 645.393 124.27 652.789 133.174 652.789Z" fill="#5D7888"/>
<path d="M198.906 606.98C206.768 606.98 213.141 600.451 213.141 592.397C213.14 584.343 206.767 577.814 198.904 577.814C191.042 577.814 184.669 584.343 184.67 592.397C184.67 600.451 191.044 606.98 198.906 606.98Z" fill="#F5F5FA"/>
<path d="M286.072 642.353C284.949 642.353 284.067 641.449 284.067 640.298V548.1C284.067 547.771 284.067 547.443 284.067 547.032C284.227 538.65 283.345 527.557 274.44 527.064C261.926 526.324 134.458 526.324 133.174 526.324C132.051 526.324 131.169 525.42 131.169 524.27C131.169 523.12 132.051 522.216 133.174 522.216C138.469 522.216 262.006 522.216 274.681 522.955C288.479 523.695 288.158 541.28 288.078 547.114C288.078 547.525 288.078 547.854 288.078 548.1V640.298C288.078 641.449 287.195 642.353 286.072 642.353Z" fill="white"/>
<path d="M296.861 545.857C297.343 544.035 298.146 542.386 299.431 541.084C300.797 539.696 302.082 538.654 302.564 536.659C303.527 532.58 301.439 528.588 299.993 524.944C298.548 521.386 297.664 517.567 297.664 513.662C297.664 509.931 298.548 506.113 300.475 503.076C302.564 499.778 305.776 497.522 308.909 495.526C312.363 493.356 316.218 491.361 318.467 487.629C320.154 484.765 320.716 480.079 317.825 477.823C316.299 476.608 317.744 473.745 319.351 475.046C321.841 476.955 323.046 480.079 322.885 483.377C322.644 487.022 320.957 490.059 318.548 492.489C313.407 497.609 305.295 499.431 302.082 506.633C300.636 509.931 300.395 513.836 301.037 517.394C301.68 521.472 303.527 524.944 304.813 528.849C305.937 532.32 306.419 536.311 304.732 539.696C303.849 541.431 302.323 542.386 301.198 543.861C300.074 545.25 299.592 547.159 299.511 548.981C299.27 553.146 300.154 557.746 302.403 561.13C304.572 564.427 308.588 566.423 312.282 565.035C314.13 564.341 314.933 567.465 313.086 568.159C309.793 569.374 306.178 568.593 303.367 566.51C300.395 564.341 298.467 560.956 297.423 557.225C296.379 553.754 295.977 549.588 296.861 545.857Z" fill="#335B71"/>
<path d="M364.411 545.163C365.214 542.907 366.339 540.911 367.704 539.002C369.07 537.179 370.676 535.704 372.283 534.142C373.728 532.667 375.174 531.105 375.897 529.109C376.62 526.939 376.379 524.683 375.897 522.427C374.853 518.001 373.006 513.576 374.05 508.89C375.094 504.377 378.548 501.427 381.6 498.39C388.749 491.361 391.48 480.34 387.785 470.534C387.062 468.625 389.953 467.757 390.676 469.666C393.648 477.736 392.684 487.369 388.427 494.745C386.259 498.476 383.126 501.08 380.235 504.117C378.869 505.592 377.584 507.241 377.022 509.324C376.459 511.406 376.781 513.576 377.263 515.658C378.226 519.91 379.994 524.076 379.11 528.501C378.307 532.84 375.014 535.704 372.122 538.568C366.018 544.729 363.769 554.622 367.945 562.779C370.034 566.857 373.487 570.328 377.584 571.89C381.68 573.452 386.66 573.366 389.953 569.981C391.399 568.593 393.488 570.849 392.122 572.324C385.696 578.833 375.576 576.229 369.712 570.328C363.287 564.08 361.118 553.927 364.411 545.163Z" fill="#335B71"/>
<path d="M494.371 559.655C494.371 575.101 494.532 590.548 494.773 605.994C495.094 625.519 495.737 645.131 496.459 664.656H499.512C499.11 654.156 498.708 643.569 498.387 633.069C498.307 629.598 498.227 626.127 498.146 622.742C497.745 605.473 497.504 588.205 497.423 570.849C497.423 565.382 497.423 559.828 497.423 554.361C497.423 540.043 497.584 525.638 497.905 511.319C497.905 511.059 497.905 510.712 497.905 510.452C497.905 509.931 497.905 509.41 497.905 508.89C497.905 507.762 497.102 507.241 496.299 507.328C495.576 507.414 494.933 507.935 494.933 508.89C494.692 520.518 494.532 532.146 494.451 543.774C494.371 549.068 494.371 554.361 494.371 559.655Z" fill="white"/>
<path d="M442.564 588.378C444.331 594.973 446.098 601.568 447.785 608.164C452.604 626.908 457.022 645.738 461.198 664.656H464.331C463.849 662.4 463.367 660.144 462.885 657.887C462.724 657.02 462.483 656.152 462.323 655.371C457.263 632.548 451.64 609.986 445.616 587.51C444.893 585.515 442.001 586.382 442.564 588.378Z" fill="white"/>
<path d="M403.768 456.042C406.874 456.042 409.391 453.322 409.391 449.968C409.391 446.613 406.874 443.893 403.768 443.893C400.663 443.893 398.146 446.613 398.146 449.968C398.146 453.322 400.663 456.042 403.768 456.042Z" fill="white"/>
<path d="M361.6 441.377C353.568 441.377 346.981 434.261 346.981 425.583C346.981 416.905 353.568 409.79 361.6 409.79C369.632 409.79 376.218 416.905 376.218 425.583C376.218 434.261 369.712 441.377 361.6 441.377ZM361.6 413.087C355.174 413.087 350.034 418.728 350.034 425.583C350.034 432.525 355.255 438.079 361.6 438.079C368.026 438.079 373.166 432.439 373.166 425.583C373.247 418.728 368.026 413.087 361.6 413.087Z" fill="white"/>
<path d="M337.985 423.153C341.6 420.723 346.58 422.025 348.909 425.756C349.391 426.451 349.07 427.579 348.347 428.013C347.544 428.447 346.74 428.186 346.258 427.405C346.258 427.405 346.258 427.318 346.178 427.318C346.178 427.318 346.098 427.145 346.017 427.145C345.857 426.971 345.776 426.798 345.616 426.711C345.455 426.624 345.375 426.451 345.214 426.364C345.214 426.364 345.214 426.364 345.134 426.277C345.054 426.19 344.973 426.19 344.893 426.104C344.732 426.017 344.572 425.93 344.411 425.756C344.331 425.67 344.25 425.67 344.17 425.583C343.768 425.409 343.447 425.323 343.046 425.236C342.965 425.236 342.885 425.236 342.805 425.149C342.805 425.149 342.805 425.149 342.724 425.149C342.483 425.149 342.323 425.149 342.162 425.149C342.001 425.149 341.76 425.149 341.6 425.149C341.519 425.149 341.439 425.149 341.359 425.149C340.957 425.236 340.636 425.323 340.234 425.409C340.154 425.409 340.074 425.496 340.074 425.496C340.074 425.496 339.993 425.496 339.993 425.583C339.833 425.67 339.592 425.756 339.431 425.93C338.789 426.364 337.744 426.104 337.343 425.323C337.021 424.542 337.262 423.587 337.985 423.153Z" fill="white"/>
<path d="M353.889 329.433C353.969 329.521 353.969 329.521 353.969 329.521C354.049 329.521 353.969 329.521 353.889 329.433Z" fill="white"/>
<path d="M354.291 329.867C354.371 329.954 354.371 329.954 354.371 329.954C354.21 329.78 354.21 329.78 354.291 329.867Z" fill="white"/>
<path d="M348.587 336.289C349.471 337.156 350.596 337.59 351.8 337.677C352.925 337.764 354.13 337.33 355.093 336.636C357.102 335.16 358.387 332.47 357.664 329.78C357.583 329.52 357.503 329.346 357.343 329.173C357.343 328.912 357.262 328.739 357.182 328.479C355.897 326.136 353.326 325.181 350.917 325.615C348.828 325.962 347.061 327.698 346.66 329.954C346.178 332.297 346.901 334.813 348.587 336.289ZM349.471 331.516C349.471 331.603 349.471 331.603 349.471 331.516C349.471 331.342 349.471 331.169 349.471 330.995C349.471 330.908 349.471 330.822 349.471 330.735V330.822C349.471 330.648 349.551 330.474 349.632 330.301C349.632 330.301 349.632 330.301 349.632 330.214C349.632 330.127 349.712 330.041 349.792 329.954C349.792 329.867 349.873 329.78 349.953 329.78C350.114 329.607 350.194 329.52 350.274 329.433C350.355 329.346 350.435 329.346 350.435 329.26C350.515 329.173 350.596 329.173 350.756 329.086C350.836 329.086 350.836 329.086 350.836 329.086C350.917 329.086 350.997 328.999 351.077 328.999C351.238 328.912 351.399 328.912 351.559 328.912C351.64 328.912 351.72 328.912 351.8 328.912C351.961 328.912 352.202 328.912 352.363 328.912C352.443 328.912 352.523 328.912 352.604 328.999C352.764 328.999 352.925 329.086 353.085 329.173H353.166H353.246H353.326C353.487 329.26 353.648 329.346 353.808 329.433L353.889 329.52C353.889 329.52 353.969 329.52 353.969 329.607C354.049 329.693 354.13 329.78 354.21 329.867L354.29 329.954C354.29 329.954 354.29 329.954 354.21 329.954C354.29 330.041 354.29 330.127 354.371 330.214C354.451 330.301 354.451 330.301 354.531 330.388C354.531 330.474 354.531 330.648 354.612 330.735C354.612 330.735 354.692 330.995 354.692 331.082C354.692 331.082 354.692 331.082 354.692 331.169C354.692 331.342 354.692 331.429 354.692 331.603C354.612 331.689 354.531 332.21 354.531 332.297C354.531 332.297 354.531 332.384 354.451 332.384C354.371 332.47 354.371 332.557 354.29 332.644C354.21 332.731 354.13 332.904 354.049 332.991C354.049 333.078 353.969 333.078 353.969 333.165C353.969 333.078 354.049 333.078 354.049 332.991C353.969 333.165 353.728 333.425 353.567 333.512C353.487 333.598 353.326 333.772 353.246 333.772C353.407 333.598 353.407 333.598 353.326 333.685C353.326 333.685 353.246 333.685 353.246 333.772C353.085 333.946 352.844 334.032 352.684 334.119C352.604 334.119 352.604 334.119 352.523 334.206C352.443 334.206 352.363 334.293 352.202 334.293C352.122 334.293 352.041 334.293 352.041 334.379C351.881 334.379 351.64 334.379 351.479 334.379C351.399 334.379 351.318 334.379 351.238 334.293C351.158 334.293 351.158 334.293 351.077 334.206H350.997H350.917C350.836 334.119 350.676 334.032 350.515 333.946C350.435 333.859 350.435 333.859 350.355 333.772C350.194 333.685 350.114 333.512 350.033 333.338C350.033 333.338 350.033 333.338 350.033 333.251C349.953 333.165 349.953 333.078 349.873 332.991C349.792 332.817 349.712 332.644 349.632 332.47C349.632 332.384 349.551 332.297 349.551 332.21C349.471 332.036 349.471 331.863 349.471 331.776C349.551 331.776 349.551 331.689 349.471 331.516Z" fill="white"/>
<path d="M350.756 329.087C350.837 329.087 350.837 329.087 350.917 328.999C350.998 328.999 350.917 329.087 350.756 329.087Z" fill="white"/>
<path d="M349.471 331.602C349.552 331.95 349.552 331.776 349.471 331.602V331.602Z" fill="white"/>
<path d="M349.551 330.821C349.551 331.083 349.471 330.996 349.551 330.821V330.821Z" fill="white"/>
<path d="M353.246 329.088H353.327C353.166 329.088 353.166 328.997 353.246 329.088Z" fill="white"/>
<path d="M194.692 327.177C194.612 327.177 194.612 327.177 194.531 327.177C194.772 327.177 194.772 327.267 194.692 327.177Z" fill="white"/>
<path d="M193.808 326.744C193.728 326.657 193.728 326.657 193.728 326.657C193.728 326.569 193.728 326.569 193.808 326.744Z" fill="white"/>
<path d="M195.335 327.438C195.254 327.438 195.174 327.438 195.174 327.351C195.174 327.351 195.174 327.351 195.335 327.438Z" fill="white"/>
<path d="M193.407 322.492C193.487 322.492 193.568 322.404 193.568 322.404C193.568 322.492 193.487 322.492 193.407 322.492Z" fill="white"/>
<path d="M193.005 322.752L193.085 322.664C193.085 322.752 193.085 322.752 193.005 322.752Z" fill="white"/>
<path d="M195.896 322.578C195.977 322.578 195.977 322.665 196.057 322.665C196.057 322.665 195.977 322.665 195.896 322.578Z" fill="white"/>
<path d="M189.953 326.656C190.836 328.826 192.844 330.301 195.013 330.648C196.057 330.822 197.182 330.474 198.065 329.867C198.547 329.52 198.788 329.086 198.868 328.392C198.868 328.218 198.868 328.045 198.949 327.871C198.949 327.524 199.029 327.264 199.029 326.917H199.109C199.993 326.917 200.555 326.136 200.635 325.268C200.957 322.578 199.029 320.495 196.941 319.54C195.254 318.759 193.005 318.759 191.479 319.974C190.515 320.669 189.792 321.71 189.551 322.925C189.31 324.226 189.471 325.528 189.953 326.656ZM192.443 324.226C192.443 324.313 192.443 324.313 192.443 324.226C192.443 324.14 192.443 323.966 192.443 323.793C192.443 323.706 192.443 323.619 192.523 323.532C192.523 323.445 192.603 323.359 192.603 323.272V323.359C192.684 323.185 192.764 323.012 192.844 322.925C192.603 323.359 192.764 323.012 192.925 322.838L193.005 322.751C192.925 322.751 192.925 322.751 193.085 322.664C193.166 322.664 193.246 322.578 193.326 322.491H193.407C193.487 322.404 193.567 322.404 193.567 322.404C193.728 322.317 193.888 322.317 193.969 322.317C194.049 322.317 194.129 322.317 194.129 322.317C194.29 322.317 194.451 322.317 194.611 322.317C194.611 322.317 194.692 322.317 194.772 322.317C194.772 322.317 194.772 322.317 194.852 322.317H194.933C195.013 322.317 195.013 322.317 195.093 322.317C195.254 322.317 195.415 322.404 195.656 322.491C195.736 322.491 195.816 322.578 195.816 322.578C195.897 322.578 195.977 322.664 195.977 322.664C196.137 322.751 196.378 322.838 196.539 323.012C196.298 323.272 196.218 323.706 196.137 324.053C196.057 325.181 195.977 326.222 195.897 327.35H195.816C195.816 327.35 195.816 327.35 195.736 327.35C195.656 327.35 195.575 327.35 195.575 327.35C195.495 327.35 195.415 327.35 195.254 327.35C195.254 327.35 195.254 327.35 195.334 327.35H195.254C195.174 327.35 195.093 327.35 195.093 327.264C195.013 327.264 194.852 327.177 194.772 327.177C194.692 327.177 194.692 327.177 194.611 327.09H194.531C194.531 327.09 194.531 327.09 194.451 327.09C194.37 327.003 194.21 326.917 194.049 326.83C193.969 326.743 193.888 326.743 193.808 326.656C193.728 326.569 193.728 326.569 193.728 326.569C193.487 326.309 193.246 326.136 193.085 325.875C193.005 325.788 193.005 325.788 192.925 325.702C192.844 325.528 192.764 325.355 192.684 325.268V325.181V325.268C192.684 325.181 192.603 325.181 192.603 325.094C192.523 324.921 192.523 324.747 192.443 324.574C192.443 324.4 192.443 324.313 192.443 324.226Z" fill="white"/>
<path d="M192.603 323.359C192.523 323.62 192.523 323.533 192.603 323.359V323.359Z" fill="white"/>
<path d="M638.365 678.937H53.6355C48.2824 678.937 44 675.922 44 672.154V671.526C44 667.757 48.2824 664.743 53.6355 664.743H638.365C643.718 664.743 648 667.757 648 671.526V672.154C648 675.922 643.718 678.937 638.365 678.937Z" fill="#EDEDED"/>
<path d="M62.1113 678.937C77.5459 673.724 100.564 672.594 118.05 678.937" stroke="#DDDDDD" stroke-width="0.75" stroke-miterlimit="10" stroke-linecap="round" stroke-linejoin="round"/>
<path d="M56.7583 664.805C72.0144 670.772 82.1852 670.27 101.01 670.144C115.017 670.018 131.879 675.043 143.12 679" stroke="#DDDDDD" stroke-width="0.75" stroke-miterlimit="10" stroke-linecap="round" stroke-linejoin="round"/>
<path d="M129.203 664.805C140.266 673.536 147.938 674.666 151.685 672.405C155.611 670.018 159.715 669.328 163.908 671.903C168.726 674.855 175.506 668.888 179.343 664.805" stroke="#DDDDDD" stroke-width="0.75" stroke-miterlimit="10" stroke-linecap="round" stroke-linejoin="round"/>
<path d="M172.384 678.937C176.845 676.048 184.785 672.468 197.275 671.84C211.996 671.149 230.732 675.922 240.724 678.937" stroke="#DDDDDD" stroke-width="0.75" stroke-miterlimit="10" stroke-linecap="round" stroke-linejoin="round"/>
<path d="M221.364 664.805C238.672 671.212 257.497 674.918 272.753 671.903C287.652 668.951 323.161 672.594 336.097 664.805" stroke="#DDDDDD" stroke-width="0.75" stroke-miterlimit="10" stroke-linecap="round" stroke-linejoin="round"/>
<path d="M286.849 678.937C297.912 674.478 315.131 671.777 328.603 678.937" stroke="#DDDDDD" stroke-width="0.75" stroke-miterlimit="10" stroke-linecap="round" stroke-linejoin="round"/>
<path d="M347.606 678.937C368.126 667.695 409.255 665.622 443.514 671.777C484.108 679.063 502.308 670.647 509.713 664.743" stroke="#DDDDDD" stroke-width="0.75" stroke-miterlimit="10" stroke-linecap="round" stroke-linejoin="round"/>
<path d="M384.542 678.937C399.441 674.227 419.515 673.284 440.66 678.937" stroke="#DDDDDD" stroke-width="0.75" stroke-miterlimit="10" stroke-linecap="round" stroke-linejoin="round"/>
<path d="M514.353 678.937C539.245 670.772 559.229 671.714 577.697 678.937" stroke="#DDDDDD" stroke-width="0.75" stroke-miterlimit="10" stroke-linecap="round" stroke-linejoin="round"/>
<path d="M549.504 664.805C590.544 674.541 624.625 682.015 647.019 668.888" stroke="#DDDDDD" stroke-width="0.75" stroke-miterlimit="10" stroke-linecap="round" stroke-linejoin="round"/>
<path d="M582.336 664.805C603.213 673.41 627.57 672.782 642.558 665.559" stroke="#DDDDDD" stroke-width="0.75" stroke-miterlimit="10" stroke-linecap="round" stroke-linejoin="round"/>
</svg>
