<svg width="8" height="14" viewBox="0 0 8 14" fill="none" xmlns="http://www.w3.org/2000/svg">
<path d="M2.50012 7L7.6992 1.77674C7.89364 1.5814 8.00012 1.32093 8.00012 1.04186C8.00012 0.762791 7.89364 0.502326 7.6992 0.306977C7.50475 0.111628 7.24549 0 6.96771 0C6.68994 0 6.43068 0.106977 6.23623 0.306977L0.301048 6.26512C0.106604 6.46046 0.00012207 6.72093 0.00012207 7C0.00012207 7.27907 0.106604 7.53954 0.301048 7.73488L6.2316 13.693C6.42605 13.8884 6.68531 14 6.96308 14C7.24086 14 7.50012 13.893 7.69457 13.693C8.09734 13.2884 8.09734 12.6279 7.69457 12.2233L2.50012 7Z" fill="white"/>
</svg>
