<svg width="8" height="14" viewBox="0 0 8 14" fill="none" xmlns="http://www.w3.org/2000/svg">
<path d="M1.76954 0.306977C1.57035 0.106977 1.31094 0 1.03764 0C0.759699 0 0.50029 0.106977 0.305732 0.306977C-0.0972785 0.711628 -0.0972785 1.37209 0.305732 1.77674L5.50782 7L0.3011 12.2233C0.106543 12.4186 0 12.6791 0 12.9581C0 13.2372 0.106543 13.4977 0.3011 13.693C0.495657 13.8884 0.755067 14 1.03301 14C1.31094 14 1.57035 13.893 1.76491 13.693L7.6989 7.73488C7.89346 7.53954 8 7.27907 8 7C8 6.72093 7.89346 6.46046 7.6989 6.26512L1.76954 0.306977Z" fill="white"/>
</svg>
