<svg width="19" height="18" viewBox="0 0 19 18" fill="none" xmlns="http://www.w3.org/2000/svg">
<path d="M18.7847 3.86619C18.7847 2.84922 18.0022 2.07312 16.9712 2.05639C16.8906 2.05639 16.81 2.05639 16.726 2.05639C16.726 1.97945 16.726 1.90251 16.726 1.82891C16.716 1.33047 16.5346 0.872162 16.2156 0.544325C15.8932 0.209797 15.4398 0.0191159 14.9394 0.00573477C14.4659 -0.00764636 13.9655 0.00238949 13.445 0.0358423C12.733 0.0793309 12.0278 0.310155 11.3527 0.721625C10.5568 1.20669 9.95232 1.85902 9.5191 2.71541C9.23364 2.48124 8.9146 2.31063 8.54855 2.20358C8.15898 2.08984 7.73248 2.04301 7.1582 2.05305C6.13392 2.06977 5.08948 2.06643 4.07863 2.06308C3.62861 2.06308 3.16181 2.05974 2.70172 2.05974C1.51959 2.05974 0.75725 2.81577 0.75725 3.98996C0.753892 7.69654 0.75725 10.9816 0.760609 14.0258C0.760609 14.2399 0.784117 14.4406 0.834492 14.6179C1.04942 15.4174 1.75131 15.936 2.61776 15.9393C3.51779 15.9427 4.43125 15.9427 5.31449 15.9427C6.07347 15.9427 6.85931 15.9427 7.63173 15.9427C8.26645 15.9427 8.75005 16.2738 8.92132 16.8258C8.9549 16.9329 8.96834 17.0566 8.98177 17.1904C8.98513 17.2172 8.98849 17.2473 8.99184 17.2741C9.03886 17.6855 9.36126 17.99 9.75418 18C9.7609 18 9.76762 18 9.77433 18C10.1706 18 10.4863 17.7157 10.5434 17.3008C10.5501 17.254 10.5568 17.2072 10.5602 17.1603C10.5703 17.06 10.5837 16.9663 10.6038 16.8827C10.7583 16.3073 11.2587 15.946 11.9169 15.946C12.6289 15.946 13.3409 15.946 14.0528 15.946C14.9898 15.946 15.957 15.946 16.9074 15.9427C17.9921 15.9393 18.7813 15.1732 18.7813 14.1228C18.7914 10.6136 18.7914 7.16464 18.7847 3.86619ZM8.99184 14.7016C8.4478 14.4272 7.90375 14.3771 7.41679 14.3771C7.39329 14.3771 7.36978 14.3771 7.34291 14.3771C6.21787 14.3871 5.07269 14.3871 3.96444 14.3838C3.54801 14.3838 3.13494 14.3838 2.71851 14.3804C2.38268 14.3804 2.3323 14.3302 2.3323 13.999C2.3323 10.6471 2.3323 7.27838 2.3323 3.98996C2.3323 3.67551 2.39275 3.61529 2.70507 3.61529H3.53794C4.88462 3.61529 6.27497 3.61195 7.64516 3.61864C8.46123 3.62198 8.99184 4.15388 8.99184 4.97682C8.99184 7.38542 8.99184 9.79068 8.99184 12.1993V14.7016ZM10.5535 13.6378C10.5535 12.962 10.5535 12.2829 10.5535 11.6072C10.5535 9.42939 10.5501 7.17467 10.5568 4.95675C10.5602 3.71565 11.0874 2.74217 12.1285 2.06977C12.6255 1.74863 13.183 1.57802 13.7842 1.57133C14.0025 1.56798 14.2174 1.56798 14.4222 1.56798C14.5532 1.56798 14.6775 1.56798 14.7917 1.56798C15.1141 1.56798 15.1644 1.62151 15.1644 1.93931C15.1644 3.73238 15.1644 5.52545 15.1644 7.31852V9.37587V10.1654C15.1644 10.7675 15.1644 11.3697 15.1644 11.9752C15.1644 12.2394 15.1208 12.3097 14.8017 12.3264C14.6439 12.3331 14.4793 12.3398 14.3215 12.3465C13.8077 12.3632 13.2771 12.3833 12.7565 12.4769C11.9539 12.6241 11.2151 13.0155 10.5535 13.6378ZM17.2264 3.97324C17.2264 3.99665 17.2264 4.02342 17.2264 4.04683C17.2264 6.91374 17.2264 9.78065 17.2264 12.6476V13.9388V13.9622C17.2264 13.9857 17.2264 14.0057 17.2264 14.0292C17.2197 14.3102 17.1492 14.3838 16.8738 14.3838C15.7891 14.3838 14.701 14.3838 13.6162 14.3838H12.1419C12.4946 14.1563 12.8741 14.0158 13.2737 13.9622C13.6532 13.9121 14.0394 13.9087 14.4458 13.902C14.5868 13.902 14.7346 13.8987 14.879 13.8953C15.779 13.8719 16.4876 13.32 16.679 12.487C16.726 12.2863 16.726 12.0822 16.726 11.9016C16.7294 9.65687 16.7294 7.37204 16.7294 5.16416V3.61195C16.8436 3.61195 16.9477 3.61529 17.0249 3.64206C17.0686 3.65544 17.1358 3.73572 17.2298 3.87288C17.2298 3.8963 17.2264 3.93979 17.2264 3.97324Z" fill="#8995A3"/>
<path d="M4.11077 8.55305H6.4448C6.91832 8.55305 7.30117 8.17169 7.30117 7.7C7.30117 7.22832 6.91832 6.84695 6.4448 6.84695H4.11077C3.63724 6.84695 3.25439 7.22832 3.25439 7.7C3.25439 8.17169 3.63724 8.55305 4.11077 8.55305Z" fill="#8995A3"/>
<path d="M7.16683 9.4227H4.11077C3.63724 9.4227 3.25439 9.80406 3.25439 10.2757C3.25439 10.7474 3.63724 11.1288 4.11077 11.1288H7.16683C7.64036 11.1288 8.02321 10.7474 8.02321 10.2757C8.02321 9.80406 7.64036 9.4227 7.16683 9.4227Z" fill="#8995A3"/>
</svg>
