<svg width="40" height="41" viewBox="0 0 40 41" fill="none" xmlns="http://www.w3.org/2000/svg">
<path fill-rule="evenodd" clip-rule="evenodd" d="M19.2577 30.4711L13.4869 33.6416C12.7074 34.0698 11.7432 33.7566 11.3334 32.9421C11.1702 32.6177 11.1139 32.2461 11.1732 31.8849L12.2754 25.1698C12.3641 24.6292 12.1926 24.0777 11.8168 23.6948L7.14805 18.9391C6.51742 18.2968 6.50452 17.2418 7.11923 16.5828C7.36401 16.3203 7.68475 16.1496 8.03178 16.0969L14.4838 15.1171C15.0031 15.0383 15.4521 14.6974 15.6844 14.2056L18.5698 8.09591C18.9596 7.27064 19.9157 6.93181 20.7054 7.3391C21.0199 7.50129 21.2744 7.76728 21.4296 8.09591L24.3151 14.2056C24.5473 14.6974 24.9963 15.0383 25.5157 15.1171L31.9677 16.0969C32.8392 16.2292 33.443 17.0748 33.3164 17.9855C33.266 18.3482 33.1025 18.6833 32.8514 18.9391L28.1827 23.6948C27.8069 24.0777 27.6354 24.6292 27.7241 25.1698L28.8262 31.8849C28.9751 32.792 28.3922 33.6534 27.5242 33.809C27.1785 33.871 26.823 33.8121 26.5126 33.6416L20.7418 30.4711C20.2772 30.2159 19.7222 30.2159 19.2577 30.4711ZM17.9737 28.1339C19.2379 27.4394 20.7616 27.4394 22.0258 28.1339L25.8534 30.2368L25.0926 25.6017C24.8671 24.2273 25.3046 22.82 26.2798 21.8267L29.6086 18.4359L25.1153 17.7536C23.7088 17.54 22.5113 16.6308 21.9038 15.3443L19.9997 11.3127L18.0957 15.3443C17.4881 16.6308 16.2906 17.54 14.8841 17.7536L10.3909 18.4359L13.7197 21.8267C14.6948 22.82 15.1324 24.2273 14.9068 25.6017L14.1461 30.2368L17.9737 28.1339Z" fill="#8995A3"/>
</svg>
