<svg width="39" height="42" viewBox="0 0 39 42" fill="none" xmlns="http://www.w3.org/2000/svg">
<path d="M31.1667 8.5H7.83333C7.61232 8.5 7.40036 8.58777 7.24408 8.74401C7.0878 8.90025 7 9.11215 7 9.3331V11.8324C7 12.0533 7.0878 12.2653 7.24408 12.4215C7.40036 12.5777 7.61232 12.6655 7.83333 12.6655V25.9951C7.83333 26.216 7.92113 26.4279 8.07741 26.5842C8.23369 26.7404 8.44565 26.8282 8.66667 26.8282H18.6667V28.6443C18.1107 28.8409 17.642 29.2276 17.3436 29.7361C17.0452 30.2446 16.9363 30.8423 17.036 31.4233C17.1357 32.0044 17.4377 32.5316 17.8886 32.9116C18.3395 33.2916 18.9103 33.5 19.5 33.5C20.0897 33.5 20.6605 33.2916 21.1114 32.9116C21.5623 32.5316 21.8643 32.0044 21.964 31.4233C22.0637 30.8423 21.9548 30.2446 21.6564 29.7361C21.358 29.2276 20.8893 28.8409 20.3333 28.6443V26.8282H30.3333C30.5543 26.8282 30.7663 26.7404 30.9226 26.5842C31.0789 26.4279 31.1667 26.216 31.1667 25.9951V12.6655C31.3877 12.6655 31.5996 12.5777 31.7559 12.4215C31.9122 12.2653 32 12.0533 32 11.8324V9.3331C32 9.11215 31.9122 8.90025 31.7559 8.74401C31.5996 8.58777 31.3877 8.5 31.1667 8.5ZM19.5 31.8268C19.3352 31.8268 19.1741 31.7779 19.037 31.6864C18.9 31.5948 18.7932 31.4647 18.7301 31.3125C18.667 31.1603 18.6505 30.9928 18.6827 30.8312C18.7148 30.6695 18.7942 30.5211 18.9107 30.4046C19.0273 30.2881 19.1758 30.2087 19.3374 30.1766C19.4991 30.1444 19.6666 30.1609 19.8189 30.224C19.9712 30.2871 20.1013 30.3938 20.1929 30.5308C20.2845 30.6678 20.3333 30.8289 20.3333 30.9937C20.3333 31.2146 20.2455 31.4265 20.0893 31.5828C19.933 31.739 19.721 31.8268 19.5 31.8268ZM8.66667 10.1662H30.3333V10.9993H8.66667V10.1662ZM29.5 25.162H9.5V12.6655H29.5V25.162Z" fill="#8995A3"/>
<path d="M23 21.5H28V23.5H23V21.5Z" fill="#8995A3"/>
<path d="M20 21.5H22V23.5H20V21.5Z" fill="#8995A3"/>
<path d="M20.8889 20.5H27.1111C27.3469 20.5 27.573 20.3946 27.7397 20.2071C27.9064 20.0196 28 19.7652 28 19.5V15.5C28 15.2348 27.9064 14.9804 27.7397 14.7929C27.573 14.6054 27.3469 14.5 27.1111 14.5H20.8889C20.6531 14.5 20.427 14.6054 20.2603 14.7929C20.0936 14.9804 20 15.2348 20 15.5V19.5C20 19.7652 20.0936 20.0196 20.2603 20.2071C20.427 20.3946 20.6531 20.5 20.8889 20.5ZM21.7778 16.5H26.2222V18.5H21.7778V16.5Z" fill="#8995A3"/>
<path d="M11 21.2273C11 21.83 11.2341 22.4081 11.6509 22.8343C12.0676 23.2606 12.6329 23.5 13.2222 23.5H16.7778C17.3671 23.5 17.9324 23.2606 18.3491 22.8343C18.7659 22.4081 19 21.83 19 21.2273C19 20.5448 18.8323 19.8734 18.5123 19.2745C18.1924 18.6757 17.7304 18.1686 17.1689 17.8C17.4899 17.341 17.6638 16.7916 17.6667 16.2273C17.6667 15.504 17.3857 14.8103 16.8856 14.2988C16.3855 13.7873 15.7072 13.5 15 13.5C14.2928 13.5 13.6145 13.7873 13.1144 14.2988C12.6143 14.8103 12.3333 15.504 12.3333 16.2273C12.3362 16.7916 12.5101 17.341 12.8311 17.8C12.2696 18.1686 11.8076 18.6757 11.4877 19.2745C11.1677 19.8734 11 20.5448 11 21.2273ZM14.1111 16.2273C14.1111 16.0475 14.1632 15.8717 14.2609 15.7222C14.3586 15.5727 14.4974 15.4562 14.6598 15.3874C14.8223 15.3186 15.001 15.3006 15.1734 15.3356C15.3458 15.3707 15.5042 15.4573 15.6285 15.5844C15.7529 15.7116 15.8375 15.8736 15.8718 16.0499C15.9061 16.2263 15.8885 16.4091 15.8212 16.5752C15.7539 16.7413 15.64 16.8833 15.4938 16.9832C15.3477 17.083 15.1758 17.1364 15 17.1364C14.7643 17.1364 14.5382 17.0406 14.3715 16.8701C14.2048 16.6996 14.1111 16.4684 14.1111 16.2273ZM15 18.9545C15.5894 18.9545 16.1546 19.194 16.5713 19.6202C16.9881 20.0464 17.2222 20.6245 17.2222 21.2273C17.2222 21.3478 17.1754 21.4634 17.092 21.5487C17.0087 21.6339 16.8957 21.6818 16.7778 21.6818H13.2222C13.1043 21.6818 12.9913 21.6339 12.908 21.5487C12.8246 21.4634 12.7778 21.3478 12.7778 21.2273C12.7778 20.6245 13.0119 20.0464 13.4287 19.6202C13.8454 19.194 14.4106 18.9545 15 18.9545Z" fill="#8995A3"/>
</svg>
