<svg width="24" height="24" viewBox="0 0 24 24" fill="none" xmlns="http://www.w3.org/2000/svg">
<path d="M18.432 13.0277L18.3878 13.0103V9.5253C18.3878 5.92909 15.5238 3 12 3C8.47621 3 5.61228 5.92562 5.61228 9.5253V13.0103L5.56806 13.0277C5.24153 13.1424 4.94221 13.3369 4.70071 13.5871C4.25173 14.0319 3.99663 14.6538 4.00003 15.2931C4.00003 16.6204 5.05445 17.6976 6.35377 17.6976H8.10207L8.11227 17.7532C8.54764 19.9422 10.6463 21.3633 12.7891 20.9185C14.3538 20.5954 15.568 19.3515 15.8878 17.7532L15.898 17.6976H17.6463C18.9354 17.6906 19.9932 16.6135 20 15.2931C20 14.2786 19.3673 13.3682 18.432 13.0277ZM14.347 17.7914C13.9966 18.8025 13.051 19.4835 12 19.487C10.949 19.487 10.0068 18.806 9.65308 17.7914L9.62247 17.6976H14.381L14.347 17.7914Z" fill="#A6B2BF"/>
</svg>
