<svg width="105" height="107" viewBox="0 0 105 107" fill="none" xmlns="http://www.w3.org/2000/svg">
<path fill-rule="evenodd" clip-rule="evenodd" d="M2.69727 14.5994V98.6375C2.69727 102.082 5.51536 104.905 8.96662 104.905H75.2822C78.7335 104.905 81.5516 102.082 81.5516 98.6375V61.0118L72.1419 69.387V92.0646C72.1419 93.772 70.7389 95.175 69.0251 95.175H14.8416C13.1341 95.175 11.7308 93.7722 11.7308 92.0646V21.721C11.7308 20.0076 13.1341 18.605 14.8416 18.605L29.9532 18.6108V8.32568H8.96641C5.51536 8.32568 2.69727 11.1492 2.69727 14.5994Z" fill="#52CBF0"/>
<path fill-rule="evenodd" clip-rule="evenodd" d="M61.6031 18.6108L72.1414 29.1412V51.216L81.5511 42.8408V14.5994C81.5511 11.1491 78.733 8.32544 75.2817 8.32544H54.1758V18.6106H61.6031V18.6108Z" fill="#52CBF0"/>
<path fill-rule="evenodd" clip-rule="evenodd" d="M29.9526 18.6108H54.1758V8.32567H47.7989C47.7989 5.16187 45.2316 2.59485 42.0614 2.59485C38.897 2.59485 36.3295 5.16187 36.3295 8.32567H29.9526V18.6108Z" fill="#FFCB7C"/>
<path fill-rule="evenodd" clip-rule="evenodd" d="M11.731 21.7209V92.0648C11.731 93.7721 13.1342 95.1752 14.8417 95.1752H69.025C70.7388 95.1752 72.1418 93.7724 72.1418 92.0648V69.387L60.5947 79.6544L45.9788 83.5702L51.5732 69.5124L72.1418 51.216V29.141H64.7203C63.0068 29.141 61.6037 27.7382 61.6037 26.0248V18.6108H54.1766H29.9531L14.8417 18.605C13.1342 18.605 11.731 20.0076 11.731 21.7209Z" fill="#F9F9F9"/>
<path fill-rule="evenodd" clip-rule="evenodd" d="M61.6032 26.0251C61.6032 27.7382 63.0062 29.1412 64.7198 29.1412H72.1413L61.603 18.6108V26.0251H61.6032Z" fill="#C6C4C8"/>
<path fill-rule="evenodd" clip-rule="evenodd" d="M51.5729 69.5125L45.9785 83.5702L60.5944 79.6545L56.0806 74.5806L51.5729 69.5125Z" fill="#FFCB7C"/>
<path fill-rule="evenodd" clip-rule="evenodd" d="M51.5728 69.5125L56.0805 74.5806L72.1414 60.3254L81.5513 51.9622L92.5669 42.1784L88.0292 37.0803L81.5513 42.8409L72.1414 51.2159L51.5728 69.5125Z" fill="#FFE6C0"/>
<path fill-rule="evenodd" clip-rule="evenodd" d="M56.0806 74.5806L60.5943 79.6545L72.1415 69.387L81.5513 61.0118L97.0571 47.2223L92.573 42.1842L92.567 42.1783L81.5513 51.9622L72.1415 60.3254L56.0806 74.5806Z" fill="#FFCB7C"/>
<path fill-rule="evenodd" clip-rule="evenodd" d="M88.0288 37.0802L92.5663 42.1783L92.5723 42.1841L97.0563 47.2223L100.895 43.8076C100.949 43.76 101.003 43.7063 101.051 43.6587C102.633 42.0945 102.735 39.5278 101.242 37.8503L101.051 37.6414L97.8264 34.0119C96.2861 32.2809 93.5995 32.1196 91.8678 33.6658L88.0288 37.0802Z" fill="#F46370"/>
<path d="M102.807 36.4579L99.3918 32.6193C98.2725 31.3615 96.725 30.6154 95.0341 30.5182C93.3452 30.4228 91.7265 30.9842 90.476 32.1003L86.6376 35.5144C86.6374 35.5146 86.637 35.5148 86.6368 35.515L83.6458 38.1758V14.5994C83.6458 9.98474 79.8936 6.23082 75.2819 6.23082H54.1759H49.6089C48.6901 2.92953 45.6545 0.5 42.0615 0.5C38.4713 0.5 35.438 2.92953 34.5196 6.23082H29.9528H8.96625C4.3543 6.23082 0.602259 9.98495 0.602259 14.5994V48.3505C0.602259 49.5075 1.54017 50.4454 2.69711 50.4454C3.85404 50.4454 4.79195 49.5075 4.79195 48.3505V14.5994C4.79195 12.2951 6.66465 10.4203 8.96646 10.4203H27.8584V16.5116L14.8414 16.5099C11.9711 16.5099 9.63604 18.8475 9.63604 21.7207V92.0646C9.63604 94.9347 11.9711 97.2696 14.8414 97.2696H69.0248C71.8984 97.2696 74.2364 94.9345 74.2364 92.0646V70.3241L79.4566 65.6809V98.6375C79.4566 100.938 77.5839 102.81 75.2821 102.81H8.96625C6.66444 102.81 4.79174 100.938 4.79174 98.6375V64.9577C4.79174 63.8007 3.85384 62.8628 2.6969 62.8628C1.53996 62.8628 0.602051 63.8007 0.602051 64.9577V98.6375C0.602259 103.249 4.35451 107 8.96625 107H75.2819C79.8938 107 83.6458 103.249 83.6458 98.6375V61.9545L98.4491 48.7876C98.4495 48.7871 98.4498 48.7869 98.4502 48.7867L102.288 45.3731C103.544 44.2561 104.289 42.711 104.387 41.0222C104.485 39.334 103.924 37.713 102.807 36.4579ZM56.2708 10.4203H75.2819C77.5837 10.4203 79.4564 12.2951 79.4564 14.5994V41.9029L74.2362 46.5467V29.141C74.2362 28.591 74.0122 28.0475 73.6222 27.6592L63.0839 17.1288C62.6953 16.7398 62.1528 16.5158 61.6035 16.5158L56.2708 16.5151V10.4203ZM67.0816 27.0464H64.7198C64.1659 27.0464 63.6979 26.5786 63.6979 26.0251V23.6654L67.0816 27.0464ZM32.0476 10.4203H36.3297C37.4866 10.4203 38.4245 9.4824 38.4245 8.32546C38.4245 6.32068 40.0559 4.68949 42.0615 4.68949C44.0703 4.68949 45.7044 6.32068 45.7044 8.32546C45.7044 9.4824 46.6423 10.4203 47.799 10.4203H52.0811V16.5147L32.0476 16.5122V10.4203ZM70.0465 92.0648C70.0465 92.6152 69.5787 93.0801 69.0246 93.0801H14.8414C14.2908 93.0801 13.8255 92.6152 13.8255 92.0648V21.721C13.8255 21.1672 14.2906 20.6996 14.841 20.6996L29.8737 20.7015C29.9004 20.7023 29.9262 20.7055 29.9528 20.7055H54.1759C54.1822 20.7055 54.1882 20.7046 54.1942 20.7046L59.5082 20.7053V26.0248C59.5082 28.8981 61.846 31.2356 64.7196 31.2356H70.0463V50.2738L50.1801 67.947C50.1776 67.9492 50.1755 67.9517 50.173 67.954C49.9952 68.1138 49.8527 68.2979 49.7426 68.4959C49.7387 68.5032 49.7331 68.5094 49.7293 68.5167C49.7237 68.5271 49.7198 68.5383 49.7144 68.5487C49.6886 68.5982 49.6653 68.6486 49.6438 68.6997C49.6384 68.7126 49.6314 68.7245 49.6262 68.7374L44.5572 81.4749H21.5703C20.4133 81.4749 19.4756 82.4129 19.4756 83.5698C19.4756 84.7267 20.4133 85.6646 21.5703 85.6646H45.9765C45.9771 85.6646 45.9777 85.6646 45.9783 85.6646C45.9806 85.6646 45.9829 85.6642 45.9852 85.6642C46.0634 85.664 46.1402 85.6588 46.2161 85.6503C46.2242 85.6495 46.2325 85.6488 46.2406 85.6478C46.2581 85.6455 46.2754 85.6413 46.2928 85.6386C46.3577 85.6289 46.4216 85.6164 46.4844 85.6006C46.4963 85.5977 46.5083 85.5966 46.5202 85.5935L61.1363 81.6775C61.1365 81.6775 61.1367 81.6773 61.1369 81.6773C61.2823 81.6384 61.424 81.5821 61.5602 81.5109C61.5696 81.5068 61.5789 81.5028 61.5879 81.498C61.5968 81.4932 61.6051 81.4874 61.6139 81.482C61.6632 81.4544 61.7114 81.4244 61.7588 81.3926C61.7705 81.3849 61.7832 81.3784 61.7948 81.3705C61.7998 81.367 61.8042 81.3628 61.809 81.3593C61.8678 81.3173 61.9257 81.2723 61.981 81.2233C61.9827 81.2218 61.9845 81.2206 61.9862 81.2191L62.2252 81.0065L70.0463 74.0522V92.0648H70.0465ZM52.2639 73.4413L54.5141 75.9711C54.5154 75.9725 54.5164 75.974 54.5177 75.9754C54.5187 75.9767 54.52 75.9777 54.5212 75.979L56.7723 78.5096L49.4681 80.4665L52.2639 73.4413ZM80.2212 59.3935C80.2137 59.3995 80.2071 59.4064 80.1998 59.4126L60.7671 76.697L59.0356 74.7505L68.4615 66.3355C69.3245 65.5651 69.3996 64.2407 68.6291 63.3776C67.8585 62.5144 66.5345 62.4395 65.6715 63.21L56.251 71.6199L54.5302 69.6855L73.5335 52.7813C73.5392 52.7763 73.5437 52.7707 73.5494 52.7657L87.857 40.0375L89.608 42.0046L78.2191 52.1213C77.3542 52.8897 77.2758 54.2139 78.0442 55.0788C78.4581 55.5447 79.0333 55.7824 79.6111 55.7824C80.106 55.7824 80.6027 55.6081 81.0016 55.2539L92.3938 45.1343L94.0991 47.0501L80.2212 59.3935ZM100.205 40.7795C100.171 41.3504 99.9225 41.87 99.5035 42.2426L97.2292 44.2655L90.9873 37.2529L93.2633 35.2286C93.6808 34.8556 94.2237 34.6678 94.7938 34.7011C95.3658 34.7339 95.8873 34.9837 96.2617 35.4043L99.677 39.2427C100.05 39.6623 100.238 40.2081 100.205 40.7795Z" fill="black"/>
<path d="M21.5702 75.4753H38.0432C39.2001 75.4753 40.1378 74.5374 40.1378 73.3805C40.1378 72.2238 39.1999 71.2856 38.0432 71.2856H21.5702C20.4133 71.2856 19.4756 72.2235 19.4756 73.3805C19.4754 74.5374 20.4133 75.4753 21.5702 75.4753Z" fill="black"/>
<path d="M21.5702 65.2797H45.9783C47.135 65.2797 48.0729 64.3418 48.0729 63.1848C48.0729 62.0281 47.135 61.09 45.9783 61.09H21.5702C20.4133 61.09 19.4756 62.0279 19.4756 63.1848C19.4754 64.3418 20.4133 65.2797 21.5702 65.2797Z" fill="black"/>
<path d="M21.5702 55.0837H59.1312C60.2882 55.0837 61.2261 54.1458 61.2261 52.9889C61.2261 51.832 60.2882 50.894 59.1312 50.894H21.5702C20.4133 50.894 19.4756 51.832 19.4756 52.9889C19.4754 54.1458 20.4133 55.0837 21.5702 55.0837Z" fill="black"/>
<path d="M21.5702 44.8939H59.1312C60.2882 44.8939 61.2261 43.956 61.2261 42.7991C61.2261 41.6421 60.2882 40.7042 59.1312 40.7042H21.5702C20.4133 40.7042 19.4756 41.6421 19.4756 42.7991C19.4754 43.9562 20.4133 44.8939 21.5702 44.8939Z" fill="black"/>
<path d="M2.69739 58.7489C3.85433 58.7489 4.79223 57.811 4.79223 56.6541V56.6185C4.79223 55.4616 3.85433 54.5237 2.69739 54.5237C1.54045 54.5237 0.602539 55.4616 0.602539 56.6185V56.6541C0.602539 57.811 1.54045 58.7489 2.69739 58.7489Z" fill="black"/>
<path d="M71.833 57.7972L71.803 57.8269C70.9837 58.6436 70.9814 59.97 71.798 60.7896C72.2074 61.2002 72.7445 61.4055 73.2817 61.4055C73.8167 61.4055 74.3517 61.2021 74.7605 60.7944L74.7904 60.7646C75.6098 59.948 75.612 58.6215 74.7954 57.8022C73.9788 56.9828 72.6523 56.9801 71.833 57.7972Z" fill="black"/>
<path d="M21.5702 34.6981H28.0784C29.2351 34.6981 30.173 33.7602 30.173 32.6033C30.173 31.4463 29.2351 30.5084 28.0784 30.5084H21.5702C20.4133 30.5084 19.4756 31.4463 19.4756 32.6033C19.4754 33.7602 20.4133 34.6981 21.5702 34.6981Z" fill="black"/>
</svg>
