<svg width="24" height="24" viewBox="0 0 24 24" fill="none" xmlns="http://www.w3.org/2000/svg">
<path d="M20.3204 10.4351L12.9784 10.4348C12.6541 10.4348 12.3914 10.6975 12.3914 11.0217V13.3672C12.3914 13.6913 12.6541 13.9541 12.9783 13.9541H17.1129C16.6602 15.1291 15.8151 16.1131 14.737 16.7383L16.5 19.7901C19.328 18.1546 21 15.2848 21 12.0723C21 11.6149 20.9663 11.2879 20.8988 10.9197C20.8476 10.64 20.6047 10.4351 20.3204 10.4351Z" fill="#167EE6"/>
<path d="M12.0002 17.4787C9.97679 17.4787 8.21041 16.3732 7.26172 14.7373L4.20996 16.4963C5.76298 19.1879 8.67229 21.0005 12.0002 21.0005C13.6327 21.0005 15.1731 20.5609 16.5001 19.7949V19.7907L14.7372 16.7388C13.9308 17.2065 12.9976 17.4787 12.0002 17.4787Z" fill="#12B347"/>
<path d="M16.5 19.7944V19.7902L14.737 16.7383C13.9306 17.206 12.9975 17.4782 12 17.4782V20.9999C13.6325 20.9999 15.173 20.5604 16.5 19.7944Z" fill="#0F993E"/>
<path d="M6.52173 11.9997C6.52173 11.0024 6.79391 10.0693 7.26152 9.26291L4.20976 7.50391C3.43952 8.82672 3 10.363 3 11.9997C3 13.6364 3.43952 15.1727 4.20976 16.4955L7.26152 14.7365C6.79391 13.9301 6.52173 12.997 6.52173 11.9997Z" fill="#FFD500"/>
<path d="M12.0002 6.52173C13.3196 6.52173 14.5316 6.99057 15.4782 7.77044C15.7118 7.96281 16.0512 7.94892 16.2651 7.735L17.927 6.07317C18.1697 5.83045 18.1524 5.43315 17.8931 5.20822C16.307 3.83225 14.2434 3 12.0002 3C8.67229 3 5.76298 4.81254 4.20996 7.50416L7.26172 9.26316C8.21041 7.62724 9.97679 6.52173 12.0002 6.52173Z" fill="#FF4B26"/>
<path d="M15.4781 7.77044C15.7116 7.96281 16.0511 7.94892 16.265 7.735L17.9268 6.07317C18.1695 5.83045 18.1522 5.43315 17.8929 5.20822C16.3069 3.83222 14.2432 3 12 3V6.52173C13.3194 6.52173 14.5314 6.99057 15.4781 7.77044Z" fill="#D93F21"/>
</svg>
