<svg width="101" height="101" viewBox="0 0 101 101" fill="none" xmlns="http://www.w3.org/2000/svg">
<path d="M100.5 50.5C100.5 22.8858 78.1142 0.5 50.5 0.5C22.8858 0.5 0.5 22.8858 0.5 50.5C0.5 78.1142 22.8858 100.5 50.5 100.5C78.1142 100.5 100.5 78.1142 100.5 50.5Z" fill="#FFDDDF"/>
<path d="M92.1668 50.5C92.1668 27.4882 73.512 8.83337 50.5002 8.83337C27.4883 8.83337 8.8335 27.4882 8.8335 50.5C8.8335 73.5119 27.4883 92.1667 50.5002 92.1667C73.512 92.1667 92.1668 73.5119 92.1668 50.5Z" fill="#FF434E"/>
<path d="M55.5076 50.496L68.9047 37.1108C69.5724 36.4431 69.9446 35.5566 69.9446 34.6045C69.9446 33.6523 69.5724 32.7658 68.9047 32.0981C67.5256 30.7191 65.2709 30.7191 63.8918 32.0981L50.4946 45.4834L37.1085 32.0981C35.7184 30.7082 33.4746 30.7082 32.0955 32.0981C30.7164 33.4772 30.7164 35.7317 32.0955 37.1108L45.4926 50.507L32.0955 63.8922C31.4278 64.5598 31.0557 65.4463 31.0557 66.3985C31.0557 67.3397 31.4278 68.2372 32.0955 68.9048C32.7631 69.5724 33.6497 69.9446 34.602 69.9446C35.5433 69.9446 36.4408 69.5724 37.1085 68.9048L50.5056 55.5086L63.8918 68.9048C64.5594 69.5724 65.446 69.9446 66.3983 69.9446C67.3396 69.9446 68.2371 69.5724 68.9047 68.9048C69.5724 68.2372 69.9446 67.3397 69.9446 66.3985C69.9446 65.4463 69.5724 64.5598 68.9047 63.8922L55.5076 50.496Z" fill="white"/>
</svg>
