<svg width="40" height="41" viewBox="0 0 40 41" fill="none" xmlns="http://www.w3.org/2000/svg">
<path fill-rule="evenodd" clip-rule="evenodd" d="M19.9373 6.66675C27.3011 6.66675 33.2707 12.6363 33.2707 20.0001C33.2707 27.3639 27.3011 33.3334 19.9373 33.3334C12.5735 33.3334 6.604 27.3639 6.604 20.0001C6.604 12.6363 12.5735 6.66675 19.9373 6.66675ZM19.9373 9.33341C14.0463 9.33341 9.27065 14.109 9.27065 20.0001C9.27065 25.8911 14.0463 30.6667 19.9373 30.6667C25.8284 30.6667 30.604 25.8911 30.604 20.0001C30.604 14.109 25.8284 9.33341 19.9373 9.33341ZM19.9373 12.0001C20.6211 12.0001 21.1847 12.5148 21.2617 13.1779L21.2707 13.3334V19.4478L23.5468 21.7239C24.0675 22.2446 24.0675 23.0889 23.5468 23.6096C23.0662 24.0902 22.3099 24.1272 21.7868 23.7205L21.6612 23.6096L18.9945 20.9429C18.7862 20.7345 18.6539 20.4643 18.6156 20.1753L18.604 20.0001V13.3334C18.604 12.597 19.201 12.0001 19.9373 12.0001Z" fill="#8995A3"/>
</svg>
