<svg width="40" height="41" viewBox="0 0 40 41" fill="none" xmlns="http://www.w3.org/2000/svg">
<path fill-rule="evenodd" clip-rule="evenodd" d="M19.9973 7.16666C26.0676 7.16666 31 12.0635 31 18.0782C31 20.4574 30.2432 22.7195 28.8048 24.6144L22.9385 32.3749C22.2462 33.2904 21.1513 33.8333 20.0027 33.8333C18.8541 33.8333 17.7538 33.2904 17.0668 32.3802L11.1952 24.6197C9.75677 22.7195 9 20.4574 9 18.0782C9 12.0582 13.9271 7.16666 19.9973 7.16666ZM20.9795 30.9218L26.8512 23.1613C27.9676 21.6869 28.5579 19.9251 28.5579 18.0782C28.5579 13.3995 24.7151 9.5938 19.9973 9.5938C15.2796 9.5938 11.4421 13.3995 11.4421 18.0782C11.4421 19.9251 12.0324 21.6869 13.1488 23.1613L19.0259 30.9218C19.2566 31.2305 19.6162 31.4062 20.0027 31.4062C20.3891 31.4062 20.7434 31.2305 20.9795 30.9218ZM16.3369 18.0728C16.3369 16.0662 17.9793 14.4374 20.0027 14.4374C22.0207 14.4374 23.6684 16.0662 23.6684 18.0728C23.6684 20.0795 22.0261 21.7082 20.0027 21.7082C17.9793 21.7082 16.3369 20.0795 16.3369 18.0728ZM18.779 18.0728C18.779 18.7435 19.3264 19.2864 20.0027 19.2864C20.6736 19.2864 21.2264 18.7435 21.2264 18.0728C21.2264 17.4022 20.6789 16.8593 20.0027 16.8593C19.3264 16.8593 18.779 17.4022 18.779 18.0728Z" fill="#8995A3"/>
</svg>
