<svg width="17" height="16" viewBox="0 0 17 16" fill="none" xmlns="http://www.w3.org/2000/svg">
<path d="M12.7123 5.53444C12.6317 5.45421 12.5387 5.39867 12.4302 5.36472C12.1821 5.28758 11.9154 5.35238 11.7325 5.53444L8.25031 9.00286L4.76814 5.53444C4.63171 5.40175 4.45497 5.33386 4.27822 5.33386C4.10148 5.33386 3.92163 5.40175 3.7883 5.53444C3.65497 5.66713 3.58365 5.83993 3.58365 6.02508C3.58365 6.21023 3.65497 6.38303 3.7883 6.51263L7.76039 10.4655C7.89062 10.5951 8.06427 10.6661 8.25031 10.6661C8.43636 10.6661 8.61 10.5951 8.74024 10.4655L12.7123 6.51263C12.8426 6.38303 12.917 6.21023 12.917 6.02508C12.917 5.83993 12.8457 5.66713 12.7123 5.53444Z" fill="#A6B2BF"/>
</svg>
