<svg width="19" height="24" viewBox="0 0 19 24" fill="none" xmlns="http://www.w3.org/2000/svg">
<path fill-rule="evenodd" clip-rule="evenodd" d="M3.62443 0H11.6484L18.449 7.08846V20.8756C18.449 22.6027 17.0517 24 15.3306 24H3.62443C1.8973 24 0.5 22.6027 0.5 20.8756V3.12443C0.49997 1.3973 1.89727 0 3.62443 0V0Z" fill="#E5252A"/>
<path opacity="0.302" fill-rule="evenodd" clip-rule="evenodd" d="M11.6421 0V7.03449H18.4487L11.6421 0Z" fill="white"/>
<path d="M3.97217 17.9071V13.5233H5.83724C6.29901 13.5233 6.66484 13.6492 6.9407 13.9071C7.21656 14.1589 7.3545 14.5008 7.3545 14.9266C7.3545 15.3523 7.21656 15.6942 6.9407 15.946C6.66484 16.2039 6.29901 16.3299 5.83724 16.3299H5.09361V17.9071H3.97217ZM5.09361 15.3763H5.71131C5.87921 15.3763 6.01115 15.3404 6.10112 15.2564C6.19106 15.1785 6.23906 15.0705 6.23906 14.9266C6.23906 14.7827 6.19109 14.6747 6.10112 14.5968C6.01118 14.5128 5.87924 14.4768 5.71131 14.4768H5.09361V15.3763ZM7.81624 17.9071V13.5233H9.36946C9.67531 13.5233 9.96318 13.5652 10.233 13.6552C10.5029 13.7451 10.7488 13.8711 10.9647 14.045C11.1806 14.2129 11.3545 14.4408 11.4804 14.7287C11.6003 15.0165 11.6663 15.3464 11.6663 15.7182C11.6663 16.084 11.6004 16.4138 11.4804 16.7017C11.3545 16.9895 11.1806 17.2174 10.9647 17.3853C10.7487 17.5592 10.5029 17.6852 10.233 17.7751C9.96318 17.8651 9.67531 17.9071 9.36946 17.9071H7.81624ZM8.9137 16.9536H9.23753C9.41143 16.9536 9.57336 16.9356 9.72328 16.8936C9.8672 16.8516 10.0051 16.7856 10.1371 16.6957C10.263 16.6057 10.365 16.4798 10.4369 16.3119C10.5089 16.144 10.5449 15.946 10.5449 15.7182C10.5449 15.4843 10.5089 15.2864 10.4369 15.1185C10.365 14.9506 10.263 14.8246 10.1371 14.7347C10.0051 14.6447 9.86723 14.5787 9.72328 14.5368C9.57336 14.4948 9.41143 14.4768 9.23753 14.4768H8.9137V16.9536ZM12.23 17.9071V13.5233H15.3485V14.4768H13.3515V15.1784H14.9467V16.126H13.3515V17.9071H12.23Z" fill="white"/>
</svg>
