<svg width="24" height="25" viewBox="0 0 24 25" fill="none" xmlns="http://www.w3.org/2000/svg">
<path d="M20.4631 11.1061C20.2569 9.01661 19.3633 7.12649 17.8684 5.63501C16.968 4.73462 15.9164 4.05074 14.7446 3.59711C14.6758 3.56961 14.6071 3.54556 14.5384 3.5215C13.638 3.19846 12.6929 3.0232 11.7238 3.00258C11.576 2.99914 11.4214 2.99914 11.2736 3.00258C10.3079 3.02663 9.35943 3.2019 8.45905 3.5215C8.39032 3.54556 8.32158 3.57305 8.25285 3.59711C7.08097 4.0473 6.02938 4.73462 5.12899 5.63501C3.64438 7.12649 2.74743 9.01661 2.54468 11.1061C2.51375 11.4016 2.5 11.7006 2.5 11.9996C2.5 12.0649 2.5 12.1302 2.50344 12.1955C2.50344 12.2161 2.50344 12.2367 2.50344 12.2573V12.2711C2.50344 12.3089 2.50687 12.3432 2.50687 12.381C2.50687 12.4188 2.51031 12.4532 2.51031 12.491V12.5185C2.63403 14.7213 3.56534 16.8005 5.13243 18.3641C5.88504 19.1167 6.75106 19.7216 7.703 20.1649C8.6515 20.6082 9.66529 20.8763 10.7169 20.9656L10.7444 20.9691C10.7891 20.9725 10.8303 20.9759 10.875 20.9794C10.9093 20.9828 10.9437 20.9828 10.9781 20.9863H10.9849C11.0227 20.9897 11.064 20.9897 11.1018 20.9931C11.1465 20.9966 11.1946 20.9966 11.2392 20.9966C11.2599 20.9966 11.2805 20.9966 11.3011 20.9966C11.3664 20.9966 11.4317 21 11.497 21C11.5623 21 11.6276 21 11.6929 20.9966C11.7135 20.9966 11.7341 20.9966 11.7547 20.9966C11.7994 20.9966 11.8475 20.9931 11.8922 20.9931C11.93 20.9931 11.9712 20.9897 12.009 20.9863H12.0159C12.0503 20.9828 12.0846 20.9828 12.119 20.9794C12.1637 20.9759 12.2084 20.9725 12.2496 20.9691L12.2771 20.9656C13.3287 20.8763 14.3425 20.6048 15.291 20.1649C16.2429 19.7216 17.1089 19.1167 17.8616 18.3641C19.4286 16.7971 20.36 14.7213 20.4837 12.5185V12.491C20.4871 12.4532 20.4871 12.4188 20.4871 12.381C20.4871 12.3432 20.4905 12.3089 20.4905 12.2711V12.2573C20.4905 12.2367 20.4905 12.2161 20.4905 12.1955C20.4905 12.1302 20.494 12.0649 20.494 11.9996C20.5077 11.7006 20.494 11.4016 20.4631 11.1061ZM18.7207 11.9996C18.7207 12.0546 18.7207 12.1095 18.7173 12.1611C18.7173 12.1783 18.7173 12.1989 18.7173 12.2161C18.7173 12.2504 18.7138 12.2848 18.7138 12.3192V12.3364C18.7138 12.3535 18.7138 12.3707 18.7104 12.3879C18.7104 12.4017 18.7104 12.412 18.707 12.4257V12.4463C18.6279 13.7076 18.2087 14.9379 17.4973 15.9998C17.4801 16.0238 17.4629 16.0513 17.4492 16.0822C16.4216 17.5703 14.8958 18.615 13.15 19.024L13.1191 19.0308C13.0675 19.0411 13.016 19.0549 12.9644 19.0652L12.9301 19.0721C12.8922 19.0789 12.851 19.0858 12.8132 19.0961C12.7926 19.0996 12.772 19.103 12.7548 19.1064C12.717 19.1133 12.6757 19.1202 12.6345 19.1271C12.6104 19.1305 12.583 19.1339 12.5589 19.1374C12.5245 19.1408 12.4902 19.1477 12.4558 19.1511C12.4317 19.1546 12.4111 19.158 12.3871 19.158C12.3493 19.1614 12.3115 19.1683 12.2737 19.1717C12.2496 19.1752 12.2255 19.1752 12.2049 19.1786C12.1671 19.182 12.1259 19.1855 12.0881 19.1889C12.0675 19.1889 12.0503 19.1924 12.0297 19.1924C11.9816 19.1958 11.9369 19.1992 11.8888 19.2027H11.8613C11.8097 19.2061 11.7616 19.2061 11.7101 19.2095H11.6654C11.5554 19.213 11.4454 19.213 11.3355 19.2095H11.2908C11.2392 19.2095 11.1911 19.2061 11.1396 19.2027H11.1121C11.064 19.1992 11.0193 19.1958 10.9712 19.1924C10.9506 19.1924 10.9334 19.1889 10.9128 19.1889C10.875 19.1855 10.8337 19.182 10.7959 19.1786C10.7719 19.1752 10.7478 19.1752 10.7272 19.1717C10.6894 19.1683 10.6516 19.1649 10.6138 19.158C10.5897 19.1546 10.5691 19.1511 10.5451 19.1511C10.5107 19.1477 10.4763 19.1408 10.442 19.1374C10.4179 19.1339 10.3904 19.1305 10.3664 19.1271C10.3251 19.1202 10.2873 19.1133 10.2461 19.1064C10.2255 19.103 10.2048 19.0996 10.1877 19.0961C10.1498 19.0893 10.1086 19.0824 10.0708 19.0721L10.0364 19.0652C9.98489 19.0549 9.93334 19.0446 9.8818 19.0308L9.85087 19.024C8.10508 18.615 6.5758 17.5703 5.55169 16.0822C5.53795 16.0547 5.52076 16.0273 5.50358 15.9998C4.79221 14.9344 4.37294 13.7076 4.2939 12.4463V12.4257C4.2939 12.4154 4.2939 12.4017 4.29046 12.3913C4.29046 12.3742 4.29046 12.357 4.28703 12.3398V12.3192C4.28703 12.2848 4.28359 12.2504 4.28359 12.2161C4.28359 12.1989 4.28359 12.1783 4.28359 12.1611C4.28359 12.1061 4.28015 12.0511 4.28015 11.9996C4.28015 11.814 4.28703 11.6284 4.30077 11.4463C4.31108 11.326 4.32139 11.2023 4.33858 11.082C4.3695 10.8449 4.41074 10.6043 4.46573 10.3706C4.82657 8.84134 5.69603 7.44265 6.91602 6.43229C8.17037 5.39444 9.69278 4.82741 11.3183 4.78617C11.442 4.78273 11.5657 4.78273 11.6894 4.78617C13.3149 4.82741 14.8374 5.39788 16.0917 6.43229C17.3117 7.43922 18.1812 8.84134 18.5351 10.3706C18.5901 10.6043 18.6314 10.8414 18.6623 11.082C18.676 11.2023 18.6898 11.326 18.7001 11.4463C18.7138 11.6284 18.7207 11.814 18.7207 11.9996Z" fill="#8995A3"/>
<path d="M14.2864 10.5665L10.8601 8.58014C10.3412 8.28115 9.72261 8.28115 9.20712 8.5767C8.6882 8.87568 8.37891 9.41179 8.37891 10.0132V13.9825C8.37891 14.5839 8.6882 15.12 9.20712 15.419C9.46143 15.5633 9.74667 15.6423 10.0319 15.6423C10.3206 15.6423 10.6058 15.5633 10.8601 15.419L14.2864 13.4326C14.8019 13.1336 15.1112 12.5975 15.1112 11.9995C15.1112 11.4016 14.8019 10.8655 14.2864 10.5665ZM13.197 11.9995L10.1625 13.7556V10.2434L13.197 11.9995Z" fill="#8995A3"/>
</svg>
