<svg width="25" height="25" viewBox="0 0 25 25" fill="none" xmlns="http://www.w3.org/2000/svg">
<path d="M17.9839 14.5403V6.19355C17.9839 4.43347 16.5504 3 14.7903 3H6.44355C4.68347 3 3.25 4.43347 3.25 6.19355V14.5403C3.25 16.3004 4.68347 17.7339 6.44355 17.7339H14.7903C16.5504 17.7339 17.9839 16.3004 17.9839 14.5403ZM4.99194 14.5403V6.19355C4.99194 5.39153 5.64153 4.74194 6.44355 4.74194H14.7903C15.5923 4.74194 16.2419 5.39153 16.2419 6.19355V14.5403C16.2419 15.3423 15.5923 15.9919 14.7903 15.9919H6.44355C5.64153 15.9919 4.99194 15.3387 4.99194 14.5403Z" fill="#8995A3"/>
<path d="M20.3792 9.49597C19.8965 9.49597 19.5082 9.88428 19.5082 10.3669V16.6452C19.5082 18.0859 18.336 19.2581 16.8953 19.2581H10.6171C10.1344 19.2581 9.74609 19.6464 9.74609 20.129C9.74609 20.6117 10.1344 21 10.6171 21H16.8953C19.2977 21 21.2501 19.0476 21.2501 16.6452V10.3669C21.2501 9.88428 20.8618 9.49597 20.3792 9.49597Z" fill="#8995A3"/>
</svg>
